<?xml version="1.0" encoding="UTF-8" standalone="no"?>
<!-- Created with Inkscape (http://www.inkscape.org/) -->

<svg
   xmlns:dc="http://purl.org/dc/elements/1.1/"
   xmlns:cc="http://creativecommons.org/ns#"
   xmlns:rdf="http://www.w3.org/1999/02/22-rdf-syntax-ns#"
   xmlns:svg="http://www.w3.org/2000/svg"
   xmlns="http://www.w3.org/2000/svg"
   xmlns:sodipodi="http://sodipodi.sourceforge.net/DTD/sodipodi-0.dtd"
   xmlns:inkscape="http://www.inkscape.org/namespaces/inkscape"
   width="210.4798mm"
   height="244.11061mm"
   viewBox="0 0 745.79456 864.95885"
   id="svg9213"
   version="1.1"
   inkscape:version="0.91 r13725"
   sodipodi:docname="cc_pic_color_6_1.svg"
   inkscape:export-filename="/home/jedi/Dropbox/creative-commons/cc_landing/cc_pic_color_6_1.png"
   inkscape:export-xdpi="62.389835"
   inkscape:export-ydpi="62.389835">
  <defs
     id="defs9215" />
  <sodipodi:namedview
     id="base"
     pagecolor="#ffffff"
     bordercolor="#666666"
     borderopacity="1.0"
     inkscape:pageopacity="0.0"
     inkscape:pageshadow="2"
     inkscape:zoom="0.49497475"
     inkscape:cx="557.97366"
     inkscape:cy="512.22733"
     inkscape:document-units="px"
     inkscape:current-layer="layer1"
     showgrid="false"
     fit-margin-top="0"
     fit-margin-left="0"
     fit-margin-right="0"
     fit-margin-bottom="0"
     inkscape:window-width="1855"
     inkscape:window-height="1056"
     inkscape:window-x="65"
     inkscape:window-y="24"
     inkscape:window-maximized="1" />
  <metadata
     id="metadata9218">
    <rdf:RDF>
      <cc:Work
         rdf:about="">
        <dc:format>image/svg+xml</dc:format>
        <dc:type
           rdf:resource="http://purl.org/dc/dcmitype/StillImage" />
        <dc:title></dc:title>
      </cc:Work>
    </rdf:RDF>
  </metadata>
  <g
     inkscape:label="Layer 1"
     inkscape:groupmode="layer"
     id="layer1"
     transform="translate(1199.9874,-110.77361)">
    <path
       style="fill:#999999;fill-rule:evenodd;stroke:none;stroke-width:1px;stroke-linecap:butt;stroke-linejoin:miter;stroke-opacity:1"
       d="m -713.09387,271.65615 c -6.06092,-8.08122 -27.27412,-33.33504 -27.27412,-35.35534 0,-2.02031 -13.63706,-32.82996 -13.63706,-32.82996 l -7.07107,-31.8198 2.52538,-22.72844 -14.14213,4.04061 -23.23351,22.22336 -24.74874,53.03301 20.20305,35.86041 c 0,0 59.09393,25.75889 63.13454,22.72844 4.04061,-3.03046 24.24366,-15.15229 24.24366,-15.15229 z"
       id="path9809"
       inkscape:connector-curvature="0" />
    <path
       style="fill:#447821;fill-rule:evenodd;stroke:none;stroke-width:1px;stroke-linecap:butt;stroke-linejoin:miter;stroke-opacity:1"
       d="m -649.95934,354.48866 52.02286,-11.11168 56.06346,-20.70813 c 0,0 42.93149,-22.22335 45.45687,-22.72843 2.52538,-0.50508 36.87057,-16.66752 36.87057,-16.66752 l -5.55584,23.23351 -8.08122,35.35534 -16.66752,36.87057 -28.78935,28.28427 c 0,0 -10.10152,7.57614 -24.74874,15.65736 -14.64721,8.08122 -45.96194,20.70813 -47.47716,18.18275 -1.51523,-2.52538 -62.62946,-5.55584 -62.62946,-5.55584 z"
       id="path9807"
       inkscape:connector-curvature="0" />
    <path
       style="fill:#8dd35f;fill-rule:evenodd;stroke:none;stroke-width:1px;stroke-linecap:butt;stroke-linejoin:miter;stroke-opacity:1"
       d="m -868.15229,314.08255 c -4.04061,-3.53553 -37.88072,-17.17259 -44.44671,-43.94163 -6.56599,-26.76904 -12.12183,-100.51018 -7.07107,-104.55079 5.05076,-4.04061 30.30458,-28.78935 30.30458,-28.78935 l 42.4264,82.83251 c 0,0 80.81221,56.06347 80.81221,58.58885 0,2.52538 23.23351,7.57614 27.77919,7.57614 4.54569,0 41.41626,-13.63706 41.41626,-13.63706 l 44.44671,-38.38579 31.31473,-35.35534 7.57614,28.78935 4.04061,19.19289 -6.06091,30.30458 -21.71828,58.08377 -11.11168,17.1726 c 0,0 -140.4112,24.24366 -146.47212,18.68782 -6.06091,-5.55584 -73.23606,-56.56855 -73.23606,-56.56855 z"
       id="path9805"
       inkscape:connector-curvature="0" />
    <path
       style="fill:#ff2a61;fill-rule:evenodd;stroke:none;stroke-width:1px;stroke-linecap:butt;stroke-linejoin:miter;stroke-opacity:1;fill-opacity:1"
       d="m -973.55883,278.58961 30,5 19.28572,7.14286 c 0,0 15.71428,25.71429 19.28571,26.42857 3.57143,0.71429 52.85714,-10 52.85714,-10 l 39.28572,15 14.28571,14.28572 5.71429,32.85714 c 0,0 9.28571,-5.71429 11.42857,-8.57143 2.14286,-2.85714 30.71428,-19.28571 30.71428,-19.28571 l 43.57143,-12.14286 30.71429,5.71429 30.71428,25 6.42858,20 0,19.28571 -6.42858,31.42857 c 0,0 20,-9.28571 25,-12.14286 5,-2.85714 25.71429,-5.71428 25.71429,-5.71428 l 22.14286,7.14286 17.14285,19.28571 16.42858,29.28571 10,-2.85714 10,2.14286 15,13.57143 5.71428,16.42857 2.14286,30 -6.42857,29.28571 -14.28572,29.28572 7.85715,10 15,17.85714 9.28571,22.85714 2.14286,25.71429 -8.57143,31.78571 -23.57143,26.78572 -21.07143,13.21428 -32.85714,10.35715 6.78571,21.07142 c 0,0 5.71429,2.14286 3.92858,19.64286 -1.78572,17.5 -9.64286,36.78572 -9.64286,36.78572 l -12.14286,17.5 -26.42857,23.92857 -27.85714,10 -12.14286,3.21428 c 0,0 -0.35714,13.21429 -6.78571,19.64286 -6.42858,6.42857 -27.5,17.85714 -27.5,17.85714 l -30.35715,8.92858 -16.07143,-4.64286 -17.85714,27.14286 -24.64286,15.71428 c 0,0 -24.28571,7.85714 -25.71428,7.85714 -1.42857,0 -26.78572,-8.21428 -26.78572,-8.21428 l -8.57143,-17.85714 3.57143,-17.14286 -12.85714,4.64286 -25.35714,17.85714 c 0,0 -27.85715,7.5 -30.35715,7.5 -2.5,0 -22.5,-9.28572 -22.5,-9.28572 l -22.85714,16.78572 -33.92857,5.71428 c 0,0 -18.92857,-8.57142 -20.35714,-9.64285 -1.42857,-1.07143 -15.71426,-20 -15.71426,-21.42857 0,-1.42858 -1.7857,-18.21429 -1.7857,-18.21429 l -47.1429,-31.78571 -21.0714,5 -26.4286,-20.71429 c 0,0 -7.8571,-15 -10.3571,-18.92857 -2.5,-3.92857 -5.3572,-18.21429 -5.3572,-18.21429 l 7.1429,-16.42857 -33.5715,-18.21429 -21.0714,-50 50,-60.35714 c 0,0 -16.0714,-15.71428 -17.8571,-16.07143 -1.7857,-0.35714 -29.6429,-7.85714 -29.6429,-7.85714 l -15,-24.28571 -12.5,-40.71429 c 0,0 2.5,-29.64286 5.3572,-35 2.8571,-5.35714 16.7857,-33.21429 16.7857,-33.21429 0,0 15,-13.21428 27.5,-19.28571 12.5,-6.07143 17.5,-10 17.5,-10 l -11.0715,-14.64286 -3.2142,-45.35714 60.7142,-73.57143 46.7858,7.14286 c 0,0 8.2142,-79.64286 10.7142,-80.71429 2.5,-1.07143 49.6429,-18.57143 49.6429,-18.57143 z"
       id="path9801"
       inkscape:connector-curvature="0" />
    <path
       style="fill:#800033;fill-rule:evenodd;stroke:none;stroke-width:1px;stroke-linecap:butt;stroke-linejoin:miter;stroke-opacity:1"
       d="m -536.77311,468.94676 13.21428,-1.07143 14.64286,7.5 10.71429,14.64286 0.71428,42.5 -5.35714,27.5 -13.21429,28.21428 9.64286,11.78572 14.28571,18.57142 8.92858,26.07143 0.71428,23.57143 -9.28571,26.78572 -22.85715,25 -21.78571,14.64285 -31.07143,9.64286 6.07143,21.42857 c 0,0 3.92857,-0.35714 2.85714,16.07143 -1.07143,16.42857 -6.42857,35 -6.42857,35 l -20.35714,26.78571 -24.28572,21.42858 -34.28571,11.78571 c 0,0 -1.07143,15 -7.14286,20 -6.07143,5 -28.92857,19.64286 -28.92857,19.64286 l -26.78571,8.21428 -17.14286,-4.64285 -26.78572,29.64285 -36.07142,21.42858 -26.78572,-3.57143 -14.28571,-13.92857 1.78571,-26.78572 -17.5,5.71429 -26.42857,20 c 0,0 -23.21429,5.71428 -24.64286,5.71428 -1.42857,0 -24.64285,-10.35714 -24.64285,-10.35714 l -18.21429,12.5 -27.14286,10.71429 -30,-9.64286 c 0,0 -16.07144,-17.14286 -16.07144,-20.35714 0,-3.21429 -2.5,-25.35715 -2.5,-25.35715 l 72.14287,-21.07143 23.21429,-20.35714 28.21428,-67.5 53.57143,-12.5 c 0,0 -6.07143,34.64286 0.71429,41.42857 6.78571,6.78572 28.21428,30.35714 28.21428,30.35714 l 33.92857,13.92858 c 0,0 35.71429,-15 40.00001,-15.71429 4.28571,-0.71429 44.64285,-37.5 44.64285,-37.5 l 26.78572,-86.07143 55.71428,-19.64286 c 0,0 19.28572,-28.92857 18.92857,-33.92857 -0.35714,-5 8.21429,-31.78571 8.57143,-33.92857 0.35715,-2.14286 6.07143,-27.14286 6.07143,-27.14286 l -0.71428,-28.21428 c 0,0 -25.71429,-34.28572 -22.5,-35 3.21428,-0.71429 18.92857,-4.64286 18.92857,-4.64286 l 22.14285,-23.57143 16.42858,-26.42857 -0.71429,-24.28571 z"
       id="path9803"
       inkscape:connector-curvature="0" />
    <path
       style="fill:#000000"
       d="m -811.22942,973.70557 c -7.96451,-3.23702 -15.87178,-9.81182 -20.95477,-17.42367 -4.7812,-7.15989 -5.27214,-10.11389 -2.12827,-12.80576 2.56765,-2.19849 2.71208,-4.35713 0.50255,-7.51165 -1.39937,-1.99788 -2.06986,-2.18135 -4.55486,-1.2464 -1.60267,0.60299 -4.7225,2.85349 -6.93294,5.00112 -2.21045,2.14761 -4.019,3.58765 -4.019,3.20009 0,-0.38756 -1.15979,0.35855 -2.5773,1.65803 -4.42499,4.05652 -5.74683,4.9345 -6.41822,4.2631 -0.35755,-0.35753 -0.65007,-0.0874 -0.65007,0.60029 0,0.6877 -0.72342,1.25036 -1.6076,1.25036 -0.88418,0 -1.61066,0.36171 -1.61438,0.8038 -0.007,0.91031 -4.54518,3.69699 -12.07617,7.41653 -7.08769,3.50059 -25.01347,4.47982 -28.81992,1.57435 -4.20923,-3.21291 -14.27348,-6.7593 -17.14024,-6.03979 -1.44641,0.36303 -6.1762,3.72282 -10.51063,7.46622 -6.22336,5.37474 -8.86779,6.95419 -12.57376,7.50993 -2.58112,0.38707 -7.20651,1.56413 -10.27863,2.61572 -3.07211,1.05158 -8.51228,1.99583 -12.08924,2.09834 -6.25716,0.17932 -7.98494,-0.28525 -19.21801,-5.16742 -2.35781,-1.02477 -5.97491,-2.51934 -8.03799,-3.32129 -8.20693,-3.19009 -23.57813,-23.63083 -23.57813,-31.35433 0,-1.41695 -1.0986,-4.20645 -2.4413,-6.19891 -2.1156,-3.13938 -3.5008,-3.86889 -10.3841,-5.46853 -6.4144,-1.49068 -8.4344,-2.47394 -10.4972,-5.10971 -1.4049,-1.79509 -3.1438,-3.26382 -3.8644,-3.26382 -1.4396,0 -10.285,-8.17898 -14.7818,-13.66809 -2.6285,-3.20856 -3.3423,-3.47963 -9.1633,-3.47963 -3.472,0 -6.791,0.47829 -7.3756,1.06288 -1.08,1.07995 -2.0699,0.87776 -12.6852,-2.59099 -5.48,-1.79067 -12.9672,-7.97806 -19.9043,-16.44888 -2.0631,-2.5192 -4.9568,-5.98927 -6.4304,-7.71129 -1.4737,-1.72202 -3.2309,-3.80551 -3.905,-4.62999 -2.1648,-2.64782 -4.348,-7.62439 -5.0358,-11.4793 -0.3682,-2.06308 -1.3579,-6.84656 -2.1995,-10.62995 -1.5365,-6.90704 -0.9475,-11.43879 1.699,-13.07446 2.1471,-1.32694 -0.2507,-2.96459 -5.32,-3.63348 -2.7862,-0.36764 -6.9949,-1.66999 -9.3527,-2.89411 -4.4882,-2.33013 -10.1815,-7.08865 -10.1815,-8.50975 0,-0.45655 -2.1426,-3.03464 -4.7613,-5.72911 -2.6187,-2.69446 -6.2811,-7.65633 -8.1386,-11.02639 -1.8576,-3.37005 -4.966,-9.02105 -6.9076,-12.55777 -2.8352,-5.16434 -3.9759,-9.22924 -5.7939,-20.64611 -2.704,-16.98097 -2.8701,-27.29839 -0.5513,-34.24272 2.4223,-7.25428 9.9697,-22.38069 11.8553,-23.76036 0.4954,-0.36246 2.0497,-2.82927 3.454,-5.48181 2.6686,-5.04054 8.2363,-10.68661 13.2548,-13.44146 5.2334,-2.87278 3.0568,-6.67948 -4.3903,-7.67835 -2.3135,-0.31031 -5.4462,-1.7138 -6.9615,-3.11886 -1.5153,-1.40505 -3.379,-2.5697 -4.1415,-2.58809 -1.4475,-0.0349 -14.7831,-12.08963 -14.7831,-13.36317 0,-0.40145 -2.104,-3.21823 -4.6756,-6.25951 -2.5716,-3.04127 -5.8561,-7.69985 -7.2989,-10.35239 -4.0408,-7.42856 -8.4639,-22.05657 -9.55,-31.58379 -0.5397,-4.7334 -1.4405,-10.77644 -2.002,-13.42897 -1.027,-4.85158 1.1167,-24.15277 3.0993,-27.90627 0.479,-0.90685 1.2216,-3.80052 1.6502,-6.43039 0.4286,-2.62986 1.502,-6.46956 2.3853,-8.53265 0.8833,-2.06308 2.095,-4.95676 2.6926,-6.43039 0.5977,-1.47363 1.5161,-3.40275 2.041,-4.28693 0.5249,-0.88418 1.2767,-2.33102 1.6705,-3.2152 0.3939,-0.88418 1.3554,-1.99327 2.1367,-2.46465 0.7813,-0.47138 1.4205,-1.50155 1.4205,-2.28928 0,-2.65226 8.4718,-14.14668 11.4149,-15.48768 1.604,-0.73084 4.6352,-2.66634 6.736,-4.3011 2.1008,-1.63475 5.476,-3.89503 7.5006,-5.02284 2.0245,-1.12781 4.5565,-2.89455 5.6266,-3.92609 2.5913,-2.49798 6.3677,-2.37149 9.2456,0.30969 3.2585,3.03572 2.9333,5.01314 -1.1376,6.91781 -3.3571,1.57069 -5.2675,2.68605 -16.4956,9.63036 -4.483,2.77262 -14.1091,11.27512 -12.7651,11.27512 0.2639,0 -1.8597,4.54007 -4.7191,10.08904 -2.8595,5.54898 -5.1696,10.73349 -5.1338,11.52113 0.1942,4.26879 -0.3203,5.39426 -2.1481,4.69844 -1.4388,-0.54778 -1.5829,-0.41912 -0.6187,0.55267 0.7761,0.78223 0.931,2.13872 0.405,3.54663 -3.0383,8.13242 -4.6896,18.66947 -4.5563,29.07324 0.047,3.63451 1.1136,10.36541 1.7429,10.99474 0.3284,0.32841 0.075,1.22566 -0.5621,1.9939 -1.2983,1.56434 0.6004,8.98188 2.2991,8.98188 0.5252,0 0.6961,0.67464 0.3796,1.4992 -0.3164,0.82455 -0.06,1.81757 0.5695,2.20671 0.6297,0.38914 1.1448,1.65433 1.1448,2.81152 0,3.00035 8.1272,18.85536 12.5908,24.56282 4.9175,6.28786 15.0724,15.86748 17.7068,16.7036 4.1265,1.30968 4.4705,-1.18985 1.4055,-10.20942 -1.6086,-4.73356 -3.3704,-11.62774 -3.9151,-15.32039 -3.5389,-23.98872 -4.0532,-29.07885 -3.61,-35.73022 0.272,-4.08243 1.2484,-9.46087 2.1698,-11.95208 0.9213,-2.49121 1.4068,-4.96365 1.0789,-5.49433 -2.0105,-3.25293 12.9803,-34.45309 16.5537,-34.45309 0.5962,0 3.538,-1.68798 6.5372,-3.75107 2.9992,-2.06308 5.0928,-3.75106 4.6524,-3.75106 -0.4404,0 0.5906,-1.07692 2.2911,-2.39317 1.7005,-1.31624 4.2924,-3.48633 5.7598,-4.82244 1.4674,-1.33611 4.2405,-3.17549 6.1625,-4.08752 2.5171,-1.19443 3.4945,-2.37946 3.4945,-4.23684 0,-3.09542 -2.1116,-8.03815 -3.434,-8.03815 -1.5188,0 -10.2435,-8.2538 -17.6517,-16.69887 -1.0761,-1.22675 -3.4462,-2.74196 -5.2669,-3.36711 -4.9544,-1.70121 -12.7529,-7.87382 -14.9309,-11.81806 -1.0579,-1.91572 -2.2907,-3.48313 -2.7396,-3.48313 -1.0993,0 -2.7268,-7.06644 -6.0276,-26.17226 -2.2531,-13.04124 -2.5375,-16.61359 -1.5417,-19.36728 0.6715,-1.85706 1.2209,-5.45279 1.2209,-7.99051 0,-6.98929 4.2587,-23.69094 7.1148,-27.90247 1.392,-2.05256 2.5308,-4.56057 2.5308,-5.57335 0,-1.01278 0.6036,-2.2271 1.3414,-2.69848 0.7378,-0.47138 2.0641,-2.26711 2.9473,-3.99051 0.8832,-1.7234 3.8967,-4.78288 6.6966,-6.79886 2.7999,-2.01598 5.0907,-4.10245 5.0907,-4.63661 0,-0.53415 0.4768,-0.97119 1.0595,-0.97119 1.056,0 3.1658,-1.58728 8.1913,-6.16247 1.4568,-1.32627 3.1061,-2.4114 3.6652,-2.4114 0.5591,0 1.9811,-0.96455 3.16,-2.14346 1.1789,-1.17891 3.108,-2.14347 4.2869,-2.14347 1.1789,0 2.1435,-0.47544 2.1435,-1.05652 0,-2.0854 8.5535,-6.71214 12.8752,-6.96443 2.3813,-0.13901 4.6383,-0.56143 5.0155,-0.9387 0.3773,-0.37727 2.0809,-0.68594 3.7858,-0.68594 2.1946,0 2.8648,-0.3912 2.295,-1.33966 -0.4691,-0.78078 0.038,-0.669 1.2142,0.26793 1.1105,0.88418 1.6833,1.04749 1.2729,0.36291 -1.0948,-1.82629 5.4819,-2.55699 18.0183,-2.00194 10.8236,0.47922 16.0833,1.18588 18.099,2.43165 2.0343,1.25725 6.0138,1.21707 6.1336,-0.062 0.2919,-3.11677 -0.4698,-6.87325 -1.99,-9.81376 -2.0619,-3.98841 -2.2194,-25.10653 -0.2329,-31.25025 5.3057,-16.40992 11.8624,-29.22606 16.6496,-32.54449 2.1259,-1.47363 5.1077,-4.0056 6.6262,-5.62659 1.5185,-1.621 3.208,-2.94727 3.7544,-2.94727 0.5464,0 2.2197,-0.96455 3.7184,-2.14346 1.4987,-1.17891 3.8973,-2.14347 5.3302,-2.14347 1.4329,0 3.5313,-0.49555 4.663,-1.10123 1.1317,-0.60569 4.1142,-1.53394 6.62784,-2.0628 2.51361,-0.52886 8.66957,-2.01419 13.67992,-3.30075 6.47041,-1.66148 12.68057,-2.38349 21.43465,-2.49207 12.08449,-0.14989 12.50402,-0.0736 21.506,3.90885 5.04961,2.23397 11.53057,6.00323 14.40215,8.37616 2.87157,2.37294 6.21542,4.84403 7.43076,5.49131 5.7424,3.05836 9.17637,6.76297 9.21003,9.93585 0.0188,1.76836 0.74221,4.15137 1.60763,5.29557 0.86544,1.14421 1.57352,3.36029 1.57352,4.92463 0,2.80938 2.84018,6.39166 5.06757,6.39166 2.20396,0 20.96708,-7.66211 22.4883,-9.18331 0.84371,-0.84371 3.30811,-1.56953 5.47646,-1.61295 2.16834,-0.0434 6.83612,-0.27932 10.37284,-0.52425 3.53671,-0.24492 12.19891,0.32989 19.24931,1.27738 9.92533,1.33382 14.19483,2.44392 18.9144,4.91786 10.52847,5.51887 26.6761,21.81104 26.6761,26.91487 0,0.80809 1.25491,3.82941 2.78867,6.71404 1.53377,2.88462 3.03916,7.57472 3.3453,10.42246 1.05526,9.81598 7.63339,12.48805 14.98425,6.08667 7.13434,-6.21285 26.06153,-17.14773 29.68102,-17.14773 0.66634,0 3.01119,-0.96455 5.21077,-2.14346 2.19959,-1.17891 5.36745,-2.14347 7.03971,-2.14347 1.67225,0 3.3744,-0.33395 3.78256,-0.74211 0.40816,-0.40815 1.81481,-0.88273 3.12589,-1.0546 1.31108,-0.17188 4.07176,-0.64813 6.13484,-1.05835 2.06309,-0.41022 6.16247,-0.82876 9.10973,-0.93008 2.94726,-0.10128 6.8385,-0.48827 8.64719,-0.85987 1.80868,-0.3716 4.94349,-0.14888 6.96626,0.49497 2.02276,0.64383 6.26154,1.34267 9.41954,1.55298 3.15799,0.21031 6.29281,0.83752 6.96626,1.39381 0.67345,0.55629 3.03301,1.34942 5.24346,1.76248 2.21044,0.41308 4.01899,1.10372 4.01899,1.53475 0,0.43103 1.79536,1.70362 3.98969,2.82799 4.40083,2.25497 5.83052,3.2293 9.05709,6.17246 1.1967,1.09159 3.85673,2.03236 5.91117,2.09059 2.91501,0.0826 4.36208,-0.61998 6.58916,-3.19927 5.45177,-6.31398 7.6766,-9.38611 7.6766,-10.60013 0,-0.67147 1.58741,-3.33989 3.52757,-5.92983 1.94015,-2.58994 3.49423,-5.67354 3.4535,-6.85244 -0.0407,-1.17891 1.46492,-5.03715 3.3459,-8.57386 2.96087,-5.56724 4.93401,-10.8394 10.05602,-26.86941 0.57842,-1.81021 1.05166,-4.24572 1.05166,-5.41225 0,-1.16653 0.50987,-2.63082 1.13305,-3.254 0.62318,-0.62318 1.34089,-3.63437 1.59492,-6.69152 0.25403,-3.05716 0.97357,-6.51457 1.59896,-7.68312 2.51277,-4.69516 1.70192,-29.11451 -1.08293,-32.61311 -0.46921,-0.58945 -1.15848,-3.65143 -1.53174,-6.8044 -0.37326,-3.15297 -1.13538,-6.58608 -1.69361,-7.62915 -0.55823,-1.04306 -0.71042,-2.20102 -0.33819,-2.57326 0.37224,-0.37221 -0.97773,-0.67677 -2.9999,-0.67677 -3.11909,0 -4.06933,0.63532 -6.26569,4.18912 -1.42397,2.30402 -3.52446,4.83599 -4.66776,5.62659 -1.14331,0.79062 -3.41056,2.82125 -5.03834,4.51253 -1.62777,1.69128 -3.52258,3.6204 -4.21067,4.28693 -11.01283,10.66773 -18.30858,18.09391 -18.3608,18.68904 -0.0358,0.40826 -2.13912,2.43028 -4.67398,4.49336 -2.53487,2.06309 -5.68266,5.28944 -6.99507,7.16968 -1.36779,1.95956 -3.71836,3.7112 -5.50747,4.10415 -1.7167,0.37704 -3.12126,1.04934 -3.12126,1.49398 0,0.44464 -2.55693,2.56946 -5.68208,4.72183 -3.12514,2.15237 -7.58623,5.61458 -9.91353,7.69382 -2.32729,2.07923 -7.168,5.15947 -10.75714,6.84497 -3.58913,1.6855 -9.67322,5.91698 -13.52021,9.40328 -5.68862,5.15525 -7.77162,6.39105 -11.15674,6.61903 -2.28922,0.15417 -5.24574,0.99026 -6.57004,1.85797 -1.50169,0.98395 -3.51874,1.32116 -5.35981,0.89607 -4.00654,-0.92509 -14.0187,-4.19191 -17.95626,-5.85885 -1.76836,-0.74863 -3.45634,-1.429 -3.75106,-1.51193 -0.29473,-0.083 -3.1581,-1.44961 -6.36304,-3.03706 -3.20495,-1.58746 -6.43638,-2.8863 -7.18094,-2.8863 -0.74458,0 -1.73944,-0.64937 -2.21082,-1.44305 -0.47139,-0.79367 -3.5096,-3.27968 -6.75159,-5.52444 -3.24199,-2.24476 -6.92384,-4.85077 -8.18189,-5.79114 -1.25805,-0.94037 -3.38386,-2.43318 -4.72402,-3.31736 -1.34017,-0.88417 -3.92795,-2.83813 -5.75064,-4.34212 -1.82268,-1.50398 -5.40379,-4.23674 -7.95803,-6.07279 -6.90074,-4.96043 -17.54483,-14.55392 -29.05841,-26.19028 -13.56204,-13.70669 -15.17425,-15.55132 -22.2913,-25.50494 -1.03388,-1.44594 -3.14809,-4.09848 -4.69826,-5.89453 -1.55016,-1.79605 -3.77008,-4.95353 -4.93315,-7.01661 -1.16307,-2.06309 -4.59699,-8.07135 -7.63092,-13.35169 -3.03393,-5.28034 -5.51624,-10.43638 -5.51624,-11.45787 0,-1.02149 -0.42761,-2.12153 -0.95024,-2.44454 -0.52263,-0.323 -1.2679,-2.28058 -1.65616,-4.35017 -0.8364,-4.45843 -4.35411,-5.26641 -5.88405,-1.35151 -2.21038,5.65602 -4.31645,13.95647 -3.76682,14.84578 0.32709,0.52925 0.20455,0.96298 -0.27233,0.96385 -0.47688,8.6e-4 -1.00326,1.98416 -1.16973,4.40735 -0.16648,2.42318 -0.9788,5.71324 -1.80516,7.31124 -0.82636,1.59801 -1.75903,4.79921 -2.07259,7.11378 -0.31357,2.31456 -1.11152,6.37856 -1.77322,9.0311 -2.35275,9.43147 -2.45462,10.54175 -1.57324,17.14772 0.3539,2.65254 0.82224,6.99306 1.04074,9.6456 1.03192,12.52689 7.50128,29.61368 13.31273,35.16137 5.15425,4.92032 8.68614,7.70793 9.76591,7.70793 0.56983,0 1.80613,1.48917 2.74735,3.30928 1.58971,3.07417 1.57772,3.40694 -0.16882,4.68404 -4.26546,3.11899 -16.49169,4.28724 -16.49169,1.57583 0,-0.49399 -1.65465,-1.20858 -3.67699,-1.58797 -2.55445,-0.47922 -3.501,-1.14843 -3.10054,-2.19203 0.39785,-1.03677 -0.23777,-1.50222 -2.05142,-1.50222 -3.17807,0 -5.09061,-2.05066 -8.49619,-9.10973 -1.42187,-2.94726 -3.51166,-7.04664 -4.64396,-9.10973 -2.63875,-4.80785 -6.90406,-17.02645 -6.94001,-19.88063 -0.0152,-1.20838 -0.45337,-2.65522 -0.97367,-3.2152 -0.926,-0.99663 -3.86417,-11.25541 -5.35628,-18.70174 -0.94644,-4.72315 -0.68509,-30.18428 0.36852,-35.90304 0.43439,-2.35781 1.22505,-5.10157 1.75701,-6.09725 0.53195,-0.99569 1.65836,-4.85392 2.50313,-8.57386 0.84478,-3.71994 2.58742,-10.38063 3.87257,-14.80153 1.28514,-4.4209 2.55468,-9.48483 2.8212,-11.25319 0.61727,-4.09565 2.52095,-8.12746 4.80731,-10.18146 0.9842,-0.88418 3.75393,-5.44141 6.15496,-10.12718 5.75357,-11.22852 7.38673,-12.92991 13.91449,-14.4959 4.70589,-1.12893 6.13293,-1.06609 9.88514,0.43524 5.4731,2.1899 6.72588,3.43595 8.32449,8.2798 0.70062,2.12289 2.19199,4.6907 3.31416,5.70625 1.72654,1.56249 2.03721,3.35716 2.02017,11.6695 -0.011,5.40267 0.29908,11.26142 0.68925,13.01945 1.72039,7.75173 7.22863,24.09521 8.1208,24.09521 0.53971,0 0.9813,0.48959 0.9813,1.08797 0,0.93231 2.73207,5.98586 7.81319,14.45215 2.49756,4.16152 9.7488,13.96035 11.93904,16.13363 1.22006,1.21061 3.501,3.622 5.06875,5.35866 7.61962,8.44052 11.57044,11.33644 15.00011,10.99499 1.85235,-0.18441 3.75493,-1.05872 4.22795,-1.9429 0.47302,-0.88418 2.88458,-5.94812 5.35901,-11.25319 2.47443,-5.30508 4.94122,-9.93502 5.48175,-10.28875 0.54054,-0.35374 1.12906,-1.55944 1.30784,-2.67933 0.22934,-1.43671 1.07605,-1.95634 2.876,-1.765 1.60315,0.17042 2.05798,-0.0493 1.22415,-0.59119 -1.01062,-0.65684 -1.05019,-1.74311 -0.16605,-4.5581 1.68532,-5.36588 8.69828,-19.23587 9.72605,-19.23587 0.48211,0 0.87656,-0.72342 0.87656,-1.6076 0,-0.88418 0.48228,-1.6076 1.07173,-1.6076 0.58945,0 1.07173,-0.48228 1.07173,-1.07173 0,-0.58945 0.71845,-1.91572 1.59656,-2.94726 8.20407,-9.63761 11.29153,-12.49195 16.99706,-15.71365 3.62566,-2.04727 8.00062,-5.2407 9.72215,-7.0965 2.60035,-2.80318 3.67666,-3.26487 6.36006,-2.72818 5.99903,1.1998 7.37338,3.46173 6.54428,10.77057 -0.40316,3.554 -1.17417,7.00868 -1.71334,7.67707 -0.53917,0.66837 -1.04588,2.9592 -1.12601,5.09072 -0.0802,2.13152 -0.49358,3.8755 -0.91878,3.8755 -1.65532,0 -1.82428,4.54367 -0.37528,10.09246 1.76413,6.75563 2.41917,10.75476 3.06275,18.6988 0.25615,3.16195 1.18049,6.5388 2.05407,7.50409 2.05202,2.26745 4.16279,7.38658 4.59046,11.1329 0.37732,3.30548 2.53406,8.30783 5.65859,13.12464 3.03265,4.67516 5.42099,9.2866 5.42099,10.46695 0,0.56536 1.23387,2.54095 2.74193,4.39021 1.50807,1.84926 4.75185,6.49711 7.20841,10.32855 2.45656,3.83145 5.65485,7.93082 7.1073,9.10973 4.68931,3.80614 13.21449,8.03799 16.19276,8.03799 2.45031,0 7.72729,-2.98726 9.6189,-5.44519 0.29473,-0.38298 1.621,-1.03494 2.94726,-1.44885 1.32627,-0.41389 2.4114,-1.20231 2.4114,-1.75204 0,-0.54973 0.50263,-0.99951 1.11697,-0.99951 0.61433,0 1.85871,-0.60285 2.76528,-1.33967 7.79792,-6.33775 26.10967,-24.0153 26.1516,-25.24587 0.0139,-0.409 1.99374,-2.19048 4.39957,-3.95884 5.17233,-3.80181 15.04562,-14.23759 18.71235,-19.77838 1.42862,-2.15879 3.67966,-8.23739 5.0023,-13.508 2.04768,-8.15975 2.75461,-9.63269 4.76016,-9.91805 1.83554,-0.26116 2.86218,0.65836 4.65197,4.16665 2.09326,4.10314 4.70486,12.44295 6.00538,19.17744 0.28104,1.45533 0.90934,3.14331 1.39623,3.75107 0.48689,0.60775 1.1284,4.23983 1.42561,8.07128 0.29721,3.83144 1.32712,10.47998 2.28871,14.77452 2.16077,9.65021 1.47628,26.2447 -1.46189,35.44199 -1.09833,3.43804 -2.35131,9.08713 -2.78441,12.55352 -0.43309,3.46638 -1.67982,7.89133 -2.77051,9.83321 -1.09068,1.94188 -1.88367,3.88319 -1.7622,4.31403 0.12148,0.43083 -0.38083,1.86847 -1.11625,3.19474 -0.73542,1.32626 -1.07809,2.41139 -0.76148,2.41139 0.31661,0 -0.38984,1.80141 -1.56989,4.00313 -1.18005,2.20172 -2.14555,4.59827 -2.14555,5.32566 0,1.28817 -3.43438,8.88193 -5.47505,12.10586 -0.55967,0.88418 -1.31843,2.51842 -1.68616,3.63163 -0.36772,1.11322 -1.7604,4.07749 -3.09486,6.58725 -2.24404,4.22046 -2.30012,4.74333 -0.74657,6.96133 1.60431,2.29046 2.14908,2.36818 12.13371,1.73094 5.74969,-0.36695 11.58502,-1.08574 12.96739,-1.59728 1.38237,-0.51156 3.13216,-0.71273 3.88842,-0.44703 0.75626,0.26569 2.2031,0.12399 3.2152,-0.31489 1.0121,-0.43889 2.76688,-0.97625 3.89953,-1.19416 1.13264,-0.2179 2.57948,-0.82571 3.2152,-1.35068 0.63571,-0.52498 3.08496,-1.29522 5.44277,-1.71164 2.35781,-0.41644 8.57074,-2.14757 13.80651,-3.84698 5.23577,-1.6994 10.08175,-3.08982 10.76884,-3.08982 0.68709,0 5.08431,-1.87961 9.77161,-4.1769 10.51564,-5.15383 22.86558,-10.82736 23.56861,-10.82736 1.2835,0 30.00429,-14.37634 30.32374,-15.17871 0.19649,-0.4935 1.08659,-0.89728 1.97802,-0.89728 0.89143,0 2.90093,-0.86137 4.46555,-1.91415 1.56463,-1.05279 4.29162,-2.6194 6.05998,-3.48138 1.76835,-0.86198 3.60087,-2.17087 4.07225,-2.90865 0.47138,-0.73778 1.55651,-1.34141 2.4114,-1.34141 0.85488,0 1.55434,-0.3834 1.55434,-0.85201 0,-0.4686 2.11708,-1.72505 4.70463,-2.79211 4.58963,-1.89267 7.95575,-5.38074 11.48014,-11.896 2.11332,-3.90671 5.71229,-4.74868 7.3353,-1.71605 0.6373,1.19079 1.07565,2.54633 0.9741,3.0123 -0.10149,0.46597 0.1911,1.7079 0.65029,2.75984 0.46191,1.05814 0.21158,4.13895 -0.56031,6.89588 -0.76737,2.74078 -1.42822,7.42631 -1.46856,10.41229 -0.0403,2.98598 -0.4601,6.02637 -0.93279,6.75643 -0.4727,0.73005 -1.13394,3.62373 -1.46943,6.43039 -0.33548,2.80666 -1.19992,6.30872 -1.92098,7.78235 -0.72106,1.47364 -1.93452,4.98259 -2.69659,7.79767 -0.76206,2.81509 -1.80956,5.38038 -2.32778,5.70066 -0.5182,0.32026 -0.66787,1.02618 -0.33258,1.56868 0.33528,0.5425 -1.34483,5.04337 -3.73358,10.00192 -2.38876,4.95856 -4.34638,9.907 -4.35026,10.99657 -0.008,2.1186 -2.55709,6.38206 -5.61953,9.39725 -1.03155,1.01563 -1.87553,2.7767 -1.87553,3.91351 0,1.13679 -0.48228,2.06691 -1.07174,2.06691 -0.58945,0 -1.07173,1.44684 -1.07173,3.21519 0,1.76836 -0.48228,3.2152 -1.07173,3.2152 -0.58946,0 -1.07174,0.49186 -1.07174,1.09303 0,0.60117 -1.13563,2.892 -2.52364,5.09073 -1.388,2.19873 -2.47313,4.23976 -2.41139,4.53563 0.26119,1.25179 -23.60258,25.71952 -25.08465,25.71952 -0.32555,0 -3.13375,2.42441 -6.24046,5.38758 -3.10669,2.96317 -6.07438,5.12439 -6.59486,4.80271 -0.52048,-0.32167 -2.25392,1.1295 -3.85208,3.22481 -1.59817,2.0953 -4.28653,4.79284 -5.97412,5.99451 -2.66909,1.90056 -3.55517,2.02418 -6.80968,0.95009 -3.73019,-1.23106 -4.55545,-3.05858 -3.09722,-6.85867 0.35426,-0.92319 3.36851,-3.23345 6.69833,-5.13391 6.57851,-3.75462 12.8032,-7.70459 14.85077,-9.42376 0.71194,-0.59775 1.65053,-1.08683 2.08576,-1.08683 0.43523,0 7.08693,-6.40465 14.78155,-14.23255 8.93007,-9.08473 15.0077,-16.23997 16.80328,-19.78265 1.54717,-3.05255 3.11458,-5.24856 3.48313,-4.88001 0.36854,0.36855 0.71028,0.22799 0.75939,-0.31233 0.42269,-4.64941 0.77157,-6.09811 1.61537,-6.70749 0.94982,-0.68596 2.43275,-3.58745 8.5181,-16.66641 5.76268,-12.38544 15.43396,-48.11464 13.7475,-50.78823 -2.22373,-3.52534 -4.42141,-4.03905 -7.5819,-1.77226 -1.64545,1.18016 -5.16197,3.08565 -7.81451,4.23443 -2.65254,1.14878 -5.46009,2.70008 -6.23902,3.44734 -0.77891,0.74725 -1.93909,1.35864 -2.57817,1.35864 -0.63907,0 -2.65431,1.11307 -4.47831,2.47347 -1.82399,1.36042 -5.24548,3.31245 -7.60329,4.33784 -2.35781,1.0254 -5.01035,2.33774 -5.89453,2.9163 -0.88417,0.57858 -2.45158,1.33533 -3.48313,1.68169 -1.03154,0.34636 -1.87553,1.00351 -1.87553,1.4603 0,0.45681 -1.32627,1.15778 -2.94726,1.55772 -4.24266,1.04677 -20.02926,8.23479 -20.45223,9.31239 -0.19649,0.50058 -1.52276,0.91014 -2.94726,0.91014 -1.42452,0 -2.59003,0.48228 -2.59003,1.07173 0,0.58946 -0.64932,1.07174 -1.44293,1.07174 -0.79362,0 -2.95774,0.75567 -4.80916,1.67928 -1.8514,0.92361 -3.81343,1.40288 -4.36004,1.06506 -0.54662,-0.33783 -1.15561,-0.24952 -1.35332,0.19624 -0.52567,1.18522 -6.88278,4.5742 -10.85565,5.78717 -1.88999,0.57703 -5.95085,1.73235 -9.02415,2.56737 -3.07329,0.83502 -7.65495,2.4441 -10.18146,3.57574 -2.5265,1.13163 -6.76391,2.61622 -9.41645,3.29907 -15.0415,3.87221 -23.57845,5.75619 -27.86504,6.14941 -2.65254,0.24333 -5.78736,0.86107 -6.96626,1.37274 -1.17891,0.51168 -3.97356,1.1831 -6.21034,1.49204 -5.42184,0.74884 -8.24488,4.18419 -7.1025,8.64299 1.9601,7.65049 2.28253,8.75224 3.15865,10.79325 1.60203,3.73204 3.5926,17.99133 3.36627,24.11398 -0.11984,3.24199 -0.7768,8.46575 -1.45991,11.60835 -1.03354,4.75468 -0.98525,5.88297 0.2877,6.72158 2.08759,1.37528 7.90316,0.51762 14.66995,-2.16349 3.10095,-1.22866 6.74217,-2.23391 8.09158,-2.23391 1.34942,0 2.91165,-0.44924 3.47163,-0.9983 2.34634,-2.30059 20.28569,-3.2051 22.36323,-1.12757 0.57977,0.57977 1.92223,1.05413 2.98325,1.05413 1.06101,0 1.93465,0.36171 1.94141,0.8038 0.006,0.44209 2.05387,1.76836 4.54912,2.94727 5.35846,2.53167 20.08844,13.23325 20.08844,14.59461 0,0.52002 0.94759,0.94551 2.10576,0.94551 2.32629,0 4.32463,2.93882 4.32463,6.35994 0,1.21766 0.36455,2.21392 0.81011,2.21392 0.44556,0 1.45871,1.56741 2.25142,3.48313 0.79272,1.91572 2.11615,5.00286 2.94096,6.8603 0.8248,1.85744 1.49964,3.90713 1.49964,4.55486 0,0.64774 0.49262,1.1777 1.09471,1.1777 0.60209,0 1.6774,1.32627 2.38958,2.94726 1.69931,3.8678 2.6286,4.4249 7.27423,4.36079 6.08018,-0.0839 10.71971,1.21675 17.10652,4.79569 6.44473,3.61138 17.14772,13.72138 17.14772,16.19763 0,0.85472 0.60285,2.19134 1.33967,2.97025 1.70676,1.80429 1.9791,3.95736 2.47565,19.57085 0.22381,7.03779 0.63398,14.23663 0.9115,15.99744 0.2775,1.76081 0.0236,4.10021 -0.56431,5.19867 -0.58789,1.09846 -1.25824,7.54279 -1.48968,14.32074 -0.39622,11.6037 -2.02862,19.7422 -3.95986,19.7422 -0.47104,0 -0.85643,0.9406 -0.85643,2.09021 0,1.14962 -0.60285,2.47589 -1.33967,2.94727 -1.6411,1.0499 -4.48677,5.72101 -7.32364,12.02163 -1.59401,3.54026 -1.95596,5.90522 -1.43524,9.37766 0.38298,2.55391 1.12385,4.64348 1.64637,4.64348 0.52253,0 0.95005,0.61807 0.95005,1.37351 0,0.75544 2.455,3.65539 5.45554,6.44435 3.00055,2.78894 5.56121,5.79078 5.69036,6.67073 0.12915,0.87995 1.69977,3.1645 3.49027,5.07678 5.81336,6.20876 10.17756,16.04325 12.50633,28.18232 0.22029,1.14832 0.73811,2.8599 1.1507,3.8035 0.4126,0.9436 0.63626,2.14929 0.49703,2.67933 -0.13924,0.53004 0.14606,3.61624 0.634,6.85823 1.58955,10.5616 -0.18119,22.50638 -3.33643,22.50638 -0.79087,0 -1.43795,0.96456 -1.43795,2.14347 0,1.17891 -0.47034,2.14347 -1.04521,2.14347 -0.67204,0 -0.68151,0.95657 -0.0266,2.67933 0.58247,1.532 0.60799,2.67933 0.0596,2.67933 -0.52749,0 -1.78634,2.53197 -2.79743,5.62659 -1.0111,3.09463 -2.61726,6.40258 -3.56926,7.351 -0.952,0.9484 -3.85794,4.32436 -6.45764,7.50212 -6.35473,7.76773 -21.26825,22.02543 -25.41977,24.30193 -1.84425,1.01129 -7.14932,3.69357 -11.78906,5.9606 -4.63973,2.26703 -9.27331,4.55786 -10.29686,5.09073 -1.02355,0.53287 -2.71152,0.97154 -3.75106,0.97483 -3.3675,0.0107 -9.8127,2.17522 -11.49951,3.86203 -1.83477,1.83478 -2.23496,8.5009 -0.57203,9.52865 0.58946,0.3643 1.07174,1.83961 1.07174,3.27845 0,1.43885 0.51074,2.61608 1.13498,2.61608 0.62424,0 0.84308,0.47231 0.4863,1.04958 -0.35677,0.57728 -0.14825,1.98463 0.46337,3.12746 1.19161,2.22655 0.34354,8.98622 -1.02156,8.14255 -1.20151,-0.74258 -2.23252,4.0874 -1.11174,5.20818 0.52408,0.52407 0.73193,1.52866 0.46187,2.23242 -0.64187,1.67267 2.24772,7.23013 3.24221,6.23565 0.42077,-0.42078 0.23922,0.61797 -0.40344,2.30832 -0.64268,1.69034 -0.91387,3.32799 -0.60265,3.6392 0.31122,0.31122 0.59975,-0.11737 0.64119,-0.95242 0.0449,-0.90451 0.40186,-0.68487 0.88308,0.5433 0.81309,2.07521 -0.80247,7.02421 -2.29808,7.03977 -0.44209,0.004 -0.8038,0.73178 -0.8038,1.61596 0,0.88418 -0.48228,1.6076 -1.07173,1.6076 -1.51657,0 -1.33635,2.94837 0.21176,3.46441 1.46172,0.48724 -0.63928,6.96036 -2.8759,8.86051 -0.69383,0.58946 -1.59329,2.74621 -1.9988,4.79278 -1.12924,5.69907 -9.09647,18.0705 -16.06142,24.94002 -3.44079,3.39363 -6.66368,6.17024 -7.16197,6.17024 -0.49831,0 -1.21214,0.96456 -1.58632,2.14347 -0.37417,1.1789 -1.31576,2.14346 -2.09243,2.14346 -0.77666,0 -2.18414,1.17827 -3.12772,2.61835 -0.94359,1.4401 -4.81138,4.34961 -8.59509,6.46558 -3.78372,2.11598 -7.46673,4.55481 -8.18447,5.41965 -0.71775,0.86482 -2.033,1.57241 -2.9228,1.57241 -0.88979,0 -3.3226,1.05362 -5.40624,2.34138 -2.97481,1.83854 -5.2568,2.30364 -10.62547,2.1656 -3.88131,-0.0998 -6.57638,0.24594 -6.23411,0.79975 0.99138,1.60407 -1.21221,2.31058 -8.45417,2.71057 -3.77473,0.2085 -7.91265,0.94076 -9.1954,1.62727 -2.58625,1.38412 -12.43309,0.49148 -13.49279,-1.22315 -0.38567,-0.62403 -1.2147,-0.54016 -2.12449,0.21489 -2.55559,2.12095 -13.74813,-0.11795 -23.28387,-4.65759 -3.06771,-1.46044 -7.26565,-2.95839 -9.32873,-3.32878 -3.26295,-0.58581 -5.71561,-1.57791 -15.27219,-6.17761 -1.03154,-0.4965 -2.84009,-1.50102 -4.019,-2.23226 -1.73913,-1.07873 -2.59834,-1.03514 -4.55486,0.23111 -4.82628,3.12358 -18.02031,9.67229 -19.48723,9.67229 -0.82813,0 -3.1122,0.80471 -5.07569,1.78824 -1.96349,0.98353 -4.2934,2.12418 -5.17758,2.53478 -0.88418,0.41061 -1.62313,2.13787 -1.6421,3.83836 -0.0296,2.65314 -0.8593,3.50998 -5.84781,6.03907 -3.19733,1.621 -7.07038,2.94727 -8.60679,2.94727 -1.70002,0 -3.98992,1.24882 -5.85008,3.19042 -1.68114,1.75473 -4.76649,3.75474 -6.85632,4.44444 -4.04658,1.33549 -13.73144,7.17493 -18.64366,11.24109 -3.45287,2.85816 -12.57026,16.08843 -12.57026,18.24074 0,0.80613 -0.46043,1.46568 -1.02318,1.46568 -0.56273,0 -1.31911,1.5775 -1.68082,3.50557 -0.4414,2.35291 -1.69075,4.09849 -3.79962,5.30881 -3.82854,2.19729 -4.06518,5.32332 -0.8923,11.7878 6.09589,12.41995 26.48209,17.72463 42.22722,10.98793 3.53672,-1.51322 7.75667,-3.25872 9.37766,-3.87889 1.621,-0.62018 2.94727,-1.56269 2.94727,-2.09449 0,-0.53178 0.64963,-0.96688 1.44361,-0.96688 0.79398,0 2.42709,-0.84399 3.62912,-1.87553 1.20204,-1.03155 3.97939,-3.32237 6.1719,-5.09073 2.1925,-1.76836 5.78865,-4.68114 7.99143,-6.47284 4.07964,-3.3183 11.73117,-11.80266 15.58775,-17.28441 5.62688,-7.99805 9.35452,-18.48199 9.84393,-27.68592 0.66512,-12.50814 1.64403,-14.18741 7.42472,-12.73655 4.16359,1.04499 4.90719,3.68477 3.19088,11.32762 -2.03278,9.05211 -3.01445,19.34015 -1.99087,20.86455 1.24576,1.85529 12.0258,3.51659 16.90601,2.60533 2.35781,-0.44024 5.84928,-1.61503 7.75883,-2.61062 1.90955,-0.99559 3.83866,-1.79645 4.28693,-1.77968 0.44826,0.0167 1.66298,-0.69556 2.69938,-1.58294 1.03639,-0.8874 2.24209,-1.51287 2.67933,-1.38997 0.43724,0.12292 2.26477,-0.088 4.06117,-0.46862 3.52669,-0.7473 18.70433,-15.66454 18.70433,-18.38342 0,-0.85038 1.41622,-1.7048 3.27882,-1.97817 2.77872,-0.40783 3.52909,0.003 4.91951,2.69148 1.5005,2.90163 1.47464,3.48105 -0.30266,6.78131 -1.07614,1.99826 -3.63015,4.40244 -5.72331,5.38754 -3.73847,1.75944 -14.91328,9.90902 -18.48854,13.48333 -1.01681,1.01655 -3.18729,2.1519 -4.82327,2.523 -6.39348,1.45023 -12.7639,3.52564 -15.83532,5.15895 -3.73337,1.98532 -10.01698,2.16815 -19.82537,0.57686 -7.66708,-1.24389 -7.71914,-1.2164 -13.39834,7.07384 -1.17891,1.7209 -4.26055,5.06998 -6.84807,7.4424 -2.58754,2.3724 -6.40267,6.12201 -8.47809,8.33246 -2.07541,2.21045 -4.17277,4.019 -4.6608,4.019 -0.48803,0 -1.92623,0.84399 -3.19602,1.87553 -1.26978,1.03154 -3.80727,3.09369 -5.63885,4.58257 -1.83158,1.48887 -4.77699,3.40818 -6.54535,4.26515 -1.76835,0.85696 -4.70756,2.65304 -6.53155,3.99129 -1.824,1.33824 -4.08637,2.43318 -5.02748,2.43318 -0.94112,0 -1.98243,0.43899 -2.31404,0.97554 -0.67532,1.0927 -11.83251,2.99125 -21.25843,3.61743 -4.6251,0.30725 -7.66158,-0.18466 -11.98394,-1.9414 z m -131.32802,-14.47093 c 3.83144,-1.99361 8.99282,-5.52866 11.46972,-7.85566 l 4.50347,-4.2309 -6.65114,-7.18385 c -3.65813,-3.95112 -7.20293,-8.33845 -7.87732,-9.74963 -2.85627,-5.97671 -4.65993,-10.47176 -4.65993,-11.61337 0,-3.08545 -4.69029,-15.28844 -6.08136,-15.82224 -0.85661,-0.32872 -2.61183,-0.0284 -3.90051,0.66737 -1.28868,0.69577 -3.61435,1.96484 -5.16817,2.82016 -1.55382,0.85533 -3.62613,3.24314 -4.60515,5.30626 -0.97902,2.06311 -2.027,3.75112 -2.32885,3.75112 -0.30187,0 -0.20957,-0.60285 0.20509,-1.33966 0.66479,-1.18128 -8.73545,7.11035 -10.28314,9.0704 -0.332,0.42047 -3.4798,2.22291 -6.99509,4.00542 -5.08025,2.57607 -7.77251,3.24373 -13.12341,3.25452 -4.89977,0.01 -6.89517,0.43886 -7.33157,1.57618 -0.6668,1.73771 2.7268,10.22646 4.0883,10.22646 0.476,0 0.8655,0.68323 0.8655,1.51829 0,0.83505 0.3817,1.67904 0.84819,1.87553 0.46651,0.19648 2.20526,2.15731 3.8639,4.35741 1.65864,2.20009 5.25577,5.03066 7.99361,6.29015 4.97443,2.28838 6.90677,3.26378 11.94415,6.02905 1.95657,1.07407 5.85948,1.36305 14.46839,1.07128 10.91573,-0.36994 12.30511,-0.66805 18.75532,-4.02429 z m 60.44961,-9.17226 c 1.71156,-0.83312 4.3641,-1.51774 5.89453,-1.52137 1.53044,-0.003 4.16401,-0.72705 5.85238,-1.6076 1.68838,-0.88054 3.69787,-1.60099 4.46555,-1.60099 0.76768,0 1.55654,-0.37957 1.75303,-0.84348 0.19648,-0.46392 2.47069,-2.51361 5.0538,-4.55486 17.90906,-14.15239 26.79271,-27.27434 32.26095,-47.65243 1.09534,-4.08192 4.32675,-13.40216 5.42432,-15.64517 0.46093,-0.94197 0.63147,-5.97665 0.37896,-11.18822 l -0.4591,-9.47556 -5.94828,-5.95951 c -8.24292,-8.25847 -15.20391,-18.9789 -16.09966,-24.79465 -0.40179,-2.60863 -1.87599,-7.03379 -3.276,-9.8337 -2.18727,-4.37436 -2.99742,-5.09073 -5.75715,-5.09073 -1.76643,0 -4.04913,0.40622 -5.07268,0.90272 -1.02355,0.4965 -4.04134,1.95175 -6.70621,3.23389 -6.77631,3.26026 -28.91436,25.73709 -28.91436,29.35683 0,4.03298 -3.95964,15.58797 -6.40848,18.70116 -1.19096,1.51406 -2.16538,3.64542 -2.16538,4.73638 0,1.86412 -1.94315,10.91507 -2.84841,13.26751 -0.64939,1.68749 -7.16137,12.73429 -8.94064,15.16668 -0.88418,1.20875 -3.05444,2.9532 -4.8228,3.87658 -4.20354,2.19493 -10.80873,9.19282 -11.81085,12.51302 -0.43484,1.44073 -1.76434,3.40797 -2.95442,4.37165 -2.11802,1.71508 -2.12363,1.85736 -0.26465,6.72501 1.7519,4.58729 11.41011,15.18285 15.65454,17.17384 1.64874,0.7734 4.05633,2.25159 8.92544,5.47998 1.72086,1.141 6.03184,3.12569 9.57994,4.41042 6.88435,2.49276 11.86945,2.45006 17.20563,-0.1474 z m -105.46238,-26.63723 c 0,-0.25994 -0.48228,-0.77068 -1.07173,-1.13498 -0.58945,-0.36431 -1.07173,-0.15163 -1.07173,0.47261 0,0.62424 0.48228,1.13498 1.07173,1.13498 0.58945,0 1.07173,-0.21267 1.07173,-0.47261 z m 8.57386,-24.81892 c 1.47363,-0.34988 5.55429,-1.07925 9.06812,-1.62084 6.69501,-1.03189 24.15559,-8.67121 24.15559,-10.5685 0,-0.60583 0.66618,-1.1015 1.4804,-1.1015 0.81421,0 2.8461,-1.80855 4.5153,-4.01899 1.6692,-2.21045 4.98183,-6.10756 7.3614,-8.66025 2.37957,-2.55268 4.94474,-5.80807 5.70038,-7.23419 0.75564,-1.42612 1.84077,-2.59295 2.4114,-2.59295 0.57063,0 1.0375,-0.8681 1.0375,-1.92912 0,-1.06101 0.41118,-2.38728 0.91373,-2.94726 0.50256,-0.55998 1.54219,-3.42955 2.3103,-6.37681 0.7681,-2.94727 2.02807,-6.62843 2.79993,-8.18038 2.22868,-4.48115 2.79332,-9.16686 2.73122,-22.66536 -0.0614,-13.35868 -0.26922,-14.62068 -3.64558,-22.14471 -1.91057,-4.2576 -1.99749,-5.34456 -0.81989,-10.25334 1.22543,-5.10815 1.12881,-5.89672 -1.38609,-11.31352 -1.48684,-3.20244 -3.03465,-7.42093 -3.43958,-9.37441 -0.90359,-4.35914 -5.37202,-7.01983 -7.35151,-4.37739 -2.60888,3.48263 -5.08762,3.91072 -23.72864,4.09801 -16.68662,0.16765 -25.12742,-0.66364 -27.41356,-2.69983 -0.9306,-0.82886 -2.98554,-1.50701 -4.56655,-1.50701 -1.58101,0 -5.007,-1.00237 -7.61333,-2.22749 -2.60631,-1.22511 -5.85649,-2.06909 -7.22249,-1.87553 -2.2434,0.3179 -2.5008,0.9478 -2.6594,6.50819 -0.097,3.38593 0.2651,6.42863 0.8038,6.76157 0.5387,0.33295 0.9794,2.56361 0.9794,4.95705 0,4.0252 -0.6828,5.0407 -9.1016,13.53564 -5.006,5.05118 -9.379,10.05751 -9.7179,11.12518 -0.3388,1.06768 -1.307,1.94123 -2.1515,1.94123 -0.8444,0 -1.5353,0.4655 -1.5353,1.03444 0,0.56895 -1.384,2.61863 -3.0755,4.55486 -3.419,3.91363 -9.7853,15.94588 -9.7853,18.49412 0,0.90099 -0.4823,1.63816 -1.0718,1.63816 -0.5894,0 -1.0717,0.90566 -1.0717,2.01259 0,1.10691 -0.6832,3.64771 -1.5182,5.64623 -2.6492,6.34047 -3.2147,17.87734 -1.2518,25.53927 0.9632,3.75989 2.223,7.40449 2.7995,8.0991 0.5764,0.69461 1.231,2.65877 1.4545,4.36479 0.2236,1.70602 0.905,4.35241 1.5142,5.88086 1.6433,4.12268 9.8921,12.76111 12.1854,12.76111 1.0963,0 2.8307,0.41132 3.8542,0.91404 6.6408,3.26168 9.8064,4.41659 13.1142,4.78447 4.8633,0.54088 25.4682,-0.15804 28.93675,-0.98153 z m -89.29435,-11.3495 c 0.9686,-0.77327 0.9041,-2.19392 -0.2738,-6.03129 -1.1217,-3.65438 -1.4927,-10.03541 -1.364,-23.45931 0.1903,-19.85261 -0.2625,-21.75043 -5.1896,-21.75043 -1.4402,0 -3.672,-0.59986 -4.9595,-1.33303 -1.2875,-0.73316 -3.7878,-1.39654 -5.5561,-1.47417 -7.186,-0.31551 -23.817,-1.52586 -27.3292,-1.98895 -4.8654,-0.64148 -6.8944,0.64537 -6.1152,3.87835 0.3348,1.38896 1.0979,4.45451 1.6957,6.81232 0.5978,2.35782 1.3812,5.97491 1.7409,8.038 0.3597,2.06308 1.1096,4.20923 1.6663,4.76921 0.5568,0.55998 1.0123,1.82298 1.0123,2.80668 0,1.85215 11.2222,13.85876 12.9534,13.85876 0.5385,0 0.9791,0.47236 0.9791,1.04969 0,2.02566 12.2125,12.88283 14.491,12.88283 1.2507,0 4.1687,0.94127 6.4844,2.0917 4.0632,2.01862 7.1061,1.97176 9.7643,-0.15036 z m 424.21077,-14.61457 c 3.53671,-0.58618 8.51061,-1.37585 11.05311,-1.75483 2.5425,-0.37896 6.28017,-1.61996 8.30592,-2.75777 2.02577,-1.1378 3.68322,-1.82344 3.68322,-1.52366 0,1.03614 16.82487,-8.8157 19.29118,-11.29599 0.29473,-0.29639 2.94727,-2.44324 5.89453,-4.77076 5.89429,-4.65487 11.25319,-10.13191 11.25319,-11.50129 0,-0.48328 0.64748,-0.8787 1.43884,-0.8787 0.79135,0 2.35876,-1.79557 3.48313,-3.99016 1.12436,-2.19458 3.6117,-5.64452 5.52742,-7.66653 2.06206,-2.17645 3.49286,-4.81174 3.50697,-6.45923 0.0131,-1.53058 0.96694,-3.98856 2.11963,-5.4622 1.15269,-1.47363 2.10652,-3.42686 2.11963,-4.34051 0.0131,-0.91365 0.45272,-2.11935 0.97692,-2.67933 1.82254,-1.94699 4.0215,-12.84356 3.77405,-18.70174 -0.13694,-3.24199 0.24933,-6.49738 0.85837,-7.23419 0.76454,-0.92494 0.7573,-1.33967 -0.0234,-1.33967 -1.02804,0 -2.06468,-2.11013 -3.15907,-6.43039 -0.22397,-0.88418 -0.35345,-3.25589 -0.28772,-5.27047 0.15474,-4.74284 -0.9866,-9.89551 -2.04674,-9.24031 -1.06897,0.66066 -4.98118,-3.60851 -5.8539,-6.38801 -0.88619,-2.82238 -6.72712,-9.44099 -11.32596,-12.83391 -3.29525,-2.43113 -4.66871,-2.70621 -13.51184,-2.70621 -10.26511,0 -12.10377,0.53708 -27.80172,8.12103 -2.95573,1.42797 -5.97651,2.5963 -6.71287,2.5963 -1.71011,0 -5.3402,2.07392 -8.48714,4.84881 -2.17844,1.92089 -6.75512,12.45792 -6.75512,15.55252 0,0.64002 -3.01425,7.1753 -6.69833,14.52283 -9.73173,19.40897 -11.8112,23.20543 -14.20046,25.92557 -2.65525,3.02298 -5.66346,8.15118 -10.62756,18.11719 -2.32053,4.65876 -4.69483,7.97002 -6.0153,8.38912 -1.19985,0.38082 -3.44211,1.86066 -4.98283,3.28854 -1.54071,1.42788 -3.52203,2.59615 -4.40293,2.59615 -2.67,0 -10.94615,4.57185 -10.94615,6.04679 0,0.75896 -0.89626,1.85958 -1.99169,2.44584 -2.84176,1.52087 -5.59885,6.10593 -4.84808,8.0624 0.351,0.91469 5.28893,3.87902 10.97317,6.58739 5.68425,2.70838 11.17243,5.36122 12.19598,5.89521 1.02354,0.53398 2.95266,1.00969 4.28693,1.05713 1.33426,0.0475 4.5962,0.68364 7.24874,1.41378 5.45928,1.50273 22.9456,1.37395 32.68784,-0.24074 z m -109.85259,-3.64514 c 11.88741,-4.83189 22.1115,-10.02055 24.88212,-12.62749 1.34588,-1.26639 6.039,-4.71287 10.42914,-7.65886 7.64852,-5.13252 20.32149,-18.85112 20.39024,-22.07263 0.0157,-0.73682 0.51087,-1.33967 1.10033,-1.33967 0.58945,0 1.07173,-0.64638 1.07173,-1.43642 0,-0.79003 1.39969,-4.28656 3.11044,-7.77006 1.71074,-3.4835 4.41079,-9.22732 6.00011,-12.76404 1.58932,-3.53671 4.06585,-8.92665 5.50342,-11.97764 2.38514,-5.06205 4.15969,-10.46159 6.80635,-20.7102 2.24349,-8.68738 2.59908,-11.86336 2.64518,-23.62537 0.0403,-10.28482 -0.28582,-12.88237 -1.93301,-15.39621 -1.831,-2.79434 -2.36011,-2.9758 -6.96626,-2.38923 -5.09465,0.64876 -8.79686,0.0318 -17.3097,-2.88441 -2.65253,-0.90869 -7.71647,-2.47522 -11.25319,-3.48118 -3.53671,-1.00596 -7.15381,-2.08783 -8.03799,-2.40417 -0.88418,-0.31633 -2.33102,-0.65899 -3.2152,-0.76147 -0.88418,-0.10246 -4.019,-1.66209 -6.96626,-3.46581 -8.72784,-5.34143 -10.95825,-5.07879 -16.07599,1.89295 -2.81906,3.84033 -4.65992,5.35867 -6.49697,5.35867 -3.39343,0 -5.36315,3.22146 -7.43679,12.16285 -0.93289,4.02254 -3.36394,10.9243 -5.40233,15.33728 -2.03838,4.41297 -3.70616,8.28067 -3.70616,8.59489 0,1.22309 -7.12564,9.7194 -12.52073,14.92918 -3.41925,3.30182 -7.69694,6.19531 -10.77526,7.28856 -2.8077,0.99714 -6.55176,2.45978 -8.32012,3.2503 -3.99603,1.78638 -9.66372,4.15144 -14.09459,5.8815 -4.18249,1.63307 -7.37924,5.05739 -8.27969,8.86912 -0.3768,1.59499 -1.24639,4.24753 -1.93243,5.89453 -2.52639,6.06514 -3.7736,12.3086 -3.33664,16.70309 0.2467,2.48098 0.57478,7.40457 0.72906,10.94128 0.34655,7.94351 0.82545,9.00608 5.49643,12.19514 2.05385,1.40226 3.73428,3.00749 3.73428,3.56718 0,1.38256 14.01499,14.78206 15.46107,14.78206 0.26146,0 1.83305,0.56431 3.49241,1.25403 1.65937,0.68971 7.83983,2.81536 13.73436,4.72367 12.79388,4.14192 17.50198,4.00431 29.47264,-0.86142 z m -314.09358,-61.52781 c 2.8105,-0.5621 4.4763,-2.29829 9.5117,-9.91353 3.3574,-5.07764 6.4505,-10.07607 6.8736,-11.10762 0.4231,-1.03154 1.3566,-1.87553 2.0744,-1.87553 1.7944,0 6.2661,-4.33986 6.2661,-6.08134 0,-0.78143 0.3646,-1.42079 0.8101,-1.42079 1.586,0 3.4259,-6.00758 4.1146,-13.43529 0.6056,-6.53156 0.3217,-8.58722 -2.1214,-15.35997 -2.7262,-7.55767 -2.7608,-7.94509 -1.0347,-11.58254 1.628,-3.43075 2.0786,-3.69868 5.0993,-3.03175 1.8225,0.40237 4.0185,0.80911 4.8801,0.90386 2.7329,0.30051 2.3591,-2.99725 -0.7322,-6.45966 -1.6416,-1.83878 -3.5681,-5.43934 -4.2811,-8.00125 -2.4909,-8.95105 -4.437,-18.61814 -4.4422,-22.06674 0,-3.49544 -2.04,-10.69562 -3.5307,-12.49388 -0.8194,-0.98847 -18.3157,5.02972 -21.2682,7.31561 -2.833,2.19341 -9.3937,3.93336 -13.8416,3.67092 -2.3757,-0.14018 -4.6499,0.0756 -5.0538,0.47951 -0.4039,0.40391 -1.2939,0.27002 -1.9778,-0.29754 -0.8266,-0.68604 -2.1169,-0.41352 -3.8497,0.81311 -3.9714,2.81143 -9.7272,4.79461 -13.5211,4.65883 -3.7811,-0.13532 -6.7687,2.17003 -6.7687,5.22289 0,1.36092 -1.8804,2.87861 -5.9542,4.80583 -6.6918,3.16576 -8.1074,4.22821 -15.7319,11.8073 -3.716,3.69391 -6.8014,8.35523 -9.9314,15.00426 -6.05,12.85195 -7.0384,16.24058 -7.6668,26.28718 -0.4732,7.56657 -0.2648,8.91132 1.8622,12.01527 3.0351,4.42926 8.6487,10.46138 9.7355,10.46138 0.7381,0 5.6633,2.09358 16.7583,7.12359 5.9515,2.69816 14.5481,5.43858 19.5617,6.23587 4.2292,0.67254 8.8661,2.00711 19.7675,5.6894 3.8623,1.30462 9.7405,1.56299 14.3924,0.63262 z m 199.13741,-18.21042 c 8.07961,-0.66831 20.91505,-4.60576 27.87001,-8.54951 10.84183,-6.14777 15.99519,-9.56931 20.72294,-13.75887 2.69885,-2.39161 7.14167,-6.03637 9.87295,-8.09946 2.73129,-2.06308 4.98422,-4.56659 5.00654,-5.56334 0.0223,-0.99675 0.4662,-2.07534 0.9864,-2.39683 1.32539,-0.81914 8.7453,-16.44375 9.9615,-20.97661 4.52652,-16.87059 5.09411,-28.03768 2.09805,-41.27852 -2.49608,-11.03117 -3.6361,-13.04164 -7.90573,-13.94198 -3.61906,-0.76316 -14.21614,-6.32489 -16.69733,-8.76336 -0.77891,-0.7655 -1.78555,-1.39182 -2.23695,-1.39182 -0.73389,0 -4.7636,-3.49548 -13.04799,-11.31818 -1.52276,-1.43789 -3.32991,-2.61435 -4.01591,-2.61435 -1.73966,0 -9.8273,-7.46303 -9.8273,-9.06832 0,-0.72424 -0.93092,-2.15925 -2.06871,-3.18894 -1.74786,-1.5818 -3.28535,-1.75999 -9.91352,-1.14896 -5.23858,0.48293 -8.913,0.29283 -11.06002,-0.57221 -3.24317,-1.30667 -11.70331,-2.3023 -21.27,-2.50315 -4.09614,-0.086 -5.58654,0.37569 -7.051,2.18422 -1.64618,2.03295 -1.71867,3.12663 -0.63867,9.63497 2.54709,15.3495 0.35301,38.35679 -4.89053,51.28276 -0.47824,1.17891 -1.3893,5.03714 -2.02458,8.57386 -1.52918,8.51323 -3.37592,14.46839 -4.48673,14.46839 -0.49511,0 -0.9002,0.72342 -0.9002,1.6076 0,0.88418 -0.96455,2.57216 -2.14346,3.75106 -1.17891,1.17891 -2.1177,2.26404 -2.0862,2.4114 0.17943,0.83957 -3.40154,8.2592 -4.23471,8.77412 -0.54709,0.33813 -1.32153,2.54923 -1.72099,4.91356 -0.61354,3.63154 -0.36427,4.59192 1.60598,6.18733 1.82088,1.47445 2.5297,3.64431 3.23273,9.89605 1.5175,13.49473 5.59412,20.24737 17.22239,28.52779 7.01585,4.99595 5.89495,4.88548 29.64104,2.9213 z m -139.08621,-32.47318 c 0.9199,-1.71897 0.5368,-2.48288 -2.2844,-4.55487 -1.8643,-1.36923 -6.4202,-5.45497 -10.1242,-9.0794 -3.704,-3.62443 -6.9113,-6.05937 -7.1275,-5.41097 -0.3756,1.12702 0.779,10.4868 1.9009,15.40904 0.9814,4.30611 3.4812,5.70154 10.2137,5.70154 5.1396,0 6.522,-0.38471 7.4215,-2.06534 z m 74.214,-19.16081 c 2.18556,-1.35897 5.12354,-3.8373 6.52884,-5.50741 2.61202,-3.10421 9.21112,-15.98364 9.8289,-19.183 0.18856,-0.97654 1.56452,-5.51473 3.05771,-10.08484 1.49317,-4.57011 3.0355,-11.08089 3.4274,-14.46839 0.39189,-3.3875 1.34073,-8.81162 2.10855,-12.05362 1.60014,-6.7564 1.70613,-7.68142 1.96477,-17.14772 0.18822,-6.88909 -1.59135,-14.20274 -5.08514,-20.89878 -0.92267,-1.76836 -1.68925,-5.14432 -1.70351,-7.50213 -0.0272,-4.50704 -2.08126,-6.8328 -11.77634,-13.33436 -5.36936,-3.60072 -21.43465,-21.86739 -21.43465,-24.37179 0,-1.53215 -3.65314,-4.62728 -5.46152,-4.62728 -2.82005,0 -3.44581,1.7227 -3.23063,8.89381 0.171,5.69893 -0.14637,6.80526 -2.72393,9.49565 -1.6046,1.67485 -3.73274,3.04519 -4.7292,3.04519 -0.99644,0 -2.41949,0.73231 -3.16233,1.62737 -1.35148,1.62845 -6.67095,4.42481 -9.55276,5.02173 -0.84214,0.17444 -3.92041,3.21084 -6.8406,6.74755 -2.92018,3.53672 -6.8346,7.87724 -8.69869,9.6456 -9.16867,8.69773 -21.80687,30.59333 -24.28367,42.07136 -4.3301,20.06601 -4.582,22.53698 -3.0989,30.39711 1.2763,6.76391 2.0487,8.2979 6.7909,13.48658 5.678,6.2127 14.76021,11.36589 25.87309,14.68028 1.44551,0.43113 4.81497,1.67143 7.87411,2.89848 1.38348,0.55493 5.47635,1.25671 9.09524,1.55952 3.6189,0.3028 6.92407,0.89466 7.34483,1.31524 0.42075,0.42057 5.97349,0.76468 12.3394,0.76468 10.222,0 12.03869,-0.2887 15.54813,-2.47083 z m 381.84996,-0.63644 c 1.17891,-0.46099 3.10803,-1.25605 4.28693,-1.76681 1.17891,-0.51075 3.34917,-1.06988 4.8228,-1.24248 1.47363,-0.17261 2.92047,-0.62147 3.2152,-0.99747 0.29473,-0.37601 4.63524,-2.82678 9.64559,-5.44618 12.10611,-6.32903 13.93252,-7.53058 13.93252,-9.16588 0,-0.76088 0.66171,-1.63736 1.47047,-1.94771 0.80877,-0.31035 3.04952,-2.82718 4.97946,-5.59295 1.92993,-2.76578 5.12646,-6.57151 7.10339,-8.45718 1.97692,-1.88567 3.5944,-3.76162 3.5944,-4.16878 0,-0.40716 0.72906,-1.27573 1.62012,-1.93018 0.89107,-0.65443 1.84669,-2.37244 2.12363,-3.81779 0.27692,-1.44534 1.65512,-5.06244 3.06266,-8.03799 4.56,-9.63993 6.18804,-17.88237 5.99307,-30.34185 -0.099,-6.32893 -0.59273,-12.02039 -1.0971,-12.64771 -0.50437,-0.62732 -1.62409,-4.17145 -2.48827,-7.87585 -0.86418,-3.7044 -2.32632,-7.56963 -3.24921,-8.5894 -0.92288,-1.01978 -1.67797,-2.6317 -1.67797,-3.58203 0,-0.95035 -0.50181,-2.03804 -1.11515,-2.4171 -0.61335,-0.37906 -2.26579,-2.51193 -3.67211,-4.73969 -5.08899,-8.06146 -14.30321,-16.83418 -21.72357,-20.6827 -15.71575,-8.15084 -26.3141,-9.30929 -33.69108,-3.68259 -2.07268,1.5809 -4.32583,2.87437 -5.007,2.87437 -0.68118,0 -1.2385,0.51074 -1.2385,1.13498 0,0.62424 -0.40368,0.88549 -0.89707,0.58056 -0.4934,-0.30493 -1.95616,0.18738 -3.25059,1.09405 -2.21643,1.55243 -2.33249,2.31456 -1.99249,13.08402 0.19857,6.28957 -0.051,13.36468 -0.55463,15.7225 -0.50363,2.35781 -1.17455,6.45718 -1.49094,9.10972 -0.31639,2.65254 -1.01125,5.34945 -1.54413,5.99314 -0.53289,0.64368 -0.71174,1.42749 -0.39747,1.74176 0.80733,0.80731 -2.63918,9.20377 -5.70391,13.896 -2.95819,4.52912 -2.55627,7.3519 1.34402,9.43927 1.44375,0.77268 2.32427,1.89144 1.95672,2.48615 -0.36756,0.59472 -0.59289,3.00537 -0.50074,5.35701 0.0922,2.35164 -0.22408,4.80662 -0.70271,5.45551 -0.81137,1.09997 -7.04361,16.6087 -7.14964,17.79165 -0.0264,0.29473 -0.33533,1.01815 -0.68648,1.6076 -0.35115,0.58945 -1.72028,4.68883 -3.04253,9.10973 -1.32224,4.42089 -3.06724,9.32097 -3.87778,10.88907 -2.9578,5.72225 1.00729,11.06086 9.19918,12.38581 1.47363,0.23834 4.74952,1.64212 7.27975,3.1195 8.4165,4.91432 15.69176,6.38098 21.12116,4.25792 z m -99.13525,-15.50348 c 11.37334,-1.61027 13.34909,-2.16908 13.08173,-3.69999 -0.1732,-0.99178 0.21698,-1.80324 0.86706,-1.80324 0.65008,0 0.8839,0.48228 0.51959,1.07173 -0.3643,0.58945 0.14112,1.07173 1.12315,1.07173 1.1312,0 1.56381,-0.57775 1.18052,-1.57658 -0.33275,-0.86712 0.098,-2.27951 0.95707,-3.13864 0.85913,-0.85914 1.56206,-1.81506 1.56206,-2.12426 0,-0.30922 2.29083,-3.10641 5.09073,-6.216 4.90633,-5.44899 6.23939,-6.76428 15.94799,-15.7354 2.43477,-2.24982 6.22743,-6.69956 8.42813,-9.88831 2.2007,-3.18873 4.54913,-6.27999 5.21873,-6.86944 2.12406,-1.86982 7.11199,-8.92299 7.11199,-10.0567 0,-0.59949 0.60285,-1.47566 1.33967,-1.94704 1.68557,-1.07834 3.60216,-4.07884 5.68179,-8.89504 0.89083,-2.06309 2.32797,-5.03118 3.19364,-6.59576 0.86568,-1.56458 1.57396,-3.82695 1.57396,-5.02748 0,-1.20054 0.40839,-2.43519 0.90755,-2.74368 0.49915,-0.3085 0.94641,-1.92765 0.9939,-3.59812 0.0475,-1.67047 0.88202,-5.02578 1.8545,-7.45625 1.37399,-3.43393 1.50002,-4.92002 0.56535,-6.66648 -0.66155,-1.2361 -1.14359,-4.2882 -1.07123,-6.78243 0.0723,-2.49423 -0.30077,-6.96985 -0.82921,-9.94583 -1.09435,-6.1629 -9.08464,-21.39059 -12.23423,-23.31568 -1.15359,-0.70508 -3.05712,-2.82217 -4.23007,-4.70465 -1.48473,-2.38283 -4.96643,-4.84512 -11.46026,-8.10475 -5.13018,-2.57514 -10.53331,-5.35187 -12.00694,-6.17051 -1.47363,-0.81864 -3.549,-1.63348 -4.61192,-1.81076 -1.06293,-0.17727 -3.3298,-1.04485 -5.03751,-1.92794 -1.7077,-0.88308 -4.3061,-1.60561 -5.77422,-1.60561 -1.46812,0 -2.94581,-0.44741 -3.28377,-0.99424 -0.33796,-0.54683 -2.8984,-0.74522 -5.68985,-0.44087 -2.79146,0.30436 -7.60734,0.79641 -10.70197,1.09343 -3.09463,0.29703 -5.6266,0.88643 -5.6266,1.30977 0,0.42335 -3.01424,1.66286 -6.69833,2.75449 -3.68408,1.09163 -6.93946,2.26803 -7.23419,2.61423 -0.29473,0.3462 -2.849,1.83515 -5.67616,3.30878 -7.01222,3.65506 -9.04883,7.44245 -9.13871,16.99485 -0.0396,4.21852 -0.42456,8.2402 -0.85524,8.93706 -0.43069,0.69686 -0.89461,3.5498 -1.03094,6.33985 -0.13634,2.79007 -0.73542,6.6776 -1.33128,8.63899 -0.59587,1.96138 -1.89929,7.42439 -2.89648,12.14001 -0.99721,4.71562 -2.35233,9.77956 -3.01138,11.25319 -1.69279,3.78503 -22.53548,24.0491 -29.9419,29.1107 -3.4045,2.32665 -6.7759,5.16845 -7.492,6.31511 -0.7161,1.14666 -1.82534,2.08483 -2.46498,2.08483 -0.63964,0 -2.28982,1.19946 -3.66706,2.66548 -2.29804,2.44615 -2.39968,3.01389 -1.23532,6.9002 0.69782,2.3291 0.96885,6.11029 0.60228,8.40264 -0.76867,4.80698 1.92705,15.71493 4.70793,19.05011 2.20108,2.63981 13.6582,7.8263 25.85978,11.70636 4.97689,1.58265 10.52311,3.64771 12.32493,4.58904 1.86161,0.97258 6.71286,1.86867 11.23634,2.07553 4.37818,0.20021 8.13319,0.53688 8.34448,0.74816 1.01021,1.01023 12.87781,0.37559 24.9569,-1.33459 z m 45.2279,-18.20119 c 1.37193,-2.16681 1.67569,-3.37803 0.84717,-3.37803 -0.71039,0 -1.01404,-0.72342 -0.67474,-1.6076 0.94521,-2.46318 -0.63813,-1.93925 -5.55141,1.83695 -6.0652,4.66155 -6.03673,7.5423 0.0679,6.87399 2.17601,-0.23823 3.84392,-1.40814 5.31104,-3.72531 z M -1080.2751,688.1358 c 0.5895,-0.44629 2.8314,-1.12814 4.982,-1.51522 2.1507,-0.38708 5.1423,-1.67285 6.6481,-2.85729 1.5057,-1.18443 4.3278,-2.69578 6.2711,-3.35855 1.9434,-0.66278 4.6837,-2.09242 6.0894,-3.17699 1.4058,-1.08456 3.0126,-1.97194 3.5707,-1.97194 1.8488,0 10.4167,-7.67405 12.7091,-11.38334 1.2402,-2.00657 2.3935,-4.72727 2.563,-6.04601 0.1695,-1.31873 1.0879,-3.84454 2.041,-5.6129 0.953,-1.76836 1.7358,-3.63439 1.7394,-4.14673 0.01,-1.05731 7.5309,-13.78777 8.6334,-14.60859 1.1442,-0.85193 4.2335,-7.25661 4.2391,-8.78857 0.01,-1.87849 7.033,-9.42916 8.782,-9.43765 1.7156,-0.009 5.1454,-5.82388 5.1454,-8.7244 0,-3.91379 -2.1113,-6.13846 -8.5811,-9.04195 -3.5327,-1.58538 -6.4231,-3.29893 -6.4231,-3.80789 0,-0.50895 -0.6885,-0.92537 -1.5299,-0.92537 -0.8414,0 -2.4782,-1.2057 -3.6373,-2.67934 -1.1592,-1.47363 -2.7952,-2.67933 -3.6356,-2.67933 -1.8979,0 -5.0607,-3.57295 -8.3613,-9.4456 -1.387,-2.46781 -2.9153,-4.48692 -3.3962,-4.48692 -0.4809,0 -0.8744,-0.72342 -0.8744,-1.6076 0,-0.88418 -0.409,-1.6076 -0.909,-1.6076 -1.2335,0 -4.0631,-6.66336 -6.1439,-14.46839 -3.8532,-14.45319 -3.8635,-14.47752 -6.4186,-15.11881 -1.3678,-0.34329 -4.9541,-0.095 -7.9697,0.55172 -3.7892,0.81262 -6.1198,0.83502 -7.5445,0.0726 -1.1339,-0.60684 -4.8422,-1.02038 -8.2406,-0.91898 -3.3984,0.10139 -6.9023,-0.006 -7.7865,-0.23901 -1.2803,-0.3372 -1.6202,0.77664 -1.6695,5.47113 -0.034,3.24199 -0.1547,6.95886 -0.268,8.25973 -0.1778,2.04271 -4.4119,5.97618 -16.8132,15.6195 -0.592,0.46034 -2.7306,2.26889 -4.7525,4.01899 -2.0219,1.75011 -4.0716,3.18202 -4.5548,3.18202 -0.4833,0 -0.8946,0.60285 -0.914,1.33967 -0.019,0.73681 -1.8852,3.19141 -4.1463,5.45467 -2.9502,2.95299 -4.6429,5.97936 -5.9944,10.71732 -1.0358,3.63128 -2.5223,8.53144 -3.3033,10.88925 -2.2032,6.65112 -5.0449,29.45943 -4.3398,34.83131 0.3482,2.65254 0.8566,6.36368 1.1297,8.24697 0.6899,4.75727 5.6454,15.27308 7.5399,16.00006 0.8611,0.33046 1.8577,1.52084 2.2146,2.64529 0.3569,1.12445 1.4604,2.04654 2.4522,2.04907 0.9918,0.002 4.4034,1.97578 7.5812,4.38499 3.4148,2.58883 8.1836,5.00699 11.6599,5.91245 7.4336,1.93618 7.7479,2.14883 7.7479,5.24055 0,3.64937 3.2506,5.50844 8.7506,5.00472 2.5554,-0.23402 5.1284,-0.79065 5.7178,-1.23694 z m 316.69699,-18.23865 c 0,-0.58945 0.95938,-1.07173 2.13197,-1.07173 1.17258,0 4.66911,-0.96432 7.77006,-2.14293 3.10095,-1.17861 6.27706,-2.14317 7.05802,-2.14347 3.47328,-0.001 17.58052,-10.82401 29.77358,-22.84147 10.93934,-10.7818 13.68372,-14.12943 15.55281,-18.97155 2.48683,-6.44249 5.17522,-17.35611 5.21037,-21.1518 0.0123,-1.32627 0.60108,-2.4114 1.30842,-2.4114 0.93616,0 0.96498,-0.3211 0.10589,-1.18017 -0.79298,-0.79297 -0.85904,-2.28732 -0.20134,-4.55486 1.57997,-5.44719 -0.0252,-33.3799 -2.391,-41.60689 -3.16788,-11.01637 -4.64145,-13.11971 -15.01599,-21.43355 -9.0556,-7.25686 -14.37305,-9.44954 -24.69245,-10.18202 -10.44144,-0.74116 -15.78588,0.72205 -21.44873,5.87231 -2.37015,2.15562 -3.54895,2.4898 -6.69832,1.89898 -2.10207,-0.39436 -3.82195,-1.14604 -3.82195,-1.6704 0,-2.75055 2.37372,-6.37282 5.97741,-9.12151 5.13095,-3.91355 22.33122,-7.19358 30.27233,-5.77282 5.46162,0.97714 17.33688,6.16105 17.33688,7.56805 0,0.48107 0.60285,0.87647 1.33967,0.87868 0.73682,0.002 3.02764,1.05152 5.09073,2.33182 7.50445,4.6571 8.89171,2.66917 4.39855,-6.30305 -1.24029,-2.47671 -2.25509,-4.92895 -2.25509,-5.44945 0,-0.52049 -1.4362,-2.22601 -3.19156,-3.79004 -1.75537,-1.56405 -3.51232,-4.12163 -3.90433,-5.68354 -0.90563,-3.60832 2.10943,-6.14931 10.14149,-8.54689 11.08565,-3.30909 22.7945,-13.31684 35.90198,-30.68602 8.40483,-11.13753 9.82097,-13.77197 10.78702,-20.06691 0.40315,-2.62701 2.09143,-7.20866 3.75172,-10.18146 1.66028,-2.97278 4.11101,-8.29874 5.44606,-11.83546 1.33505,-3.53672 3.09449,-8.11838 3.90988,-10.18146 0.86859,-2.19767 1.53897,-8.18931 1.61879,-14.46839 0.11219,-8.82369 -0.27339,-11.66414 -2.1822,-16.07599 -3.67345,-8.49045 -5.81606,-12.58524 -8.69222,-16.61185 -3.63388,-5.08743 -15.70876,-17.14772 -17.16847,-17.14772 -0.64761,0 -0.85949,-0.51454 -0.47081,-1.14341 0.38866,-0.62889 0.0554,-1.03509 -0.74056,-0.9027 -1.94555,0.3236 -5.26527,-1.08363 -7.87761,-3.33932 -2.43283,-2.10068 -11.97903,-4.5971 -15.72664,-4.11266 -1.37105,0.17722 -3.09566,-0.0531 -3.83247,-0.51176 -0.73682,-0.45869 -1.94252,-0.45798 -2.67934,0.001 -0.73681,0.45955 -3.9922,0.91168 -7.23419,1.00473 -3.24199,0.093 -6.61795,0.41385 -7.50213,0.7129 -3.9028,1.32 -10.65691,2.96034 -11.45315,2.78157 -0.47948,-0.10764 -2.25228,0.37313 -3.93957,1.06838 -1.6873,0.69526 -3.61642,1.16086 -4.28693,1.03468 -2.65458,-0.49953 -13.5736,4.32608 -25.86898,11.43268 -3.53672,2.04418 -7.15382,4.06449 -8.03799,4.48957 -5.36923,2.58136 -22.50639,23.89812 -22.50639,27.99551 0,0.58874 -1.62399,3.48368 -3.60887,6.4332 -1.9849,2.94953 -3.93179,6.64935 -4.32647,8.22183 -0.91477,3.64475 -2.80877,3.04501 -5.19172,-1.64397 -2.66574,-5.24544 -2.33482,-9.82125 1.25976,-17.41936 6.35903,-13.44154 7.23981,-18.63035 4.99143,-29.40512 -0.29832,-1.4296 0.0173,-2.41807 0.77495,-2.42781 0.76557,-0.01 0.63344,-0.42394 -0.32947,-1.03264 -0.88418,-0.55893 -1.63875,-1.39553 -1.67681,-1.85913 -0.038,-0.46358 -0.71072,-2.87074 -1.49478,-5.34924 -1.05051,-3.3208 -2.33159,-4.93628 -4.86945,-6.14057 -1.89414,-0.89883 -5.96762,-3.37026 -9.05218,-5.49207 -3.86691,-2.65996 -7.09047,-3.9786 -10.38183,-4.2468 -2.62545,-0.21393 -7.28378,-1.11601 -10.35183,-2.00459 -6.39187,-1.85126 -17.50957,-1.33094 -20.04519,0.93811 -0.93654,0.83809 -5.01183,1.61637 -9.75035,1.8621 -6.52693,0.33845 -9.55526,1.1253 -15.27219,3.96818 -3.92201,1.9503 -7.13093,3.93977 -7.13093,4.42105 0,0.48128 -0.86242,1.14877 -1.91649,1.48331 -2.36295,0.74998 -13.6767,11.4745 -17.96411,17.02853 -1.7389,2.25262 -3.96825,6.352 -4.95412,9.10972 -1.92086,5.37322 -2.5371,15.18392 -1.0588,16.85669 0.49487,0.55998 0.55905,5.11752 0.14261,10.12787 -0.96127,11.56534 -0.51662,15.21083 2.45671,20.14159 5.21602,8.64986 9.36168,18.85404 9.36168,23.04294 0,1.20406 2.40132,5.48036 5.33625,9.50289 2.93493,4.02253 5.62499,8.64354 5.9779,10.26891 1.03352,4.75992 2.85532,7.78007 4.67501,7.75011 0.93193,-0.0153 5.29459,-1.22105 9.69479,-2.67933 4.40019,-1.45829 9.35809,-2.65143 11.01755,-2.65143 1.65945,0 5.82769,-1.18292 9.26274,-2.62871 5.56668,-2.34298 7.68921,-2.61629 19.52683,-2.51438 13.8201,0.11898 19.7275,1.42137 24.06767,5.30617 1.2169,1.08921 2.51899,1.98039 2.89354,1.98039 0.37455,0 2.82481,1.44684 5.44501,3.2152 2.62022,1.76835 5.18975,3.21519 5.71007,3.21519 1.20672,0 4.63763,3.9734 4.63763,5.37092 0,0.58271 0.44396,1.05948 0.98657,1.05948 0.54262,0 1.30315,1.44131 1.69006,3.2029 0.38691,1.76161 1.14865,3.47804 1.69276,3.81432 0.54409,0.33628 0.98927,1.56767 0.98927,2.73643 0,1.16877 0.96476,3.16059 2.14393,4.42627 1.17916,1.26567 2.06765,2.81291 1.97443,3.43831 -0.16719,1.12166 0.5386,3.37382 2.37151,7.56748 2.7598,6.31438 5.67379,15.6962 6.49114,20.89879 1.41246,8.99061 1.07146,20.59747 -0.66139,22.51224 -1.12042,1.23805 -1.28419,3.11925 -0.66732,7.66503 0.78019,5.74925 -1.03946,15.29723 -3.35703,17.61479 -0.43622,0.43623 -0.79314,2.2842 -0.79314,4.1066 0,2.05109 -1.6139,5.78345 -4.23622,9.79678 -2.32991,3.56584 -4.73532,8.71049 -5.34535,11.43256 -1.07653,4.80367 -3.19433,10.44845 -4.32915,11.53887 -0.30671,0.29473 -1.76337,2.94727 -3.237,5.89453 -1.47364,2.94726 -3.76446,6.85103 -5.09073,8.67502 -1.32627,1.824 -2.4114,4.00765 -2.4114,4.85255 0,1.92943 -3.00294,4.52914 -8.42941,7.29752 -2.31427,1.18065 -4.86092,2.78427 -5.65923,3.56359 -0.79831,0.77932 -3.62174,2.51863 -6.27428,3.86515 -5.08917,2.58341 -7.50213,4.95663 -7.50213,7.3786 0,1.71834 6.34484,7.77274 8.14562,7.77274 0.68064,0 1.82368,0.70628 2.54009,1.56951 0.71642,0.86322 4.03086,3.37218 7.36543,5.57547 3.33457,2.20328 6.63704,4.56872 7.33883,5.25652 1.19518,1.17136 8.21083,2.96981 23.37386,5.99185 3.53672,0.70488 9.44458,1.31582 13.12858,1.35765 3.68399,0.0418 6.69824,0.43776 6.69833,0.87985 8e-5,0.44209 0.48243,0.8038 1.07188,0.8038 0.58945,0 1.07173,-0.48228 1.07173,-1.07173 z m -66.25572,-64.68166 c 10.78234,-2.85005 19.71285,-8.63926 25.74944,-16.69211 2.46239,-3.28484 4.86717,-6.13319 5.34396,-6.32967 0.47678,-0.1965 0.86688,-0.98888 0.86688,-1.76087 0,-0.772 0.66324,-1.65814 1.47388,-1.96921 0.81064,-0.31107 3.40047,-4.58261 5.75518,-9.49233 3.65109,-7.6127 4.49056,-10.741 5.70281,-21.25166 1.86793,-16.19564 1.96472,-36.65342 0.17624,-37.24958 -0.72547,-0.24182 -1.32107,-1.24349 -1.32354,-2.2259 -0.002,-0.98243 -1.20817,-4.15879 -2.67933,-7.05859 -1.47116,-2.8998 -2.67485,-6.31512 -2.67485,-7.58962 0,-5.82655 -14.52068,-28.41571 -17.20118,-26.75907 -0.56005,0.34613 -1.01827,-0.12256 -1.01827,-1.04153 0,-0.91897 -0.84399,-1.70475 -1.87553,-1.74618 -1.60378,-0.0644 -1.56497,-0.20879 0.26793,-0.9964 1.91331,-0.82218 1.93528,-0.92917 0.20468,-0.9964 -1.06633,-0.0414 -1.64071,-0.55762 -1.27641,-1.14707 0.3643,-0.58945 0.19182,-1.07173 -0.3833,-1.07173 -0.57513,0 -1.23181,0.55839 -1.45931,1.24088 -0.26992,0.80979 -2.07679,0.26621 -5.20093,-1.56466 -4.25419,-2.49312 -5.91097,-2.80376 -14.87771,-2.78951 -5.54971,0.009 -10.60425,0.33727 -11.23229,0.72986 -0.62805,0.3926 -2.10582,0.86362 -3.28394,1.04671 -1.17812,0.18308 -3.83066,1.4365 -5.89453,2.78536 -2.06387,1.34886 -4.56938,2.7549 -5.56782,3.12452 -0.99843,0.36961 -3.90601,3.33578 -6.46129,6.59146 -3.94993,5.03261 -18.66621,16.70043 -21.06378,16.70043 -0.84906,0 -4.68692,2.76988 -7.6723,5.53728 -1.0598,0.98242 -2.19019,1.52295 -2.51197,1.20117 -0.32178,-0.32178 -1.1628,0.68297 -1.86893,2.23277 -0.70614,1.54981 -1.64943,2.81783 -2.09619,2.81783 -0.44675,0 -1.90225,1.80855 -3.23443,4.019 -1.33219,2.21045 -4.02406,5.38038 -5.98194,7.04428 -1.95789,1.66392 -3.5598,3.86594 -3.5598,4.89339 0,1.06702 -1.86003,2.91349 -4.33761,4.30596 -3.18057,1.78759 -4.0476,2.7873 -3.25042,3.74785 0.75498,0.90968 0.48057,2.59934 -0.89802,5.52954 -1.09186,2.32076 -2.27863,4.94298 -2.63728,5.82716 -0.35864,0.88418 -1.06247,2.33102 -1.56406,3.2152 -3.11196,5.48562 -3.64537,7.46586 -3.51884,13.06324 0.0902,3.98978 -0.29342,6.22794 -1.06745,6.22794 -0.8958,0 -0.89616,0.37602 -10e-4,1.45417 0.67136,0.80894 0.92194,2.87876 0.56472,4.66482 -1.3857,6.92851 7.26357,18.26209 18.8538,24.70511 3.83144,2.1299 8.89538,5.40739 11.25319,7.28328 3.03821,2.41725 5.80838,3.57353 9.51021,3.96962 2.87281,0.30739 5.52535,1.04727 5.89453,1.64418 0.88984,1.43872 12.04244,4.58105 19.42657,5.47357 9.51186,1.14973 30.04579,0.39604 36.6306,-1.34449 z m 265.33004,-17.83 c 1.91572,-1.16804 3.48313,-1.79748 3.48313,-1.39875 0,0.39873 0.60285,-0.0465 1.33966,-0.98934 0.73682,-0.94287 3.75107,-2.93498 6.69833,-4.42694 4.54196,-2.29921 6.01202,-2.56649 9.64559,-1.75371 2.35782,0.52741 5.73377,1.27755 7.50213,1.66696 1.76836,0.38943 3.77175,1.40443 4.45198,2.25557 0.8153,1.02015 1.47601,1.16044 1.93878,0.41167 0.38611,-0.62473 1.84175,-1.13587 3.23477,-1.13587 3.21499,0 11.90034,-6.60784 11.53028,-8.77227 -0.15337,-0.89702 0.8305,-2.78674 2.18637,-4.19939 3.08765,-3.21697 6.68329,-8.74159 6.37258,-9.79134 -0.12901,-0.43586 1.00697,-4.49095 2.52441,-9.01132 3.9511,-11.77011 5.3786,-29.70495 3.14956,-39.5703 -0.27561,-1.21984 -0.82327,-5.53432 -1.21702,-9.58775 -0.39374,-4.05342 -1.8969,-10.0403 -3.34034,-13.30418 -4.13326,-9.34604 -14.96199,-17.78873 -23.76142,-18.52574 -3.24038,-0.2714 -3.7455,0.0504 -4.52683,2.88354 -0.48371,1.75398 -0.95454,9.71159 -1.04629,17.68359 -0.14365,12.48042 -0.53852,15.53232 -2.84166,21.96279 -1.47116,4.10753 -3.82009,9.28245 -5.21986,11.49983 -1.39977,2.21737 -2.54503,4.36751 -2.54503,4.77809 0,1.69313 -9.89994,15.17918 -14.43143,19.65901 -6.36996,6.29736 -10.21842,9.6998 -10.21842,9.03414 0,-0.29417 -1.49681,1.1699 -3.32622,3.25349 -1.98561,2.26149 -4.31351,3.78836 -5.7758,3.78836 -1.34727,0 -3.54027,0.88319 -4.87334,1.96264 -3.12012,2.52651 -2.22186,6.82955 2.24362,10.74793 1.73682,1.52405 3.15788,3.35665 3.15788,4.07245 0,1.52708 7.54319,8.91752 9.10972,8.92526 0.58946,0.003 2.63915,-0.95038 4.55487,-2.11842 z m -419.10017,-10.68642 c 2.82891,-0.56599 7.55488,-1.27706 10.50214,-1.58016 8.69352,-0.89405 14.66527,-2.40815 15.6542,-3.96904 1.16956,-1.84597 1.15333,-3.61032 -0.0822,-8.93958 -1.05296,-4.54181 0.29906,-19.2277 1.96445,-21.3382 0.51665,-0.65474 1.26138,-2.97832 1.65493,-5.16351 1.17966,-6.54998 7.30409,-18.87117 10.58716,-21.29936 0.46298,-0.34243 1.8546,-2.51269 3.09249,-4.8228 5.27861,-9.85072 26.27933,-31.17175 41.96522,-42.60529 3.68342,-2.68486 4.09179,-3.41774 3.51405,-6.30642 -0.35953,-1.79768 -1.50792,-4.04773 -2.55198,-5.00009 -2.17982,-1.98839 -4.51349,-6.87735 -4.55953,-9.55207 -0.045,-2.61509 -4.91424,-7.55063 -12.6382,-12.81036 -3.67887,-2.50518 -6.90762,-4.55486 -7.17498,-4.55486 -0.26737,0 -2.83753,-1.44684 -5.71149,-3.2152 -4.20299,-2.58614 -6.42166,-3.2152 -11.33974,-3.2152 -3.36292,0 -7.10858,0.53207 -8.3237,1.18239 -1.69631,0.90783 -2.4227,0.84562 -3.12832,-0.26793 -0.77191,-1.21816 -0.92166,-1.21751 -0.93544,0.004 -0.01,0.83705 -0.68559,1.19755 -1.593,0.84934 -0.86711,-0.33275 -2.40008,0.2185 -3.40657,1.225 -1.0065,1.0065 -1.97627,1.73038 -2.15503,1.60862 -0.60091,-0.40926 -8.32442,2.99838 -19.11926,8.43553 -11.63004,5.85781 -23.90344,15.70567 -30.54434,24.50808 -1.4737,1.95325 -4.1062,4.97834 -5.8502,6.72241 -1.7439,1.74406 -3.3154,4.19266 -3.4922,5.44131 -0.1768,1.24865 -1.2819,2.93195 -2.4558,3.74066 -1.1739,0.80872 -2.1344,1.95133 -2.1344,2.53914 0,0.58781 -1.6879,3.84747 -3.751,7.24367 -2.0631,3.3962 -3.7511,7.03841 -3.7511,8.0938 0,1.05539 -0.844,2.85343 -1.8755,3.99566 -1.6255,1.79989 -1.8653,4.3117 -1.7987,18.83971 0.084,18.41243 1.178,23.37191 8.2798,37.54591 3.723,7.43041 12.5333,17.24904 15.5121,17.28736 1.0191,0.0131 3.0585,0.96694 4.5322,2.11963 1.4736,1.15269 3.885,2.11392 5.35862,2.13605 1.47364,0.0221 3.40275,0.50774 4.28693,1.07915 2.04645,1.3225 5.01626,1.33355 11.46838,0.0426 z m 391.33761,-19.17942 c 1.56462,-1.09397 5.5344,-2.29408 8.82172,-2.66689 5.35865,-0.60773 6.63361,-1.28723 12.32493,-6.56873 3.49138,-3.23998 6.70968,-5.89811 7.15177,-5.90697 0.44209,-0.009 0.8038,-0.49286 0.8038,-1.07557 0,-0.58271 0.84399,-2.04518 1.87553,-3.24994 1.03155,-1.20476 1.8432,-2.53653 1.80369,-2.95951 -0.0395,-0.42299 1.28451,-2.2159 2.9423,-3.98426 1.65779,-1.76835 3.01639,-3.73398 3.01911,-4.36805 0.003,-0.63405 1.17189,-2.2491 2.59812,-3.58898 1.42624,-1.33988 3.17076,-3.95592 3.87672,-5.81342 0.70596,-1.8575 1.95044,-4.89699 2.7655,-6.75444 0.81508,-1.85744 1.48195,-3.93559 1.48195,-4.61811 0,-0.68251 0.55262,-0.89941 1.22804,-0.48197 0.86081,0.53201 1.02007,-0.0697 0.53256,-2.01204 -0.38251,-1.52406 -0.19221,-5.11765 0.42288,-7.98577 1.75665,-8.19094 -1.31601,-26.48523 -5.44761,-32.43466 -1.0243,-1.47496 -3.96429,-7.33663 -6.5333,-13.02593 -4.55628,-10.09024 -12.79127,-21.26708 -15.66939,-21.26708 -1.81617,0 -5.94442,-2.35973 -6.99471,-3.99822 -0.46499,-0.72538 -2.95218,-2.55352 -5.5271,-4.06252 -3.76418,-2.20596 -6.38646,-2.81193 -13.38072,-3.09207 -4.78448,-0.19163 -8.93623,0.0354 -9.22613,0.50438 -0.28988,0.46906 -3.29256,1.18722 -6.67263,1.59594 -3.38006,0.4087 -6.74842,1.22494 -7.48523,1.81383 -0.73682,0.5889 -1.33967,0.80626 -1.33967,0.48303 0,-0.32322 -3.18736,1.07368 -7.08304,3.10424 -6.43016,3.35163 -11.52992,7.319 -18.17824,14.14179 -3.18211,3.2656 -9.89278,17.11503 -9.97671,20.58984 -0.0213,0.88418 -0.24454,10.04749 -0.49596,20.36292 -0.60089,24.65321 1.34143,34.7774 7.50482,39.11824 5.08737,3.583 14.29661,13.20036 14.29661,14.93019 0,0.89464 -1.44684,2.3748 -3.2152,3.28926 -1.76836,0.91446 -3.2152,2.31617 -3.2152,3.11494 0,1.32878 5.45836,4.35673 16.61186,9.21517 2.35781,1.02706 5.73377,2.50793 7.50213,3.29081 14.93303,6.61115 18.64579,7.31884 22.8768,4.36055 z m -523.91175,-7.7198 c 0,-0.55466 -0.7234,-1.00848 -1.6076,-1.00848 -1.6573,0 -2.1292,1.2646 -0.9223,2.47158 0.8563,0.85624 2.5299,-0.11167 2.5299,-1.4631 z m 475.55897,-9.15812 c -0.35612,-0.35612 -1.2805,-0.39419 -2.05415,-0.0846 -0.85496,0.34212 -0.60101,0.59608 0.6475,0.6475 1.12978,0.0465 1.76278,-0.20677 1.40665,-0.56289 z m -421.74607,-12.08055 c 4.44,-1.90322 5.0874,-2.61352 5.6799,-6.23113 0.3678,-2.24568 0.9692,-5.5299 1.3365,-7.29825 0.3673,-1.76836 0.5446,-3.67074 0.3941,-4.22752 -0.1505,-0.55677 0.1864,-2.00361 0.7486,-3.2152 0.5622,-1.21158 1.8305,-5.3225 2.8184,-9.13537 2.6421,-10.19735 10.5515,-25.29312 17.5175,-33.43348 9.1334,-10.67335 13.0693,-15.65615 13.1373,-16.6317 0.034,-0.48173 4.1605,-4.25184 9.171,-8.37801 11.5142,-9.48191 12.20263,-10.12111 12.20263,-11.32975 0,-0.54734 1.10925,-0.99518 2.46499,-0.99518 1.35574,0 2.92315,-0.42271 3.48313,-0.93937 1.75472,-1.61895 10.40311,-6.05047 16.87248,-8.64561 5.22035,-2.09411 7.30976,-2.37779 13.12497,-1.78201 5.30097,0.5431 7.68627,0.31039 10.21341,-0.99644 2.25763,-1.16748 4.37066,-1.45736 6.70208,-0.91947 4.64252,1.0711 10.61225,0.5419 12.29828,-1.0902 1.13851,-1.10208 1.01401,-2.40125 -0.6853,-7.15141 -5.21252,-14.57078 -7.54906,-25.61107 -7.5794,-35.81318 -0.007,-2.35781 -0.22078,-6.75515 -0.47501,-9.77185 -0.56054,-6.6511 2.83633,-21.86899 5.17343,-23.17692 0.90154,-0.50452 1.64649,-1.73734 1.65544,-2.73959 0.009,-1.00225 2.30686,-3.51026 5.10644,-5.57334 2.79959,-2.06309 7.18847,-6.03568 9.75307,-8.82798 4.43356,-4.82719 4.62795,-5.31016 3.95182,-9.81885 -0.44983,-2.99969 -1.73679,-5.76764 -3.50279,-7.53363 -4.19527,-4.19527 -14.31619,-10.83808 -18.54874,-12.17437 -5.28033,-1.66711 -21.89112,-1.4394 -29.14646,0.39955 -3.36211,0.85216 -6.49693,1.4431 -6.96626,1.31319 -1.57209,-0.43515 -9.40309,2.58977 -11.57065,4.46945 -1.17891,1.02233 -3.71088,2.5275 -5.6266,3.34481 -1.91572,0.81732 -3.48313,1.85057 -3.48313,2.29613 0,0.44557 -0.9011,0.81012 -2.00244,0.81012 -1.97849,0 -11.93009,9.05754 -11.93009,10.85834 0,0.51189 -0.6235,0.93071 -1.3856,0.93071 -0.7622,0 -2.2873,2.65254 -3.3893,5.89453 -1.102,3.24199 -2.4879,5.89453 -3.0799,5.89453 -0.592,0 -0.759,0.31734 -0.3711,0.70519 0.3879,0.38786 0.2646,1.23605 -0.2739,1.88488 -1.9119,2.30375 -4.361,15.88703 -4.361,24.18752 0,7.4232 -0.3186,8.8038 -2.6793,11.60933 -3.6651,4.35568 -3.3813,6.59836 1.5428,12.19244 l 4.2222,4.79663 -1.9209,3.1586 c -2.4949,4.10264 -1.4941,6.7008 3.9753,10.32032 4.9559,3.27964 12.0076,10.2627 12.0076,11.89068 0,0.60971 2.0764,3.79111 4.6141,7.06978 5.043,6.51549 5.31839,9.33047 1.0184,10.40971 -3.6717,0.92153 -6.872,-2.74494 -9.3936,-10.76178 -1.161,-3.69082 -2.6104,-6.18867 -3.8127,-6.57026 -1.0669,-0.3386 -3.4924,-2.38401 -5.3901,-4.54534 -1.8976,-2.16134 -4.1216,-4.02824 -4.942,-4.14865 -0.8205,-0.12041 -2.197,-0.80419 -3.0589,-1.51951 -1.8521,-1.53715 -6.6544,-4.25827 -13.3306,-7.55355 -4.0242,-1.98631 -6.4199,-2.34955 -14.4684,-2.19372 -16.4485,0.31847 -20.7744,0.78706 -22.7454,2.46385 -1.7084,1.4534 -7.3605,4.282 -10.6554,5.33247 -1.6585,0.52875 -14.2913,12.64295 -14.2913,13.7046 0,0.45636 -0.9645,1.70265 -2.1435,2.76955 -1.1789,1.0669 -2.1434,2.37562 -2.1434,2.90829 0,1.02261 -4.9829,7.76745 -9.7279,13.1677 -1.5538,1.76836 -3.7383,5.50421 -4.8545,8.30191 -1.1162,2.79769 -2.3912,5.08852 -2.8333,5.09073 -0.4421,0.002 -0.8038,0.96858 -0.8038,2.14748 0,1.17891 -0.4822,2.14347 -1.0717,2.14347 -0.5895,0 -1.0717,1.65951 -1.0717,3.68781 0,2.02829 -0.437,3.95789 -0.9712,4.288 -0.5341,0.3301 -0.7061,1.61362 -0.3821,2.85228 0.3458,1.32249 -0.027,2.63323 -0.9044,3.17544 -0.9473,0.5857 -1.4562,2.68661 -1.3916,5.74542 0.056,2.65215 -0.1851,4.64473 -0.5358,4.42797 -0.3508,-0.21677 -0.6377,2.21236 -0.6377,5.39806 0,3.1857 0.3617,5.79219 0.8038,5.79219 0.4421,0 0.8038,1.25623 0.8038,2.79162 0,5.04184 7.5171,18.16928 14.8269,25.89276 10.7191,11.32573 22.8053,19.52669 28.8264,19.55999 1.6319,0.009 3.6686,0.46021 4.526,1.00261 2.4653,1.5595 14.069,0.39829 19.5661,-1.95802 z m 367.71383,0.13521 c -1.0215,-2.86548 -2.586,-4.55487 -4.21814,-4.55487 -3.49113,0 -0.48348,6.31154 3.04485,6.38963 1.30082,0.0288 1.64549,-0.51019 1.17329,-1.83476 z M -804.77262,463.8787 c 0.36579,-0.36581 -0.0885,-0.55448 -1.00969,-0.4193 -0.92114,0.1352 -1.97408,0.54511 -2.33989,0.9109 -0.36579,0.36581 0.0885,0.55448 1.00969,0.4193 0.92114,-0.1352 1.97408,-0.54511 2.33989,-0.9109 z m 80.11951,-192.38221 c 0.28085,0.72806 0.47736,0.11805 0.43669,-1.35558 -0.0407,-1.47363 -2.32992,-6.05529 -5.08722,-10.18146 -2.7573,-4.12617 -5.79845,-9.02385 -6.7581,-10.88372 -0.95965,-1.85988 -2.35892,-4.05214 -3.10947,-4.8717 -2.3365,-2.5513 -5.15463,-8.50028 -4.51612,-9.5334 0.33484,-0.54179 -0.14537,-1.73924 -1.06713,-2.661 -0.92176,-0.92177 -1.67593,-2.3649 -1.67593,-3.20698 0,-0.84207 -0.36171,-1.53657 -0.8038,-1.54334 -0.44209,-0.006 -1.7032,-2.05645 -2.80246,-4.55486 -1.09927,-2.49841 -2.68731,-5.85761 -3.52898,-7.46488 -1.31926,-2.51927 -2.53713,-7.8847 -2.79276,-12.30376 -0.0412,-0.71145 -0.74845,-1.55203 -1.57174,-1.86796 -0.8233,-0.31593 -1.22175,-1.01963 -0.88545,-1.56379 0.33631,-0.54415 0.0747,-2.3561 -0.58129,-4.02656 -0.65602,-1.67047 -1.40747,-5.4486 -1.66988,-8.39587 -0.26241,-2.94726 -0.8606,-6.56436 -1.32929,-8.03799 -0.4687,-1.47363 -0.75571,-3.64389 -0.6378,-4.8228 0.1179,-1.1789 0.53659,-5.27828 0.93042,-9.10972 0.92134,-8.96344 -0.54858,-11.33067 -6.35889,-10.24065 -2.15738,0.40473 -5.01055,1.90988 -6.34038,3.34479 -1.32982,1.43491 -2.78789,2.60893 -3.24015,2.60893 -1.41105,0 -8.04165,7.5742 -8.04165,9.18603 0,0.84221 -0.48228,1.53129 -1.07174,1.53129 -0.58945,0 -1.08704,0.60285 -1.10576,1.33967 -0.0188,0.73681 -1.70669,3.00443 -3.75106,5.03913 -2.04437,2.03472 -3.71704,4.32555 -3.71704,5.09073 0,0.7652 -0.48227,1.39126 -1.07173,1.39126 -0.58945,0 -1.07173,1.11477 -1.07173,2.47725 0,1.36248 -0.96456,3.51257 -2.14347,4.77799 -1.1789,1.2654 -2.14346,2.74805 -2.14346,3.29477 0,0.54672 -0.72045,2.37543 -1.601,4.06381 -0.88054,1.68837 -1.60396,3.91376 -1.6076,4.9453 -0.003,1.03154 -0.51734,1.87553 -1.14158,1.87553 -0.62425,0 -0.86095,0.4434 -0.52602,0.98533 0.33494,0.54194 -0.0328,1.62707 -0.8171,2.4114 -0.78434,0.78434 -1.48106,1.66721 -1.54827,1.96194 -0.0672,0.29472 -0.35088,1.25928 -0.63038,2.14346 -1.93262,6.11369 -3.67548,15.98466 -3.22361,18.25754 0.94324,4.74455 16.42492,19.64839 24.49222,23.57806 1.76835,0.86138 3.45633,1.8313 3.75106,2.15537 1.68519,1.85295 7.54857,5.30873 9.00724,5.30873 0.94055,0 1.71009,0.48228 1.71009,1.07173 0,0.58945 0.3617,0.99517 0.80379,0.90159 0.8805,-0.18638 3.19723,0.63102 8.6609,3.05581 1.9636,0.87143 3.84833,1.30627 4.18832,0.96628 0.33999,-0.33999 1.25202,-0.0921 2.02673,0.55086 0.77471,0.64296 3.83334,1.23266 6.79694,1.31045 2.9636,0.0778 5.38836,0.52346 5.38836,0.99039 0,0.46693 1.65338,0.66677 3.6742,0.44407 2.02081,-0.22268 5.51733,-0.0774 7.77006,0.32295 2.60914,0.46365 5.13516,0.21821 6.95912,-0.67616 2.24987,-1.10323 2.97266,-1.12042 3.3739,-0.0803 z m 168.00399,513.5226 c 0.0514,-1.24851 0.30538,-1.50246 0.6475,-0.64751 0.30959,0.77365 0.27152,1.69803 -0.0846,2.05416 -0.35613,0.35613 -0.60943,-0.27687 -0.5629,-1.40665 z"
       id="path9772"
       inkscape:connector-curvature="0" />
  </g>
</svg>
