<?xml version="1.0" encoding="UTF-8" standalone="no"?>
<!-- Created with Inkscape (http://www.inkscape.org/) -->

<svg
   xmlns:dc="http://purl.org/dc/elements/1.1/"
   xmlns:cc="http://creativecommons.org/ns#"
   xmlns:rdf="http://www.w3.org/1999/02/22-rdf-syntax-ns#"
   xmlns:svg="http://www.w3.org/2000/svg"
   xmlns="http://www.w3.org/2000/svg"
   xmlns:sodipodi="http://sodipodi.sourceforge.net/DTD/sodipodi-0.dtd"
   xmlns:inkscape="http://www.inkscape.org/namespaces/inkscape"
   width="216.49443mm"
   height="191.82149mm"
   viewBox="0 0 767.10625 679.68243"
   id="svg7973"
   version="1.1"
   inkscape:version="0.91 r13725"
   sodipodi:docname="cc_pic_color_5_2.svg"
   inkscape:export-filename="/home/jedi/Dropbox/creative-commons/cc_landing/cc_pic_color_5_2.png"
   inkscape:export-xdpi="79.42836"
   inkscape:export-ydpi="79.42836">
  <defs
     id="defs7975" />
  <sodipodi:namedview
     id="base"
     pagecolor="#ffffff"
     bordercolor="#666666"
     borderopacity="1.0"
     inkscape:pageopacity="0.0"
     inkscape:pageshadow="2"
     inkscape:zoom="0.98994949"
     inkscape:cx="544.95209"
     inkscape:cy="458.45518"
     inkscape:document-units="px"
     inkscape:current-layer="layer1"
     showgrid="false"
     fit-margin-top="0"
     fit-margin-left="0"
     fit-margin-right="0"
     fit-margin-bottom="0"
     inkscape:window-width="1855"
     inkscape:window-height="1056"
     inkscape:window-x="65"
     inkscape:window-y="24"
     inkscape:window-maximized="1" />
  <metadata
     id="metadata7978">
    <rdf:RDF>
      <cc:Work
         rdf:about="">
        <dc:format>image/svg+xml</dc:format>
        <dc:type
           rdf:resource="http://purl.org/dc/dcmitype/StillImage" />
        <dc:title></dc:title>
      </cc:Work>
    </rdf:RDF>
  </metadata>
  <g
     inkscape:label="Layer 1"
     inkscape:groupmode="layer"
     id="layer1"
     transform="translate(1552.2263,-129.97614)">
    <path
       style="fill:#e3f4d7;fill-rule:evenodd;stroke:none;stroke-width:1px;stroke-linecap:butt;stroke-linejoin:miter;stroke-opacity:1"
       d="M -1069.012,394.30143 -946.86916,263.23 l 8.92858,-16.07143 -2.85715,-33.21428 0.35715,-16.07143 -6.42858,-10.35714 -9.28571,0 -11.78571,39.64285 -8.21429,0.35715 -12.14286,-11.42858 -23.21427,-47.14285 -13.2143,-21.07143 -14.2857,-13.57143 c 0,0 -11.4286,0 -12.8572,0 -1.4285,0 -12.5,6.42857 -12.5,6.42857 l 6.4286,13.57143 12.1429,22.5 23.2143,41.42857 6.7857,12.5 -2.1429,17.14286 -8.9286,3.21428 -21.4285,-17.14285 -30.7143,-26.07143 -11.7857,1.42857 -5.7143,7.5 c 0,0 27.8571,29.64286 33.5714,37.85714 5.7143,8.21429 20.3572,51.07143 20.3572,51.07143 0,0 0.3571,9.64286 -2.8572,18.92857 -3.2143,9.28572 -18.2143,44.28572 -18.2143,44.28572 z"
       id="path8542"
       inkscape:connector-curvature="0" />
    <path
       style="fill:#666666;fill-rule:evenodd;stroke:none;stroke-width:1px;stroke-linecap:butt;stroke-linejoin:miter;stroke-opacity:1"
       d="m -1055.4406,455.73 8.9286,16.07143 c 0,0 12.8571,-5.35714 13.9286,-7.5 1.0714,-2.14286 16.4285,-13.57143 16.4285,-13.57143 l 45.00003,-25 22.5,-9.28571 13.57143,-7.14286 17.14286,6.78571 13.92857,9.28572 c 0,0 13.21428,9.64286 13.92857,11.07143 0.71428,1.42857 12.5,0 12.5,0 l 9.64286,-5 -9.64286,-19.64286 -5,-9.64286 10,-8.21428 26.07143,-3.57143 13.21428,-5.35714 2.85715,-11.42858 -19.28572,-10.35714 -0.35714,-6.78571 c 0,0 3.57143,-6.07143 6.42857,-6.07143 2.85714,0 21.42857,-4.64286 21.42857,-4.64286 l 23.21429,-3.21428 11.78571,-10.35715 -3.57143,-10.35714 -6.78571,-3.21429 -16.42857,3.57143 -33.92857,-1.07143 -56.78572,0.35715 z"
       id="path8540"
       inkscape:connector-curvature="0" />
    <path
       style="fill:#aade87;fill-rule:evenodd;stroke:none;stroke-width:1px;stroke-linecap:butt;stroke-linejoin:miter;stroke-opacity:1"
       d="m -1055.0834,457.87286 c 3.9285,-0.71429 62.14282,-51.42857 64.64282,-52.14286 2.5,-0.71428 37.5,-27.14286 37.5,-27.14286 l 17.14285,-3.21428 c 0,0 13.21429,3.92857 15.35715,4.28571 2.14285,0.35715 13.57142,1.78572 17.85714,2.5 4.28571,0.71429 20,-2.5 20,-2.5 l 5.35714,-10.71428 -1.42857,-10.35715 -26.07143,-10.71428 2.85714,-7.85714 30.71429,-8.92858 17.14286,-5.35714 9.64285,-7.5 4.28572,-12.85714 -9.64286,-10.35714 -14.28571,-0.35715 c 0,0 -23.57143,7.5 -25,7.85715 -1.42857,0.35714 -7.85715,-8.21429 -7.85715,-8.21429 l 8.21429,-13.21429 21.42857,-27.14285 13.92857,-20.35715 -3.92857,-11.78571 -7.5,-1.07143 -18.57143,12.85714 -17.14285,23.92858 -11.07143,11.78571 -6.07143,-6.78571 1.07143,-16.42858 -3.92857,-11.78571 -12.85715,4.28571 -18.21428,29.28572 -8.57143,6.07143 -114.64286,155 z"
       id="path8538"
       inkscape:connector-curvature="0"
       sodipodi:nodetypes="csccsscccccccccccsccccccccccccccccc" />
    <path
       style="fill:#71c837;fill-rule:evenodd;stroke:none;stroke-width:1px;stroke-linecap:butt;stroke-linejoin:miter;stroke-opacity:1"
       d="m -1074.7263,428.58714 c 2.8571,-1.78571 32.8571,-21.78571 32.8571,-21.78571 l 46.78576,-37.5 39.28571,-23.57143 19.28572,-6.07143 6.42857,-13.21428 -0.019,-9.50623 -8.55244,-9.42234 -22.85714,6.07142 0.35714,-23.92857 0,-19.28571 -5,-15.71429 -17.14286,-4.28571 -21.07147,48.92857 -9.2857,-0.35714 -20.3571,-26.78572 c 0,0 -34.6429,-4.64285 -32.8572,-3.57143 1.7858,1.07143 30.7143,42.14286 30.7143,42.14286 0,0 7.5,32.14286 7.5,33.57143 0,1.42857 -28.9285,36.07143 -28.9285,36.07143 l -30.7143,32.85714 13.9285,16.78572 z"
       id="path8536"
       inkscape:connector-curvature="0"
       sodipodi:nodetypes="ccccccccccccccccccscccc" />
    <path
       style="fill:#ffcc00;fill-rule:evenodd;stroke:none;stroke-width:1px;stroke-linecap:butt;stroke-linejoin:miter;stroke-opacity:1"
       d="m -1520.7977,799.65857 -20,-10.71428 -2.1429,-22.85714 c 0,0 16.4286,-38.57143 19.2857,-39.28572 2.8572,-0.71428 73.5715,-75.71428 73.5715,-75.71428 l 105,-120 92.8571,-92.14286 63.5714,-37.14286 47.1429,-9.28571 45.7143,12.85714 17.8571,21.42857 23.5714,32.14286 17.8572,35 5.7143,35 -6.4286,25.71428 -9.2857,27.14286 -35.7143,39.28572 -47.1429,29.28571 -47.8571,18.57143 0,-32.14286 c 0,0 -16.4286,-12.85714 -20,-12.85714 -3.5714,0 -22.1429,0.71428 -22.1429,0.71428 l -30.7142,29.28572 -5.7143,2.85714 -11.4286,-5 -18.5714,-0.71428 -22.8572,17.85714 -7.1428,20 8.5714,19.28571 -2.1429,14.28572 -17.1428,10.71428 -37.8572,17.85715 -75.7142,37.85714 -32.1429,10.71428 -22.8571,6.42858 -21.4286,-0.71429 z"
       id="path8534"
       inkscape:connector-curvature="0" />
    <path
       style="fill:#000000"
       d="m -1523.2206,809.21644 c -3.4849,-1.06778 -9.656,-4.19788 -10.659,-5.40649 -0.5262,-0.63407 -1.3743,-1.15286 -1.8846,-1.15286 -2.3422,0 -10.2036,-9.35198 -12.2147,-14.5307 -0.7523,-1.93729 -1.7585,-6.3308 -2.2359,-9.76336 -0.4774,-3.43256 -1.2176,-6.89412 -1.6448,-7.69235 -2.3323,-4.35802 6.9578,-27.09218 13.828,-33.83913 0.8109,-0.79633 2.3374,-2.73217 3.3922,-4.30188 6.2989,-9.37387 11.9083,-16.06871 19.8138,-23.64762 22.2143,-21.29674 47.0392,-46.81385 53.7087,-55.20622 1.3167,-1.6569 3.7524,-4.33155 5.4127,-5.94367 7.2137,-7.00442 23.8123,-24.51365 23.8123,-25.11869 0,-0.36468 1.3243,-1.92761 2.943,-3.47318 1.6186,-1.54557 3.8338,-4.20043 4.9228,-5.89968 1.0889,-1.69926 2.8836,-3.43317 3.9883,-3.85313 1.1045,-0.41998 2.0083,-1.37378 2.0083,-2.11959 0,-0.7458 1.3761,-2.89212 3.0579,-4.76959 3.9146,-4.37003 8.0272,-9.50812 10.3501,-12.93109 1.0047,-1.48056 4.9552,-5.97211 8.7789,-9.98123 3.8237,-4.00912 8.5035,-9.12404 10.3995,-11.36649 1.8961,-2.24245 3.9502,-4.4752 4.5647,-4.96169 0.6146,-0.48647 2.7951,-3.05509 4.8457,-5.70804 2.0505,-2.65295 5.6599,-6.84174 8.0209,-9.30843 2.361,-2.46669 6.1085,-6.68657 8.3279,-9.3775 2.2194,-2.69094 4.6774,-5.37211 5.4622,-5.95814 0.7849,-0.58605 1.427,-1.50716 1.427,-2.04692 0,-0.53977 0.8445,-1.89501 1.8766,-3.01165 1.0322,-1.11664 5.8441,-6.80055 10.6931,-12.63091 16.6,-19.95946 42.2187,-47.12834 52.6701,-55.85731 5.5464,-4.63229 11.0847,-9.5615 23.0208,-20.48893 5.2057,-4.76583 12.3373,-10.69749 15.8479,-13.18149 3.5106,-2.48399 7.1169,-5.20081 8.0138,-6.03738 4.1018,-3.82547 9.2814,-7.09136 20.3859,-12.85387 2.691,-1.39641 5.6265,-2.97211 6.5235,-3.50156 0.897,-0.52943 4.5664,-2.10296 8.1544,-3.49672 6.8205,-2.6495 12.7727,-5.04846 17.4352,-7.02697 6.7847,-2.87905 27.5674,-7.3881 37.1503,-8.06016 7.7401,-0.54283 13.474,0.0359 28.9688,2.92366 10.6017,1.97586 13.8494,3.3795 18.7797,8.11651 3.0106,2.89261 3.6438,3.18825 4.7938,2.23815 12.5616,-10.37819 16.2558,-13.5531 17.6272,-15.14943 0.9006,-1.04823 3.3734,-3.80032 5.4952,-6.11576 2.1218,-2.31544 5.0574,-6.16857 6.5235,-8.56252 1.4661,-2.39394 4.2252,-6.31386 6.1313,-8.71092 1.906,-2.39707 3.4656,-4.86009 3.4656,-5.47337 0,-0.61329 0.4146,-1.5297 0.9214,-2.03647 1.0892,-1.08926 3.9063,-8.97066 3.9445,-11.03579 0.015,-0.79093 0.3508,-2.07525 0.747,-2.85402 2.6749,-5.25836 4.1615,-10.74491 4.1677,-15.38236 0.01,-4.4881 1.5043,-5.7277 4.8386,-4.00345 2.0967,1.08424 2.5049,1.77659 2.5049,4.24855 0,2.88266 -2.8473,12.1371 -4.2091,13.68054 -0.3759,0.42607 -0.6835,1.39303 -0.6835,2.14881 0,4.37972 -4.3292,15.20543 -7.3905,18.48105 -1.3171,1.4093 -2.3947,3.06255 -2.3947,3.67389 0,0.61134 -0.5388,1.82381 -1.1973,2.69439 -1.356,1.79292 -1.6137,3.62145 -0.5101,3.62145 1.4765,0 11.8813,-11.58928 13.7599,-15.32626 1.0607,-2.11006 2.8838,-5.47983 4.0513,-7.48838 3.4244,-5.8909 4.4281,-12.2 3.2859,-20.65472 -0.5428,-4.01859 -2.5107,-8.01892 -6.0853,-12.37038 -1.1132,-1.35513 -4.0446,-5.21596 -6.5142,-8.57963 -2.4696,-3.36367 -5.3001,-6.84966 -6.2902,-7.74664 -0.99,-0.89697 -2.6817,-2.91518 -3.7593,-4.48489 -1.0776,-1.56971 -2.4532,-3.15692 -3.057,-3.52712 -0.6037,-0.3702 -2.2452,-3.1223 -3.6477,-6.11577 -4.007,-8.55225 -4.0068,-19.40603 5e-4,-23.99381 1.5273,-1.74853 6.8141,-1.90839 9.3806,-0.28366 2.009,1.27186 14.5512,4.5647 17.3866,4.5647 0.9984,0 1.9377,0.30694 2.0872,0.6821 0.1495,0.37515 2.2678,1.7651 4.7074,3.08876 2.4397,1.32367 5.0824,3.49361 5.8727,4.82209 0.7904,1.32848 1.9134,3.19174 2.4956,4.14057 0.5822,0.94883 2.055,3.57212 3.2729,5.82952 5.0631,9.38425 8.5709,13.56651 12.1217,14.45236 1.7685,0.44119 2.4825,0.0297 4.4702,-2.57636 1.3011,-1.70578 3.355,-6.0416 4.5644,-9.63517 7.11974,-21.15643 9.69276,-27.67139 12.58977,-31.87772 4.03559,-5.85949 6.66727,-7.31885 10.77311,-5.97403 9.22826,3.0226 19.31605,10.95383 20.76698,16.32741 0.62325,2.30819 2.42268,3.02908 4.31154,1.72728 1.38552,-0.95491 5.77919,-7.7427 6.45775,-9.9766 0.34057,-1.12122 0.92024,-2.41781 1.28815,-2.88129 0.85039,-1.07131 0.98911,-6.98601 0.28145,-12.0004 -0.37515,-2.65825 -0.25756,-3.87332 0.37485,-3.87332 0.50682,0 0.91587,-0.64215 0.909,-1.42701 -0.008,-0.91572 -0.22714,-1.09162 -0.61157,-0.49096 -1.08831,1.70042 -1.01017,-9.11186 0.12512,-17.31473 1.24115,-8.96769 1.34488,-8.28218 -2.48695,-16.43366 -2.12392,-4.51821 -3.26092,-6.02498 -4.8468,-6.42301 -2.79887,-0.70247 -3.31797,0.011 -4.82465,6.63133 -1.9538,8.5849 -2.58671,10.95438 -4.35262,16.29532 -0.88973,2.69093 -1.85876,6.33429 -2.15341,8.09635 -1.08175,6.46929 -9.66042,11.64553 -13.51661,8.15572 -0.89553,-0.81044 -2.34328,-1.5262 -3.21724,-1.59059 -0.87395,-0.0644 -2.2654,-0.7292 -3.09212,-1.47737 -0.82671,-0.74816 -1.79688,-1.3603 -2.15591,-1.3603 -1.37887,0 -7.78086,-7.74148 -7.78086,-9.40884 0,-0.96497 -0.73389,-2.41865 -1.63087,-3.23041 -0.89698,-0.81176 -1.63087,-1.92453 -1.63087,-2.47284 0,-0.54831 -0.55242,-1.45539 -1.22759,-2.01573 -1.48652,-1.2337 -6.52655,-11.81088 -7.29495,-15.30957 -0.3036,-1.3825 -1.0553,-2.93129 -1.6704,-3.44176 -0.6151,-0.51047 -1.3702,-2.09534 -1.678,-3.52195 -0.3078,-1.42659 -1.2487,-3.95524 -2.091,-5.61921 -0.8422,-1.66397 -1.5313,-3.91812 -1.5313,-5.00922 0,-1.09111 -0.5505,-2.19505 -1.2232,-2.45321 -0.6727,-0.25815 -1.2231,-1.19312 -1.2231,-2.0777 0,-0.88459 -0.367,-1.83512 -0.8155,-2.1123 -0.4485,-0.27719 -0.8154,-1.21621 -0.8154,-2.08672 0,-0.87051 -0.5156,-1.58274 -1.1457,-1.58274 -1.2725,0 -5.3778,-6.49134 -5.3778,-8.50342 0,-0.70499 -0.4947,-1.2818 -1.0993,-1.2818 -0.6046,0 -1.7612,-1.46779 -2.5701,-3.26174 -0.809,-1.79396 -1.7875,-3.26175 -2.1745,-3.26175 -0.3869,0 -1.4307,-1.19257 -2.3194,-2.65016 -0.8887,-1.45759 -1.6172,-2.31788 -1.6189,-1.91176 0,0.40613 -0.8286,-0.21108 -1.8377,-1.37158 -1.0091,-1.1605 -3.2379,-3.2172 -4.9528,-4.57045 -2.9484,-2.32653 -3.4588,-2.44607 -9.3775,-2.19607 -3.4427,0.14541 -6.9016,0.49378 -7.6865,0.77416 -0.7848,0.28037 -1.9231,0.66089 -2.5295,0.84558 -1.7151,0.52244 -2.3364,7.29288 -0.9187,10.01104 0.6577,1.26082 1.198,2.88962 1.2007,3.61956 0,0.72994 0.6136,1.83078 1.3574,2.44631 1.7116,1.4164 4.3143,7.07842 4.3378,9.43683 0.01,0.98681 0.5075,2.08765 1.1059,2.4463 1.1926,0.71478 8.4329,11.5885 9.2506,13.89275 0.2805,0.79045 0.9512,1.9876 1.4905,2.66033 0.5393,0.67274 2.043,3.24136 3.3416,5.70805 2.8983,5.50517 5.5867,9.77336 7.2337,11.4845 0.6838,0.71036 1.2432,1.64607 1.2432,2.07936 0,0.43329 0.4422,1.22993 0.9825,1.77031 1.1505,1.1505 4.7941,7.55743 9.8288,17.28324 3.9572,7.64429 4.5393,11.53711 3.08,20.5985 -1.0196,6.33134 -3.8004,10.51526 -8.5012,12.79087 -3.5717,1.72905 -3.7802,1.7409 -6.6521,0.37806 -1.6307,-0.7738 -3.1539,-1.89954 -3.385,-2.50163 -0.231,-0.60208 -1.0847,-1.0947 -1.897,-1.0947 -2.3486,0 -4.0566,-0.8951 -4.0566,-2.12584 0,-0.62474 -0.3617,-1.13591 -0.8038,-1.13591 -0.4421,0 -3.9228,-3.11903 -7.735,-6.93119 -3.8122,-3.81216 -7.2787,-6.9312 -7.7033,-6.9312 -0.4247,0 -1.0051,-0.73389 -1.2898,-1.63087 -0.2847,-0.89698 -0.9516,-1.64888 -1.4819,-1.67088 -0.5304,-0.022 -2.4322,-1.48717 -4.2261,-3.25593 -1.794,-1.76876 -3.61,-3.21854 -4.0356,-3.22174 -0.4257,-0.003 -2.4439,-1.777 -4.4849,-3.9418 -4.6369,-4.91801 -6.8601,-6.366 -11.2957,-7.35719 -5.7207,-1.27838 -10.7626,0.93543 -10.7626,4.72568 0,0.98045 7.9234,9.54725 16.9202,18.29424 3.2516,3.16123 5.9119,6.08711 5.9119,6.50195 0,0.41484 0.6101,1.20032 1.3557,1.74552 1.6808,1.22903 0.9022,3.67341 -1.1701,3.67341 -1.6465,0 -6.709,-4.798 -6.709,-6.35844 0,-0.53926 -0.3618,-0.98047 -0.8039,-0.98047 -0.4421,0 -5.7334,-4.95238 -11.7583,-11.00528 -12.5248,-12.58284 -13.5439,-14.50765 -9.7678,-18.44907 2.2838,-2.38375 11.0332,-7.24023 13.044,-7.24023 2.2007,0 13.6925,6.72125 16.9221,9.89736 1.8547,1.82396 4.6565,4.35869 6.2263,5.63274 1.5697,1.27404 5.7895,4.6848 9.3775,7.57947 6.1423,4.95555 12.8511,11.54753 13.549,13.31315 0.5588,1.41363 10.3681,7.61077 12.047,7.61077 0.8965,0 2.5714,-0.82562 3.722,-1.83472 1.7328,-1.51984 2.2435,-2.98406 2.9752,-8.53121 1.0263,-7.77959 0.095,-11.75094 -4.3727,-18.64191 -1.4531,-2.24146 -4.2648,-7.18135 -6.2481,-10.97753 -1.9833,-3.79618 -4.0226,-7.15606 -4.5317,-7.46639 -0.5092,-0.31033 -2.3725,-3.42936 -4.1406,-6.93119 -1.7682,-3.50183 -3.4408,-6.55044 -3.717,-6.77468 -0.2761,-0.22424 -1.3345,-2.05897 -2.3519,-4.07718 -1.0175,-2.0182 -2.1047,-3.85293 -2.4159,-4.07717 -0.3113,-0.22425 -1.1318,-1.50856 -1.8235,-2.85402 -0.6917,-1.34547 -2.5894,-4.94986 -4.2172,-8.00975 -1.6277,-3.05989 -2.9595,-6.08719 -2.9595,-6.72734 0,-0.64014 -0.5257,-1.1639 -1.1682,-1.1639 -1.2638,0 -2.3963,-2.52887 -2.4953,-5.57185 -0.034,-1.04632 -0.8581,-2.5141 -1.8312,-3.26174 -3.086,-2.37085 -4.7316,-12.72523 -2.4579,-15.4649 0.5486,-0.66099 2.4706,-2.1434 4.2711,-3.29423 2.7915,-1.78418 4.4288,-2.14153 11.1143,-2.42582 6.1133,-0.25996 8.4486,-0.0392 10.6007,1.00235 3.0999,1.50021 11.6836,9.5319 16.6225,15.5535 1.7939,2.18724 3.9039,4.54142 4.6887,5.23151 0.7849,0.69009 1.427,1.58193 1.427,1.98186 0,0.39994 1.6513,3.37649 3.6695,6.61456 2.0182,3.23808 3.6694,6.27036 3.6694,6.73841 0,0.46806 0.5505,1.30782 1.2232,1.86614 0.6727,0.55832 1.2231,1.83141 1.2231,2.8291 0,0.99769 0.7339,2.66015 1.6309,3.69438 0.897,1.03422 1.6309,2.38144 1.6309,2.9938 0,0.61236 0.8851,2.84963 1.9669,4.9717 1.08174,2.12207 2.9484,6.05998 4.14811,8.75092 3.5277,7.91265 8.03276,17.09205 8.60428,17.53185 0.2914,0.22425 1.01091,1.32509 1.59892,2.44631 1.7826,3.39908 7.58061,9.87325 9.93023,11.08829 2.74286,1.41838 7.1307,1.49048 7.54341,0.12394 0.1693,-0.56061 1.20742,-3.95486 2.30692,-7.54277 2.83788,-9.26063 3.51713,-11.97076 5.38666,-21.49193 1.10696,-5.63762 2.1295,-8.78959 3.07595,-9.48165 0.77976,-0.57018 3.5751,-1.26217 6.21185,-1.53776 3.82684,-0.39999 5.18837,-0.21446 6.74819,0.91957 1.07475,0.78137 1.96561,1.67454 1.97971,1.98482 0.0141,0.31029 1.47404,3.6128 3.24432,7.33891 3.64369,7.66929 4.21354,11.55459 3.2062,21.86032 -0.76673,7.84411 -0.74106,7.32956 -0.76257,15.28941 -0.0145,5.36188 0.13484,5.9119 1.60522,5.9119 0.89166,0 1.91464,-0.5007 2.27329,-1.11267 0.76392,-1.30349 4.60846,-3.32673 7.75315,-4.08022 2.32172,-0.55629 8.79993,1.53083 8.79993,2.83513 0,0.39979 0.68663,1.41351 1.52584,2.25273 0.95827,0.95827 1.83083,3.61226 2.34581,7.13505 0.69503,4.75445 0.58837,6.3548 -0.69988,10.50184 -1.84314,5.93328 -1.91877,8.04877 -0.33478,9.36336 1.94784,1.61657 5.60292,-0.20015 10.11526,-5.02769 5.36112,-5.73559 8.24907,-9.30098 8.24907,-10.18407 0,-0.3962 0.73389,-1.34873 1.63087,-2.11675 0.89698,-0.76802 1.63087,-2.11564 1.63087,-2.99472 0,-0.87909 0.64215,-1.97236 1.42701,-2.4295 0.78486,-0.45714 1.1466,-0.84232 0.80386,-0.85595 -0.34272,-0.0136 0.37573,-1.58432 1.59658,-3.4904 4.36148,-6.80948 10.32769,-13.63383 13.21518,-15.11597 1.61454,-0.82873 4.40331,-2.28637 6.19727,-3.23919 5.58773,-2.9678 6.94884,-2.98552 11.23534,-0.14626 2.13678,1.41534 4.79458,4.12534 5.90622,6.02221 2.18045,3.72066 2.70743,9.22432 1.04264,10.88912 -0.53819,0.53818 -0.69563,0.97852 -0.34987,0.97852 0.34575,0 -1.28614,3.57328 -3.62642,7.94062 -4.53478,8.46261 -10.06636,15.88067 -17.67087,23.69731 -10.94117,11.2464 -13.15103,13.95578 -16.55022,20.29133 -3.09012,5.7595 -3.47015,6.98699 -2.77708,8.96979 1.44665,4.13872 5.71491,3.48271 22.26575,-3.42211 9.47218,-3.95169 19.67212,-4.36308 23.11614,-0.93234 0.58079,0.57856 2.66682,2.21741 4.63562,3.6419 4.2563,3.07955 5.77306,5.71726 6.16399,10.71939 0.20193,2.58375 0.68434,3.78628 1.59265,3.97007 2.16506,0.43809 1.46152,1.77428 -0.93948,1.78429 -1.80955,0.007 -2.54525,0.64135 -3.81108,3.28321 -2.28736,4.77386 -1.46043,5.18642 8.20348,4.09276 14.82073,-1.67725 20.17268,-2.65348 23.07502,-4.20905 1.75516,-0.94071 4.51833,-1.5454 7.0618,-1.5454 3.4988,0 4.7107,0.43097 7.4521,2.65016 6.1686,4.99367 8.1734,7.96729 8.3875,12.44099 0.1071,2.23937 0.1474,4.54263 0.09,5.11835 -0.1389,1.3819 -4.7756,5.88442 -6.0597,5.88442 -0.5532,0 -2.2836,0.86815 -3.8453,1.92921 -1.5617,1.06106 -4.1238,2.19791 -5.6935,2.52635 -1.5697,0.32843 -3.58788,1.04048 -4.48486,1.58236 -3.18713,1.92535 -11.5568,3.69342 -21.53567,4.54933 -12.27388,1.05276 -18.89547,3.71752 -20.65428,8.312 -0.61807,1.61457 0.31552,2.40231 4.55649,3.84472 3.99901,1.36011 9.25307,4.90224 12.22994,8.24507 1.78052,1.99939 2.5179,3.9313 3.16524,8.29281 l 0.84395,5.68617 -3.12686,3.2022 c -1.77751,1.82033 -3.906,3.2022 -4.93236,3.2022 -0.99302,0 -3.57891,0.76384 -5.74641,1.69741 -5.38761,2.32055 -10.22919,3.98451 -11.635,3.99877 -0.64383,0.007 -2.03402,-0.79928 -3.08933,-1.79069 l -1.91872,-1.80255 -0.47802,1.82792 c -0.44237,1.69165 -0.86244,1.80651 -5.63457,1.5407 -2.83611,-0.15797 -4.97035,0.0141 -4.74275,0.38235 0.2276,0.36826 -0.0665,0.7119 -0.6536,0.76363 -0.58708,0.0517 -1.43437,0.17931 -1.88286,0.28352 -0.44849,0.10419 -1.27411,0.24534 -1.83473,0.31365 -0.56061,0.0683 -1.01929,0.67462 -1.01929,1.34736 0,0.67273 -0.35849,1.22315 -0.79664,1.22315 -0.43815,0 -1.41802,0.94836 -2.1775,2.10746 -1.208,1.84365 -1.24582,2.48161 -0.30213,5.09647 0.59329,1.64396 2.55915,4.54405 4.36858,6.44466 1.80942,1.90061 4.73242,6.10311 6.49554,9.3389 l 3.20569,5.88324 -1.50943,2.80282 c -1.91254,3.55138 -6.59194,6.67661 -10.35758,6.9175 -1.60159,0.10246 -3.16434,0.43865 -3.47278,0.74709 -0.30843,0.30844 -1.24644,0.19385 -2.08444,-0.25464 -1.41081,-0.75503 -1.86209,-0.45515 -1.62022,1.07668 0.23721,1.50233 -7.36432,-0.86841 -8.45788,-2.63781 -0.28137,-0.45528 -1.31557,-0.83418 -2.2982,-0.842 -1.14644,-0.009 -4.24732,-2.48891 -8.65412,-6.92074 -3.77713,-3.79859 -7.53833,-7.11943 -8.35821,-7.37966 -0.81989,-0.26022 -1.49069,-0.77556 -1.49069,-1.14521 0,-0.36964 -1.00911,-0.92363 -2.24245,-1.23109 -1.23335,-0.30744 -3.34329,-1.03489 -4.68875,-1.61655 -6.24288,-2.69884 -12.51446,-3.92085 -17.25507,-3.36213 -2.61892,0.30867 -5.77914,0.66487 -7.0227,0.79156 -1.24357,0.1267 -3.12963,0.9856 -4.19127,1.90868 -1.06164,0.92308 -2.79628,1.92454 -3.85475,2.22548 -2.2464,0.63867 -3.81937,1.33347 -15.60212,6.8917 -4.83177,2.27927 -9.28192,4.14412 -9.88924,4.14412 -0.60731,0 -1.54432,0.53031 -2.08225,1.17847 -0.53792,0.64815 -2.74137,1.76414 -4.89655,2.47998 -2.15518,0.71584 -4.51227,1.95763 -5.23799,2.75952 -0.7257,0.8019 -3.24574,2.29607 -5.60009,3.32038 -2.35434,1.02431 -4.83103,2.17655 -5.50377,2.56053 -0.67273,0.38398 -2.69096,1.45471 -4.48486,2.3794 -5.7207,2.94874 -12.5519,7.52869 -21.6091,14.48766 -3.6731,2.82223 -12.9433,9.15951 -13.3985,9.15951 -0.2449,0 -1.1833,0.63197 -2.0854,1.40438 -1.7013,1.45665 -2.1768,3.87581 -0.9151,4.65555 0.3988,0.24649 0.9736,1.43833 1.2774,2.64856 0.3037,1.21023 1.2096,3.14016 2.013,4.28874 0.8033,1.14858 1.657,3.00569 1.897,4.12691 0.2399,1.12122 1.4103,5.52457 2.6007,9.78522 4.6112,16.50306 4.7041,17.24842 4.3222,34.656 -0.2435,11.09867 -0.6995,17.02507 -1.4272,18.55114 -1.3327,2.79466 -2.4384,2.88711 -2.4384,0.20386 0,-1.64514 -0.4041,-2.03858 -2.0936,-2.03858 -1.8006,0 -2.0117,-0.25665 -1.5088,-1.83473 0.3215,-1.0091 0.6868,-5.68766 0.8116,-10.3968 0.1248,-4.70914 0.4797,-9.57117 0.7885,-10.80452 0.3252,-1.29865 0.2264,-2.24244 -0.2347,-2.24244 -0.4625,0 -0.7587,-2.90135 -0.7066,-6.92252 0.058,-4.44799 -0.238,-7.04809 -0.8268,-7.27381 -0.5039,-0.19322 -1.1789,-1.75664 -1.5,-3.47428 -0.321,-1.71764 -0.8699,-3.48993 -1.2197,-3.93842 -0.736,-0.94341 -2.0475,-6.79526 -1.9018,-8.4858 0.054,-0.63079 -0.4198,-1.66554 -1.0537,-2.29947 -0.634,-0.63392 -1.3758,-2.13603 -1.6486,-3.33801 -0.4716,-2.07842 -1.88,-5.20134 -5.2145,-11.56293 -0.8228,-1.56971 -2.3445,-5.0557 -3.3816,-7.74663 -1.037,-2.69094 -3.2097,-6.72734 -4.8281,-8.96979 -1.6184,-2.24245 -3.3973,-4.93183 -3.9531,-5.97641 -0.5558,-1.04458 -1.5061,-2.51236 -2.1117,-3.26174 -4.4038,-5.44937 -9.3731,-12.46741 -9.3731,-13.23731 0,-0.50906 -1.0091,-1.92464 -2.2425,-3.14575 -1.2333,-1.2211 -3.5267,-3.83792 -5.0965,-5.81514 -1.5697,-1.97721 -4.1206,-4.70307 -5.6687,-6.05746 -1.5481,-1.35438 -4.5021,-4.22803 -6.5644,-6.3859 -2.8059,-2.93582 -4.6631,-4.1243 -7.3782,-4.72158 -1.9957,-0.439 -5.1563,-1.88425 -7.0236,-3.21166 -1.8673,-1.32742 -3.6784,-2.41349 -4.0246,-2.41349 -0.3463,0 -1.3871,-0.66769 -2.313,-1.48377 -1.0016,-0.88281 -5.9568,-2.41362 -12.2345,-3.77958 -9.3694,-2.0387 -11.5076,-2.23397 -19.0921,-1.74362 -16.224,1.04891 -30.9225,5.77523 -51.4932,16.55779 -3.364,1.76331 -7.9509,3.88736 -10.193,4.72011 -2.2421,0.83275 -4.9939,2.1361 -6.1151,2.89634 -1.1213,0.76024 -3.7816,2.17155 -5.9119,3.13624 -2.1304,0.96471 -3.8734,2.10235 -3.8734,2.52811 0,0.42577 -1.1203,1.35348 -2.4896,2.06158 -1.3694,0.7081 -3.1778,1.9101 -4.0188,2.6711 -2.1918,1.98341 -3.1495,2.68798 -8.1694,6.01001 -2.4667,1.63239 -5.5626,4.10309 -6.8799,5.49043 -1.3172,1.38735 -2.6928,2.52246 -3.0568,2.52246 -0.3641,0 -2.7723,2.02328 -5.3517,4.49618 -2.5794,2.47291 -9.2213,8.2523 -14.7599,12.84311 -10.2213,8.47221 -17.2788,15.188 -32.8185,31.22948 -8.1602,8.42366 -11.3619,11.97892 -19.0844,21.19159 -1.794,2.14012 -5.1029,5.94206 -7.3532,8.44872 -2.2503,2.50667 -5.1676,6.02536 -6.4829,7.81932 -3.2294,4.40478 -11.1622,13.60116 -16.8815,19.57044 -2.5783,2.69094 -6.9415,7.64471 -9.696,11.00838 -6.6506,8.12122 -12.712,14.86067 -21.3577,23.74668 -3.9255,4.03455 -8.5763,9.42395 -10.3351,11.97645 -1.7588,2.5525 -4.8917,6.47564 -6.9621,8.71808 -2.0703,2.24245 -6.5831,7.56316 -10.0284,11.82381 -3.4454,4.26065 -9.9438,11.44801 -14.441,15.9719 -12.331,12.40418 -34.908,36.14174 -38.3233,40.29313 -1.6603,2.0182 -12.4774,13.02657 -24.038,24.46305 -11.5606,11.43648 -22.5971,22.99527 -24.5256,25.68621 -1.9285,2.69093 -5.5865,6.91081 -8.1288,9.3775 -4.5867,4.45018 -13.8697,16.53809 -16.908,22.01675 -2.6575,4.79216 -2.875,7.04196 -1.0741,11.11317 1.45,3.2779 1.5001,3.84956 0.4314,4.91823 -2.7975,2.7975 -0.5351,11.59397 4.3125,16.76806 1.9916,2.12565 7.2724,4.34212 11.6025,4.86983 1.3486,0.16436 2.485,1.14204 3.3577,2.8889 2.5139,5.03221 3.0318,5.32567 8.4331,4.77843 2.7091,-0.27446 7.4942,-0.68748 10.6336,-0.91782 15.3216,-1.12411 32.5452,-5.26206 38.7332,-9.30559 1.1212,-0.73267 3.5064,-1.82268 5.3003,-2.42227 3.117,-1.04178 5.8968,-2.23659 15.901,-6.83454 19.313,-8.8763 26.2386,-11.99401 26.643,-11.99401 0.2578,0 3.4504,-1.51706 7.0948,-3.37126 3.6445,-1.85419 7.7271,-3.93039 9.0725,-4.61378 1.3455,-0.68339 3.3637,-1.87292 4.4849,-2.64341 1.1213,-0.77049 6.075,-3.51124 11.0084,-6.09056 4.9334,-2.57932 9.3367,-4.96691 9.7852,-5.30576 0.9036,-0.68268 24.7621,-12.66985 30.6324,-15.39059 2.0477,-0.94904 4.2949,-1.72552 4.9938,-1.72552 3.0358,0 15.8703,-8.4976 19.6891,-13.03599 3.0437,-3.61733 2.7902,-6.80267 -1.2502,-15.70698 -3.0971,-6.82556 -3.4551,-8.28976 -3.7596,-15.37692 -0.3502,-8.15319 0.1393,-10.04508 4.5136,-17.44548 7.0655,-11.95337 21.8689,-23.03823 33.1854,-24.84936 6.7997,-1.08824 15.9635,1.25075 15.9635,4.07458 0,0.43815 0.5583,0.79664 1.2406,0.79664 0.6824,0 2.6866,0.95686 4.4538,2.12637 l 3.2132,2.12636 2.3332,-1.92251 c 1.2833,-1.05738 3.1827,-3.26203 4.2209,-4.89924 1.0383,-1.63719 3.3966,-4.61206 5.2407,-6.61083 1.8441,-1.99875 5.4534,-5.9426 8.0207,-8.76411 6.2563,-6.87591 11.8201,-10.92572 17.52,-12.75248 5.0902,-1.63138 13.7604,-1.90582 16.7682,-0.53077 0.9987,0.45657 3.2836,1.29344 5.0775,1.85971 10.1838,3.21454 21.0607,10.99639 23.187,16.58899 0.4776,1.25621 0.8684,6.82307 0.8684,12.37079 0,5.54772 0.3736,11.06952 0.8303,12.27066 0.8765,2.30549 0.6881,2.29141 7.324,0.54742 5.3386,-1.40303 36.5298,-15.93078 40.1817,-18.71519 0.5488,-0.41842 2.2821,-1.26735 3.8518,-1.88651 1.5697,-0.61916 3.4788,-1.68976 4.2424,-2.37912 0.7636,-0.68934 3.5157,-2.35419 6.1157,-3.69966 2.6001,-1.34547 4.8498,-2.72151 4.9993,-3.05788 0.1495,-0.33637 0.7734,-0.61158 1.3865,-0.61158 0.6131,0 1.4081,-0.46857 1.7668,-1.04127 0.3586,-0.57271 2.3033,-2.29672 4.3215,-3.83115 4.5192,-3.43592 8.7751,-7.13209 18.6775,-16.22098 14.8298,-13.61152 15.909,-14.79237 22.3151,-24.41641 1.3999,-2.10321 3.0051,-4.10701 3.5671,-4.4529 0.5619,-0.34588 2.0161,-2.45582 3.2314,-4.68875 1.2153,-2.23292 2.5183,-4.05987 2.8955,-4.05987 0.3772,0 0.6858,-0.73389 0.6858,-1.63087 0,-0.89697 0.2752,-1.63373 0.6116,-1.63723 0.7681,-0.008 2.6414,-3.97032 2.6761,-5.66039 0.014,-0.69544 0.5647,-1.97674 1.2231,-2.84731 0.6585,-0.87058 1.1973,-2.08936 1.1973,-2.70841 0,-0.61905 0.5422,-1.66779 1.205,-2.33053 0.6627,-0.66275 1.7262,-1.94921 2.3633,-2.85881 1.0972,-1.56639 1.2441,-1.58048 2.7786,-0.26658 1.3903,1.1904 1.5062,1.80677 0.8173,4.34406 -0.4416,1.62626 -1.3168,3.53614 -1.9449,4.24419 -0.6282,0.70805 -1.1422,2.07489 -1.1422,3.03743 0,2.08071 -4.6519,10.90771 -8.8377,16.76938 -4.3111,6.03721 -10.8633,14.71726 -11.4682,15.19269 -0.2854,0.22425 -2.897,3.11753 -5.8036,6.42951 -6.7666,7.71037 -10.5571,11.51007 -11.482,11.51007 -0.4037,0 -0.7339,0.33198 -0.7339,0.73772 0,0.40575 -2.9356,3.05462 -6.5235,5.88638 -3.5879,2.83175 -6.5235,5.41953 -6.5235,5.7506 0,0.90024 -10.6682,9.17661 -13.2508,10.27993 -1.2333,0.52691 -2.2424,1.33283 -2.2424,1.79094 0,0.4581 -0.3329,0.83291 -0.7397,0.83291 -0.4068,0 -3.2506,1.65052 -6.3196,3.66782 -3.069,2.0173 -6.0776,3.66856 -6.6858,3.66946 -0.6082,8.2e-4 -2.4429,1.05349 -4.0772,2.33907 -1.6342,1.28559 -3.7638,2.58411 -4.7324,2.8856 -0.9686,0.30149 -2.2061,1.08439 -2.75,1.73975 -0.5439,0.65537 -1.5172,1.19157 -2.1628,1.19157 -1.1538,0 -9.2769,3.44054 -11.6734,4.9443 -2.6531,1.66474 -14.5691,7.28723 -15.4442,7.28723 -0.5112,0 -2.3715,0.73564 -4.1339,1.63475 -1.7624,0.89912 -5.2817,2.17584 -7.8207,2.83717 -4.1836,1.08967 -4.8303,1.07605 -6.898,-0.14538 -1.2549,-0.74128 -2.4431,-1.96533 -2.6405,-2.72011 -0.1973,-0.75477 -0.3451,-7.78865 -0.3284,-15.63084 l 0.031,-14.25852 -2.3798,-3.04407 c -1.7199,-2.19989 -4.7489,-4.19492 -10.9225,-7.19402 -7.7414,-3.76075 -9.1427,-4.1715 -14.9408,-4.37961 -6.9888,-0.25084 -10.7351,1.04524 -14.4495,4.99905 -1.045,1.11233 -2.2096,2.02243 -2.5881,2.02243 -0.878,0 -16.1518,15.59372 -16.1518,16.49008 0,1.66543 -7.3255,8.40452 -11.0083,10.12715 -4.0801,1.90844 -8.1869,2.50452 -8.698,1.2625 -0.1495,-0.36328 -2.2039,-2.17636 -4.5652,-4.02906 -6.2501,-4.90375 -10.9497,-5.26823 -20.8196,-1.61464 -6.1532,2.27779 -17.4479,12.79339 -21.3331,19.86165 -2.5694,4.67457 -2.8512,5.83298 -2.9949,12.31383 -0.145,6.53513 0.062,7.6021 2.3924,12.33669 1.403,2.85057 2.967,5.684 3.4753,6.29651 1.8081,2.17857 2.2624,6.69272 1.0385,10.31686 -1.5684,4.64404 -5.569,10.46249 -8.7237,12.68774 -1.4081,0.99329 -4.2115,3.06524 -6.2297,4.60434 -2.0182,1.53908 -4.3745,2.8227 -5.2361,2.85248 -0.8617,0.0298 -2.146,0.55711 -2.854,1.17186 -0.7081,0.61475 -3.856,1.9465 -6.9955,2.95945 -3.1394,1.01295 -6.2873,2.3447 -6.9954,2.95945 -0.708,0.61475 -1.8789,1.11773 -2.602,1.11773 -0.7231,0 -1.524,0.33871 -1.7799,0.75269 -0.2558,0.41399 -1.6535,1.00357 -3.106,1.31017 -1.4524,0.30661 -4.5377,1.80262 -6.8562,3.32448 -2.3184,1.52185 -4.7504,2.76701 -5.4043,2.76701 -0.6539,0 -1.6458,0.55042 -2.2041,1.22315 -0.5583,0.67273 -1.5417,1.22315 -2.1854,1.22315 -0.6436,0 -2.8921,0.96858 -4.9966,2.1524 -2.1045,1.18382 -5.4776,3.06295 -7.4958,4.17583 -2.0182,1.11288 -5.5042,3.04398 -7.7467,4.29132 -4.8408,2.69268 -13.8857,7.56595 -19.5704,10.54429 -6.5982,3.45695 -15.0435,7.1574 -22.3865,9.80898 -3.7727,1.36236 -7.4346,2.97723 -8.1375,3.58858 -0.7029,0.61136 -2.7458,1.58054 -4.5397,2.15373 -1.794,0.5732 -4.0153,1.5319 -4.9362,2.13047 -0.921,0.59856 -3.6731,1.7875 -6.1158,2.64207 -2.4427,0.85458 -6.7141,2.69434 -9.492,4.08839 -2.7779,1.39403 -5.967,2.53461 -7.087,2.53461 -1.1199,0 -2.2629,0.36695 -2.5401,0.81544 -0.2772,0.44849 -1.3263,0.81543 -2.3314,0.81543 -1.005,0 -2.278,0.4507 -2.8289,1.00156 -0.664,0.66405 -4.5343,1.07096 -11.4849,1.2075 -5.7659,0.11327 -11.5349,0.62099 -12.8201,1.12825 -2.7558,1.08772 -20.9987,1.67871 -23.9457,0.77574 z m 483.3025,-345.13013 c 3.3902,-1.96138 10.8819,-7.66967 14.1129,-10.75334 4.9024,-4.67885 14.0864,-10.04864 34.656,-20.26301 5.38187,-2.67251 10.33564,-5.19297 11.00837,-5.60102 0.67274,-0.40805 3.97525,-2.13542 7.33892,-3.83861 3.36367,-1.70317 7.40007,-3.83046 8.96978,-4.7273 1.56972,-0.89684 5.23917,-2.48579 8.15435,-3.531 2.91518,-1.04521 7.13506,-2.73038 9.37751,-3.74481 10.62632,-4.80712 16.13366,-4.84934 27.9554,-0.21427 11.35204,4.4509 13.16454,5.72107 24.93559,17.47432 4.51451,4.50768 10.11001,6.32461 15.2414,4.94908 5.36084,-1.43705 7.58466,-3.2471 6.87443,-5.59536 -0.90706,-2.999 -5.25501,-9.88225 -7.48665,-11.85212 -1.11567,-0.98481 -1.80407,-2.15369 -1.52976,-2.59751 0.27429,-0.44383 -0.33393,-1.67658 -1.3516,-2.73944 -2.3135,-2.41624 -3.8889,-5.12539 -3.8889,-6.68761 0,-1.70207 3.77444,-7.07869 6.36837,-9.07164 4.40577,-3.38502 12.21703,-5.50019 21.35643,-5.78299 10.91639,-0.33779 12.21053,-0.52021 14.68094,-2.06944 1.11952,-0.70207 3.05391,-1.51294 4.29867,-1.80195 3.8451,-0.89276 5.63107,-3.33382 5.00051,-6.83472 -0.68125,-3.78241 -1.47559,-4.78336 -5.37442,-6.7724 -1.71184,-0.87331 -3.11244,-1.94733 -3.11244,-2.3867 0,-0.43938 -1.002,-0.79887 -2.22668,-0.79887 -1.22468,0 -4.09528,-0.77448 -6.3791,-1.72107 -3.58797,-1.48713 -4.26335,-2.1367 -4.96852,-4.77866 -1.07737,-4.03636 -0.3658,-5.66579 4.77623,-10.93718 3.58293,-3.67308 5.25962,-4.7112 9.90327,-6.13163 3.49878,-1.07025 7.81906,-1.70995 11.54821,-1.70995 7.78029,0 16.06818,-1.65783 25.80506,-5.16182 12.67439,-4.56109 12.51499,-4.44637 12.45309,-8.96048 -0.1004,-7.32508 -5.5854,-9.52954 -15.56381,-6.25525 -3.86113,1.26698 -8.22647,1.93594 -14.14643,2.16787 -4.70914,0.18448 -10.58027,0.46034 -13.04696,0.61299 -2.4667,0.15266 -6.55361,-0.0851 -9.08203,-0.52844 -4.28901,-0.75199 -4.86288,-0.65422 -8.56207,1.45862 -2.18071,1.24554 -4.51535,2.67702 -5.18809,3.18105 -2.06406,1.54648 -6.62835,2.77383 -13.45468,3.618 -6.11024,0.75561 -25.67426,6.67429 -27.92865,8.44921 -1.49555,1.17748 -1.24201,4.50815 0.40772,5.35601 0.78485,0.40338 2.92035,0.92291 4.74555,1.15453 4.36097,0.5534 13.47156,4.60634 17.03678,7.57899 2.90741,2.42417 3.85186,4.864 4.0911,10.56863 0.15159,3.61472 -1.46387,8.56206 -2.79578,8.56206 -0.47138,0 -0.85704,0.48177 -0.85704,1.0706 0,1.35589 -3.73664,4.84163 -6.9312,6.46579 -2.75175,1.39903 -9.45364,2.84622 -17.93958,3.87382 -5.36739,0.64996 -10.08295,0.11745 -14.67783,-1.65749 -0.89698,-0.34649 -4.01602,-1.23325 -6.9312,-1.97059 -4.88157,-1.23468 -7.38645,-2.10406 -10.60065,-3.67921 -0.67274,-0.32968 -3.73835,-0.29646 -6.81248,0.0738 -5.3055,0.63906 -6.23717,1.10522 -18.34729,9.18017 -7.01688,4.6788 -13.62718,9.26433 -14.68955,10.19004 -1.06237,0.92573 -2.71363,1.92771 -3.66946,2.22663 -0.95583,0.29893 -2.77513,1.41066 -4.04289,2.47052 -1.26774,1.05985 -2.80063,1.92701 -3.40641,1.92701 -0.60577,0 -1.823,0.91736 -2.70495,2.03859 -0.88196,1.12122 -1.9581,2.03858 -2.39143,2.03858 -0.43333,0 -2.09845,1.19258 -3.70027,2.65017 -1.60181,1.45759 -5.38611,4.48489 -8.40958,6.72734 -3.0234,2.24244 -6.4427,5.04184 -7.5984,6.22088 -3.0188,3.07966 -13.2901,10.87045 -22.4376,17.01902 -9.1292,6.13618 -13.0866,9.6309 -13.9358,12.30645 -0.332,1.04595 -1.4426,2.5617 -2.4681,3.36835 -1.8295,1.43909 -1.8389,1.52755 -0.5018,4.71143 1.6124,3.83907 3.383,4.16163 8.0435,1.46531 z m -8.8072,-17.50904 c 2.515,-2.09651 4.9398,-4.2268 5.3882,-4.73398 0.4485,-0.50718 3.2006,-2.36895 6.1158,-4.13726 2.9152,-1.76832 5.7852,-3.67443 6.3779,-4.23581 0.5926,-0.56137 1.3621,-1.02068 1.7099,-1.02068 0.3479,0 1.5142,-0.77856 2.592,-1.73014 3.6771,-3.2467 13.1415,-10.90324 17.2923,-13.98919 2.2786,-1.69404 4.7147,-3.60506 5.4134,-4.2467 4.26265,-3.91416 8.10097,-6.94333 8.79805,-6.94333 0.44352,0 2.10842,-1.19257 3.69977,-2.65016 4.11335,-3.76759 7.55936,-6.32377 11.03558,-8.18599 1.65858,-0.8885 4.29335,-2.4833 5.85504,-3.544 1.56171,-1.06071 3.13689,-1.92855 3.50042,-1.92855 0.36354,0 2.71093,-1.55952 5.21644,-3.4656 2.50551,-1.90608 5.13179,-3.83254 5.83617,-4.28103 0.70439,-0.44849 2.39995,-1.93678 3.76793,-3.30729 3.90158,-3.90886 9.42966,-5.63539 17.98048,-5.61567 6.313,0.0146 8.30784,0.39032 14.27011,2.68793 13.60144,5.24144 19.60089,5.77224 31.80197,2.81369 6.26628,-1.51946 9.88793,-3.52398 11.89214,-6.5821 2.25849,-3.44611 1.1599,-10.79016 -1.6141,-10.79016 -0.59437,0 -2.4371,-0.92049 -4.09495,-2.04555 -1.65785,-1.12505 -4.73637,-2.41573 -6.84114,-2.86818 -9.60445,-2.06461 -16.72352,-8.64018 -15.33667,-14.16581 0.79871,-3.18233 6.4005,-6.08505 20.47962,-10.61207 8.10436,-2.60589 13.0484,-3.74123 16.2919,-3.74123 3.28819,0 8.2187,-1.57741 15.57896,-4.98414 7.40495,-3.42742 10.6615,-6.52408 12.15706,-11.56017 1.19735,-4.03191 1.17638,-4.2481 -0.68432,-7.05832 -2.29856,-3.47151 -8.1106,-6.56847 -12.32702,-6.56847 -3.66843,0 -15.66782,3.63281 -20.51858,6.21199 -3.11159,1.65443 -8.82405,3.30964 -10.19811,2.95491 -0.28354,-0.0732 -1.9348,-0.21457 -3.66946,-0.31417 -2.36911,-0.13602 -3.84591,-0.87762 -5.93484,-2.98026 -2.48261,-2.4989 -2.78687,-3.29204 -2.83634,-7.3937 -0.052,-4.31552 0.24063,-5.02612 4.81952,-11.70169 2.6812,-3.90894 5.51708,-7.32791 6.30193,-7.59772 0.78486,-0.26981 1.42701,-0.86093 1.42701,-1.31359 0,-0.45267 2.34911,-3.27177 5.22023,-6.26467 9.24721,-9.63944 11.17492,-11.897 13.35028,-15.63459 1.17464,-2.01821 2.88925,-4.42193 3.81026,-5.34162 3.24731,-3.24263 7.7786,-14.18064 7.75253,-18.71372 -0.0204,-3.54352 -1.48767,-4.89805 -5.26253,-4.85806 -5.00221,0.053 -12.41258,4.27013 -16.3087,9.28104 -1.79396,2.30726 -4.27084,5.25505 -5.50418,6.55063 -1.23335,1.29559 -2.24332,2.65905 -2.24439,3.02992 -0.005,1.78503 -9.80781,15.29611 -15.49133,21.35179 -7.86715,8.38231 -11.84544,9.49237 -16.79429,4.68611 -3.50834,-3.40726 -4.19969,-6.91165 -2.52921,-12.82041 1.60601,-5.68079 2.47174,-12.43902 1.84597,-14.41062 -0.78669,-2.47864 -3.99548,-3.54636 -7.15795,-2.3818 -1.47487,0.54312 -3.24501,1.35444 -3.93363,1.80293 -2.10097,1.36834 -7.06657,7.97621 -8.38306,11.1556 -2.22147,5.36492 -9.40111,15.7075 -12.2189,17.60185 -2.61321,1.75681 -2.84052,2.31601 -4.60196,11.3213 -1.01913,5.21027 -2.19586,10.6167 -2.61496,12.0143 -0.41909,1.39761 -0.96202,5.15359 -1.20651,8.34665 -0.4362,5.69698 -0.40567,5.81529 1.6328,6.32691 1.17989,0.29613 3.58871,-0.0368 5.57575,-0.77055 1.92414,-0.71056 5.79622,-1.80995 8.60464,-2.4431 6.95896,-1.56888 10.06915,-0.32465 14.26038,5.70486 1.68183,2.41949 3.05788,4.75259 3.05788,5.18466 0,0.43207 0.51817,1.21563 1.15151,1.74124 2.10026,1.74306 3.24867,8.74795 2.19927,13.41472 -0.75306,3.34886 -1.87117,5.14623 -5.64186,9.06921 -6.71972,6.99111 -15.92421,11.93993 -28.69546,15.42818 -5.26972,1.43934 -20.54617,8.42048 -21.0654,9.62662 -0.1495,0.34727 -0.75765,0.6314 -1.35145,0.6314 -0.5938,0 -2.67315,1.74353 -4.6208,3.8745 -1.94764,2.13098 -4.91471,4.79134 -6.59347,5.91191 -1.67877,1.12057 -3.05482,2.42743 -3.05789,2.90414 -0.007,1.11419 -3.89319,4.82628 -6.52904,6.23679 -3.996,2.13838 -8.8569,5.96939 -9.6134,7.57656 -0.4227,0.89823 -3.037,2.91643 -5.8095,4.4849 -6.5651,3.71403 -19.2731,12.56115 -22.9026,15.94442 -1.5697,1.46325 -5.4226,4.38667 -8.562,6.49647 -3.1395,2.10981 -7.3975,5.23878 -9.4623,6.95328 -3.5212,2.92374 -4.0401,3.10001 -8.3582,2.83942 -3.1662,-0.19107 -4.604,0.0245 -4.604,0.69043 0,0.53255 2.4392,4.25864 5.4204,8.28019 2.9813,4.02155 6.1366,8.50449 7.0118,9.96208 0.8752,1.45759 2.1576,2.65017 2.8498,2.65017 0.6922,0 3.3164,-1.71534 5.8314,-3.81185 z m -23.3499,-26.17643 c 1.4815,-3.13978 6.1083,-7.34522 15.3073,-13.91326 2.9282,-2.09078 6.2307,-4.65819 7.3389,-5.70535 1.1081,-1.04715 3.1156,-2.47348 4.4611,-3.1696 2.3734,-1.22796 7.45,-4.95192 10.4345,-7.65418 0.8057,-0.72944 2.8239,-2.01704 4.4849,-2.86134 4.487,-2.28069 12.2075,-7.48813 12.5282,-8.45025 0.3069,-0.92056 6.5584,-5.55084 14.0165,-10.38146 2.6233,-1.69909 7.1254,-5.1075 10.00472,-7.57424 2.87931,-2.46674 7.15456,-5.465 9.50054,-6.6628 7.47886,-3.81851 17.09897,-8.04678 20.10677,-8.83743 14.41621,-3.78951 13.18661,-3.29533 23.85525,-9.58762 6.54452,-3.85992 7.10293,-4.70321 7.27583,-10.98763 0.17781,-6.46317 -1.3291,-9.51809 -4.79245,-9.71561 -3.92381,-0.22379 -6.28001,0.18539 -7.11626,1.2358 -1.57491,1.97822 -7.77522,3.78363 -12.99416,3.78363 -5.18148,0 -5.23564,-0.024 -8.54557,-3.78427 -3.76154,-4.27333 -3.86155,-4.97403 -2.42778,-17.00933 0.48087,-4.0364 0.88468,-8.07281 0.89738,-8.96979 0.0127,-0.89698 0.51159,-6.36554 1.10864,-12.15238 0.93116,-9.02492 0.91977,-10.88072 -0.0801,-13.04696 -3.15057,-6.8263 -6.16831,-9.45665 -10.84941,-9.45665 -1.92744,0 -2.79068,0.62175 -4.24552,3.05788 -1.00438,1.68184 -2.16999,4.34219 -2.59022,5.91191 -1.98069,7.3984 -4.6129,19.62255 -5.13824,23.86225 -0.32027,2.58474 -0.89592,4.89335 -1.27922,5.13025 -0.3833,0.23689 -1.4153,2.05474 -2.29333,4.03967 -2.30251,5.2052 -8.59647,11.65764 -11.99277,12.2948 -4.5572,0.85493 -6.6613,-0.24188 -13.2973,-6.9316 -4.8625,-4.90195 -7.1889,-8.07932 -9.9656,-13.61145 -4.5162,-8.99747 -7.2163,-11.08094 -16.1155,-12.43533 -7.6389,-1.16258 -10.6828,-1.18776 -10.6828,-0.0884 0,1.70203 4.7087,7.99573 15.6152,20.87157 2.3291,2.7496 5.0764,6.57298 6.1052,8.49641 1.0287,1.92342 2.2113,3.71016 2.6278,3.97052 1.0081,0.63007 7.4538,14.25638 7.4538,15.75739 0,0.6474 0.769,3.34447 1.7089,5.9935 2.5127,7.08164 2.6225,17.84372 0.2531,24.79457 -2.8504,8.36184 -6.5646,14.40144 -12.1198,19.70761 -2.034,1.94276 -3.6996,3.90523 -3.7014,4.36104 -0.01,2.2145 -11.7825,13.02709 -20.3891,18.7245 -3.4154,2.26097 -14.4404,10.88861 -17.0265,13.32418 -0.628,0.59151 -2.0078,1.64281 -3.0661,2.33623 -1.0583,0.69342 -1.9241,1.78967 -1.9241,2.4361 0,1.08137 4.6995,6.00325 5.6859,5.95498 0.2364,-0.0116 1.0746,-1.38762 1.8628,-3.05788 z m 100.08872,-152.66919 c -0.73494,-0.47496 -0.83552,-0.79545 -0.25198,-0.80295 0.53414,-0.007 1.19795,0.35446 1.47513,0.80295 0.62569,1.01238 0.3434,1.01238 -1.22315,0 z m 32.61741,146.71667 c 0,-0.38643 -0.55042,-0.49139 -1.22316,-0.23324 -0.67273,0.25816 -1.22315,0.78555 -1.22315,1.17197 0,0.38644 0.55042,0.49139 1.22315,0.23324 0.67274,-0.25816 1.22316,-0.78554 1.22316,-1.17197 z m -528.64363,345.25939 c -0.2341,-0.37885 -0.6786,-2.15381 -0.9877,-3.94435 -1.6842,-9.75695 -6.0301,-18.25024 -10.2282,-19.98914 -3.2299,-1.33786 -3.5302,-2.94703 -1.1358,-6.08626 2.4394,-3.19816 3.4661,-3.68177 7.8163,-3.68177 2.7681,0 3.8673,0.58965 7.4948,4.02039 4.5933,4.34419 9.4364,12.94587 10.0843,17.91041 0.4664,3.57441 -0.8866,7.42486 -2.6091,7.42486 -0.6949,0 -1.6123,0.91737 -2.0386,2.03859 -0.5108,1.34349 -1.4075,2.04239 -2.63,2.04972 -1.0202,0.007 -2.6391,0.22157 -3.5976,0.47876 -0.9585,0.25719 -1.9342,0.15765 -2.1684,-0.22121 z m 84.087,-42.29313 c -1.5736,-0.85308 -2.5328,-2.38634 -3.4355,-5.4915 -1.4393,-4.95102 -5.81,-10.49604 -9.4672,-12.0109 -5.1829,-2.14686 -5.5998,-7.23679 -0.8238,-10.05809 8.6722,-5.12279 22.8171,5.72887 24.2701,18.61948 0.348,3.08771 0.1877,3.50122 -1.5397,3.97199 -1.0605,0.28901 -2.6621,1.68957 -3.5591,3.11235 -1.9842,3.14729 -2.6472,3.37337 -5.4448,1.85667 z m 67.0322,-118.02981 c -1.1091,-0.5612 -3.1308,-3.03268 -4.4927,-5.49217 -2.04,-3.68424 -3.3364,-4.92995 -7.3609,-7.07325 -2.6867,-1.4308 -5.9857,-3.2071 -7.3312,-3.94733 -1.3454,-0.74024 -3.4242,-2.74153 -4.6195,-4.44733 l -2.1733,-3.10144 2.1733,-2.01931 c 4.6136,-4.28678 6.0344,-4.79198 10.5475,-3.75024 4.588,1.05904 14.0403,7.94876 17.6876,12.89246 2.7542,3.73308 5.4537,11.09987 4.8902,13.34499 -0.4384,1.74687 -4.4247,4.6503 -6.3512,4.62601 -0.5243,-0.007 -1.8607,-0.47118 -2.9698,-1.03239 z m 177.8413,-36.00516 c -1.8663,-0.99885 -1.9099,-1.2802 -1.7785,-11.47602 l 0.1347,-10.45207 -4.3797,-4.14787 c -2.4089,-2.28133 -5.0389,-5.15697 -5.8446,-6.39032 -1.3439,-2.05713 -1.3521,-2.24244 -0.1,-2.24244 0.7508,0 1.1576,-0.33561 0.9041,-0.74579 -0.2535,-0.41018 0.8092,-1.53074 2.3615,-2.49014 7.1737,-4.43361 18.0548,3.10785 21.9216,15.19349 1.3368,4.17807 1.2809,6.04079 -0.3998,13.32093 -1.4543,6.29946 -3.1863,8.96978 -5.8181,8.96978 -1.2729,0 -2.9385,0.33399 -3.7013,0.7422 -0.8982,0.48074 -2.0608,0.38148 -3.3,-0.28175 z m 101.0155,-11.87654 c 0,-0.44849 0.3669,-0.81543 0.8154,-0.81543 0.4485,0 0.8154,0.36694 0.8154,0.81543 0,0.44849 -0.3669,0.81544 -0.8154,0.81544 -0.4485,0 -0.8154,-0.36695 -0.8154,-0.81544 z m -30.8133,-10.75355 c -0.5438,-0.5438 -0.9887,-1.82497 -0.9887,-2.84705 0,-1.02208 -0.9405,-4.66011 -2.0901,-8.08449 -1.1495,-3.42439 -1.8876,-6.75369 -1.6402,-7.39844 0.2475,-0.64475 0.098,-0.95473 -0.3323,-0.68885 -0.4302,0.26588 -1.027,-0.54069 -1.3263,-1.79238 -0.2992,-1.25169 -0.8881,-2.71378 -1.3087,-3.2491 -0.4206,-0.53531 -1.2493,-2.81056 -1.8417,-5.05611 -1.3319,-5.04893 -0.3064,-7.16482 3.0626,-6.31924 1.7861,0.44827 2.2059,1.13442 2.6928,4.40128 0.3173,2.12861 1.0506,4.60409 1.6295,5.50107 3.8554,5.97329 6.7883,25.32446 3.9778,26.24494 -0.4653,0.1524 -1.2909,-0.16784 -1.8347,-0.71163 z m -168.8434,-27.61741 c -1.0526,-0.42669 -2.8154,-1.48506 -3.9175,-2.35193 -1.102,-0.86687 -4.4322,-2.38427 -7.4003,-3.372 -3.4279,-1.14072 -6.3965,-2.79575 -8.1374,-4.5367 -1.5075,-1.50745 -3.0586,-2.74082 -3.447,-2.74082 -0.3884,0 -0.8377,-1.65472 -0.9986,-3.67715 -0.2366,-2.97485 -0.014,-3.76564 1.1673,-4.14044 0.8028,-0.25481 2.396,-1.39966 3.5405,-2.5441 1.8152,-1.81521 2.5664,-2.02294 5.8857,-1.62754 4.4362,0.52847 9.8074,3.37032 14.3887,7.6129 1.7847,1.65276 5.0872,4.1965 7.3389,5.65278 2.2517,1.45627 5.7284,4.33192 7.7261,6.39033 2.8727,2.96011 3.4225,3.95209 2.6298,4.74481 -0.722,0.72195 -1.3957,0.76312 -2.4089,0.14719 -5.2871,-3.21387 -6.9637,-3.92813 -7.2603,-3.09306 -1.1715,3.29846 -5.524,4.98827 -9.107,3.53573 z m 95.9874,-57.81615 c -1.5097,-1.77513 -4.0293,-4.84537 -5.599,-6.82275 -2.6225,-3.30359 -5.2104,-5.32587 -12.8272,-10.02384 -4.6575,-2.87266 -5.5703,-4.07787 -4.2726,-5.64147 1.6184,-1.95011 5.1968,-0.95206 10.1045,2.81829 7.6387,5.86841 12.1577,11.03072 12.9056,14.74293 0.2259,1.12122 1.0116,3.41463 1.746,5.09647 0.7345,1.68183 1.1896,3.05788 1.0116,3.05788 -0.1781,0 -1.5591,-1.45238 -3.0689,-3.22751 z m 279.80326,-172.90648 c 0,-0.44849 0.36695,-0.81544 0.81544,-0.81544 0.44849,0 0.81543,0.36695 0.81543,0.81544 0,0.44849 -0.36694,0.81544 -0.81543,0.81544 -0.44849,0 -0.81544,-0.36695 -0.81544,-0.81544 z"
       id="path8532"
       inkscape:connector-curvature="0" />
  </g>
</svg>
