<?xml version="1.0" encoding="UTF-8" standalone="no"?>
<!-- Created with Inkscape (http://www.inkscape.org/) -->

<svg
   xmlns:dc="http://purl.org/dc/elements/1.1/"
   xmlns:cc="http://creativecommons.org/ns#"
   xmlns:rdf="http://www.w3.org/1999/02/22-rdf-syntax-ns#"
   xmlns:svg="http://www.w3.org/2000/svg"
   xmlns="http://www.w3.org/2000/svg"
   xmlns:sodipodi="http://sodipodi.sourceforge.net/DTD/sodipodi-0.dtd"
   xmlns:inkscape="http://www.inkscape.org/namespaces/inkscape"
   width="172.96248mm"
   height="178.27415mm"
   viewBox="0 0 612.85918 631.68007"
   id="svg10491"
   version="1.1"
   inkscape:version="0.91 r13725"
   sodipodi:docname="cc_pic_color_7.svg"
   inkscape:export-filename="/home/jedi/Dropbox/creative-commons/cc_landing/cc_pic_color_7.png"
   inkscape:export-xdpi="85.468246"
   inkscape:export-ydpi="85.468246">
  <defs
     id="defs10493" />
  <sodipodi:namedview
     id="base"
     pagecolor="#ffffff"
     bordercolor="#666666"
     borderopacity="1.0"
     inkscape:pageopacity="0.0"
     inkscape:pageshadow="2"
     inkscape:zoom="0.35"
     inkscape:cx="1923.2492"
     inkscape:cy="-531.30292"
     inkscape:document-units="px"
     inkscape:current-layer="layer1"
     showgrid="false"
     fit-margin-top="0"
     fit-margin-left="0"
     fit-margin-right="0"
     fit-margin-bottom="0"
     inkscape:window-width="1855"
     inkscape:window-height="1056"
     inkscape:window-x="65"
     inkscape:window-y="24"
     inkscape:window-maximized="1" />
  <metadata
     id="metadata10496">
    <rdf:RDF>
      <cc:Work
         rdf:about="">
        <dc:format>image/svg+xml</dc:format>
        <dc:type
           rdf:resource="http://purl.org/dc/dcmitype/StillImage" />
        <dc:title></dc:title>
      </cc:Work>
    </rdf:RDF>
  </metadata>
  <g
     inkscape:label="Layer 1"
     inkscape:groupmode="layer"
     id="layer1"
     transform="translate(2032.5349,630.62081)">
    <g
       transform="matrix(5.0146947,0,0,5.0146947,-1546.0843,-48507.913)"
       id="g10474">
      <path
         sodipodi:nodetypes="cccccccccccccccccccccccccccc"
         inkscape:connector-curvature="0"
         id="path10465"
         d="m -46.325757,9573.174 c -8.179109,1.2524 -14.400424,-2.2567 -22.451889,0.1539 4.066361,-2.2132 -3.699071,2.629 -5.066829,4.0279 -6.743518,5.3847 -10.626014,11.3617 -13.698287,19.6462 -3.928983,9.7285 -5.194229,20.728 -3.094747,31.0161 2.132762,8.106 5.113435,16.2822 11.178725,22.3129 7.513908,8.5008 18.9271,14.1561 29.344632,17.5142 10.022494,2.7228 20.548402,1.8913 30.574806,-0.2898 7.337266,-1.2723 11.8725935,-3.1845 18.397457,-6.8124 -3.5542854,2.3808 -2.4905113,0.8627 0.3297886,-0.5363 11.1087924,-6.5953 19.5790314,-20.7568 20.1375964,-33.937 1.296274,-11.9242 0.342228,-25.1586 -7.055082,-35.0555 -9.0993368,-9.5691 -20.0567915,-14.9291 -33.18574,-13.605 -2.626335,1.2247 -2.170593,-0.011 0.01569,-0.6173 -1.723291,1.6561 -6.751433,2.384 -2.329438,0.1041 9.893884,-5.416 19.0781105,-1.3579 28.5756296,3.126 7.9268234,3.9229 14.7733584,10.777 16.6453194,19.6559 3.249679,10.6162 2.767136,22.1964 0.166618,32.8905 -2.844293,10.4079 -10.65562,21.0464 -19.6842361,26.5398 -10.1714531,7.0765 -19.4567929,10.715 -31.6980629,12.1982 -10.313562,1.836 -20.99425,0.938 -30.810388,-2.7425 -9.860485,-3.4093 -20.275881,-10.1916 -26.258157,-19.2578 -8.121401,-10.8071 -11.457049,-25.1338 -8.966699,-38.4316 1.664283,-11.8221 4.87972,-23.1209 14.776495,-30.0893 2.140856,-2.1661 8.82362,-6.989 8.821299,-6.5579 -1.388477,0.2679 5.361306,-3.7601 7.371468,-4.1845 7.344224,-2.0016 17.034825,-0.5421 24.870907,1.1445 1.811424,0.714 -6.488739,1.3694 -6.906876,1.7867 z"
         style="opacity:1;fill:#1a1a1a;fill-opacity:1;stroke:#1a1a1a;stroke-width:1.87122607;stroke-linecap:round;stroke-linejoin:round;stroke-miterlimit:4;stroke-dasharray:none;stroke-opacity:1" />
      <path
         sodipodi:nodetypes="zssssaz"
         inkscape:connector-curvature="0"
         id="path3846-4-8-5-3"
         d="m 22.028977,9618.2321 c 1.918833,20.3138 -16.2511499,48.1495 -45.936929,51.6937 -29.685787,3.5443 -58.679527,-10.5374 -66.377279,-41.8395 -7.139394,-29.0317 9.655646,-51.4438 29.005743,-56.66 17.388383,-4.6873 27.945871,7.7705 38.42878,7.0596 5.03413,-0.3414 20.2761689,-0.701 27.7942096,4.9601 10.3198574,7.7709 15.1666184,14.4722 17.0854754,34.7861 z"
         style="opacity:1;fill:#ffff00;fill-opacity:1;stroke:none" />
      <path
         sodipodi:nodetypes="cssscaassassscscascsscsacssscsssssacacsc"
         inkscape:connector-curvature="0"
         id="path3874-38-1-9-4"
         d="m -35.720372,9574.234 c 0,0 0.978344,-0.9945 -5.130623,-0.704 -6.108958,0.2905 -16.357457,5.0603 -15.850604,11.1432 0.50686,6.0832 2.264201,6.1335 1.989603,10.7976 -0.196762,3.3421 -2.293205,6.3177 -2.293205,6.3177 0,0 4.088264,-2.727 5.219974,-4.803 2.068735,-3.7952 -0.561676,-9.46 2.209142,-12.7774 2.41903,-2.8962 4.256301,-4.0009 10.633259,-3.8846 6.376946,0.1163 3.902702,4.1481 3.196312,6.2408 -0.698674,2.07 -1.169323,4.137 -0.384297,5.9702 1.275978,2.9796 3.21035,2.8231 7.454233,6.2443 5.211189,4.2007 4.179318,3.2975 2.910436,-1.8169 -1.268866,-5.1145 -7.996577,-4.9007 -3.970155,-9.7697 4.026422,-4.8691 4.283557,-7.821 4.283557,-7.821 0,0 4.565765,-0.2591 7.132646,4.7003 2.566856,4.9596 -1.322506,10.7918 -1.322506,10.7918 0,0 4.259118,-2.1128 5.310549,-4.0827 1.219234,-2.2842 1.110072,-4.5318 0.506322,-7.751 -0.603759,-3.2192 -5.333953,-7.9204 -5.333953,-7.9204 0,0 0.417225,-2.038 3.23925,-4.1302 2.822042,-2.0923 5.166141,-2.3588 9.1376086,-2.1747 3.9714673,0.1841 6.74825231,1.3885 6.74825231,1.3885 0,0 -0.5913491,-3.8766 -3.87395991,-5.7344 -1.7064834,-0.9657 -5.9590536,-2.5701 -8.978643,-2.0264 -4.6171,0.8313 -10.304834,4.6321 -11.785663,7.6925 -1.291931,-2.5143 1.357231,-5.2781 2.282585,-7.8368 1.291372,-3.5707 0.143905,-8.8182 -3.679015,-11.4335 -3.822919,-2.6155 -7.532694,-2.9837 -11.513858,-1.4112 -3.981172,1.5723 -6.544924,5.828 -6.544924,5.828 0,0 3.296639,0.046 5.35666,-1.0784 2.060004,-1.1237 5.253334,-1.9438 7.406948,-0.4456 2.153616,1.4982 4.565522,5.1598 2.660468,7.5814 -1.905038,2.4216 -4.407416,5.3533 -4.442951,6.8935 -0.03549,1.5402 -0.04783,-5.2416 -8.640271,-7.0051 -4.572678,-0.9384 -9.068844,3.0572 -13.727819,2.7673 -2.767748,-0.1722 -7.888554,-2.6422 -7.888554,-2.6422 0.16195,2.0091 2.084058,5.2012 4.309029,6.597 3.623113,2.2727 11.051482,1.3772 12.725508,1.6422 0,0 2.899523,-1.4432 6.160618,0.1422 3.261112,1.5853 4.488041,4.5107 4.488041,4.5107 z"
         style="fill:#5aa02c;fill-rule:evenodd;stroke:#1a1a1a;stroke-width:2.26594114;stroke-linecap:round;stroke-linejoin:round;stroke-miterlimit:4;stroke-dasharray:none;stroke-opacity:1" />
    </g>
  </g>
</svg>
