<?xml version="1.0" encoding="UTF-8" standalone="no"?>
<!-- Created with Inkscape (http://www.inkscape.org/) -->

<svg
   xmlns:dc="http://purl.org/dc/elements/1.1/"
   xmlns:cc="http://creativecommons.org/ns#"
   xmlns:rdf="http://www.w3.org/1999/02/22-rdf-syntax-ns#"
   xmlns:svg="http://www.w3.org/2000/svg"
   xmlns="http://www.w3.org/2000/svg"
   xmlns:sodipodi="http://sodipodi.sourceforge.net/DTD/sodipodi-0.dtd"
   xmlns:inkscape="http://www.inkscape.org/namespaces/inkscape"
   width="125.08765mm"
   height="153.57671mm"
   viewBox="0 0 443.22394 544.16943"
   id="svg7356"
   version="1.1"
   inkscape:version="0.91 r13725"
   sodipodi:docname="cc_pic_color_5_1.svg"
   inkscape:export-filename="/home/jedi/Dropbox/creative-commons/cc_landing/cc_pic_color_5_1.png"
   inkscape:export-xdpi="99.233795"
   inkscape:export-ydpi="99.233795">
  <defs
     id="defs7358" />
  <sodipodi:namedview
     id="base"
     pagecolor="#ffffff"
     bordercolor="#666666"
     borderopacity="1.0"
     inkscape:pageopacity="0.0"
     inkscape:pageshadow="2"
     inkscape:zoom="0.7"
     inkscape:cx="148.53483"
     inkscape:cy="170.98687"
     inkscape:document-units="px"
     inkscape:current-layer="layer1"
     showgrid="false"
     fit-margin-top="0"
     fit-margin-left="0"
     fit-margin-right="0"
     fit-margin-bottom="0"
     inkscape:window-width="1855"
     inkscape:window-height="1056"
     inkscape:window-x="65"
     inkscape:window-y="24"
     inkscape:window-maximized="1" />
  <metadata
     id="metadata7361">
    <rdf:RDF>
      <cc:Work
         rdf:about="">
        <dc:format>image/svg+xml</dc:format>
        <dc:type
           rdf:resource="http://purl.org/dc/dcmitype/StillImage" />
        <dc:title></dc:title>
      </cc:Work>
    </rdf:RDF>
  </metadata>
  <g
     inkscape:label="Layer 1"
     inkscape:groupmode="layer"
     id="layer1"
     transform="translate(693.37178,-147.03881)">
    <path
       style="fill:#ffff00;fill-rule:evenodd;stroke:none;stroke-width:1px;stroke-linecap:butt;stroke-linejoin:miter;stroke-opacity:1"
       d="m -687.31086,416.95183 c -0.50508,-4.04061 9.09137,-52.52793 9.09137,-52.52793 l 30.80965,-45.45687 50.00255,-28.28427 39.39595,3.03046 17.67767,10.10152 c 0,0 5.55584,-12.6269 8.08122,-13.13198 2.52538,-0.50508 4.54569,2.52538 4.54569,2.52538 l 13.13198,-9.09137 20.70813,-7.07107 9.59645,4.54569 29.7995,13.63706 47.98224,9.09137 29.29443,-5.05076 24.74873,19.19289 c 0,0 9.59645,2.52539 15.15229,10.60661 5.55584,8.08122 11.11168,15.15228 11.11168,15.15228 l 15.65736,4.04061 31.31473,3.03046 11.61676,8.08122 7.07107,8.5863 1.01015,18.68782 5.05076,22.22336 0,27.27412 -6.06091,27.77919 -10.60661,34.85026 -36.87056,89.90358 -40.91118,72.22591 -19.1929,9.09137 -28.78935,-3.53553 -23.73858,6.06091 c 0,0 -24.24366,13.13198 -28.78935,10.6066 -4.54569,-2.52538 -29.7995,-7.57614 -37.88072,-9.59645 -8.08122,-2.0203 -35.35534,-24.24366 -38.3858,-25.75889 -3.03046,-1.51522 -36.36549,3.03046 -41.41625,3.53554 -5.05076,0.50507 -41.92133,-8.08122 -42.93148,-11.11168 -1.01016,-3.03046 -30.80966,-37.88072 -30.80966,-37.88072 l -17.67767,-46.46702 13.13199,-3.53553 8.08122,-15.65737 14.14213,-6.56599 c 0,0 7.07107,-6.06091 7.07107,-9.09137 0,-3.03046 -3.53553,-16.16244 -3.53553,-16.16244 l -15.65737,-12.62691 11.61676,-9.09137 4.04061,-9.09137 -11.11168,-12.62691 -27.7792,-4.54569 5.05077,-26.76904 -14.64722,-18.68782 z"
       id="path7919"
       inkscape:connector-curvature="0" />
    <path
       style="fill:#8dd35f;fill-rule:evenodd;stroke:none;stroke-width:1px;stroke-linecap:butt;stroke-linejoin:miter;stroke-opacity:1"
       d="m -533.2626,290.17768 14.14213,11.61676 21.21321,6.06091 c 0,0 19.1929,1.01015 21.2132,0 2.02031,-1.01015 22.22336,-6.56599 24.24366,-8.58629 2.02031,-2.02031 17.67767,-20.20306 17.67767,-20.20306 l 10.10153,-27.27411 7.07107,-23.23351 0.50507,-27.7792 -10.10152,-14.14213 -18.18275,-2.52538 -16.66752,4.54568 -24.24366,22.22336 -12.6269,1.01015 -10.60661,-9.59645 -13.13198,-2.52538 4.54569,-11.61675 27.27412,-17.67767 37.37564,-14.64722 20.70813,-7.07106 19.69797,4.54568 16.16244,8.08122 10.6066,11.11168 4.54569,22.72843 0.50508,17.1726 -11.61676,30.80965 -12.12183,38.89087 -1.51523,26.26397 9.59645,13.63706 13.13199,3.53553 17.17259,0 18.18274,-10.6066 1.51523,8.5863 -2.0203,21.2132 -11.11168,16.16244 -17.67767,-9.59645 -29.29442,-4.04061 -28.78935,12.12183 -25.75889,8.5863 -20.20305,-0.50508 -16.66752,-10.10152 -19.69797,-20.20305 -11.11168,-15.65737 -10.10153,-21.2132 z"
       id="path7917"
       inkscape:connector-curvature="0" />
    <path
       style="fill:#000000"
       d="m -464.88839,690.1767 c -9.40675,-2.44524 -17.01451,-5.19747 -19.01218,-6.87797 -1.10181,-0.92688 -2.26758,-1.68523 -2.59058,-1.68523 -0.323,0 -1.92329,-1.11621 -3.55619,-2.48046 -1.6329,-1.36426 -3.35698,-2.48046 -3.83128,-2.48046 -0.47431,0 -1.51845,-0.61124 -2.32034,-1.35831 -0.80188,-0.74707 -3.0147,-2.16823 -4.91737,-3.15814 -1.90271,-0.98991 -6.17021,-3.72031 -9.48341,-6.06756 -3.3132,-2.34723 -7.4591,-4.99225 -9.2131,-5.87781 -1.7541,-0.88556 -3.3486,-1.81362 -3.5435,-2.06235 -0.1949,-0.24873 -2.7059,-1.15098 -5.5799,-2.00498 -6.9056,-2.05197 -11.7845,-1.63988 -20.9965,1.77343 -13.3208,4.93577 -14.4324,5.27381 -16.4281,4.99612 -8.985,-1.25013 -12.6427,-1.98596 -14.4069,-2.89827 -1.1271,-0.58284 -2.4761,-1.0597 -2.9977,-1.0597 -0.5216,0 -2.1994,-0.63784 -3.7285,-1.41741 -1.5291,-0.77957 -3.2048,-1.41741 -3.7237,-1.41741 -0.519,0 -2.9838,-1.10156 -5.4773,-2.44792 -6.7501,-3.64458 -6.7679,-3.65364 -11.3064,-5.75733 -2.8973,-1.34301 -6.1517,-3.85617 -10.4533,-8.07269 -3.4354,-3.36742 -6.2462,-6.4934 -6.2462,-6.94661 0,-0.45322 -1.3554,-2.37294 -3.012,-4.26605 -1.6566,-1.89311 -4.1131,-5.01319 -5.459,-6.93351 -1.3458,-1.92032 -3.4994,-5.00001 -4.7858,-6.84376 -2.7805,-3.98531 -5.4646,-8.6702 -9.6515,-16.84576 -1.6968,-3.31318 -4.1181,-7.93747 -5.3808,-10.27619 -3.1406,-5.81708 -7.7945,-19.78092 -8.8872,-26.66608 -0.1625,-1.02381 -0.9774,-3.31218 -1.8109,-5.08526 -1.1905,-2.53281 -1.3502,-3.53236 -0.7448,-4.66352 1.064,-1.98808 4.9572,-2.56378 10.0414,-1.48484 4.934,1.04709 8.2972,0.34103 11.4639,-2.40669 1.7135,-1.48682 2.0584,-2.47388 2.637,-7.54717 0.6014,-5.27282 0.5346,-6.00332 -0.6915,-7.56206 -2.7451,-3.48991 0.3084,-5.48754 3.5477,-2.32095 1.504,1.47011 2.8379,2.09584 4.4307,2.07829 6.8428,-0.0754 15.3174,-10.75336 14.2319,-17.9321 -0.3106,-2.05383 -1.1659,-3.6437 -2.8165,-5.23546 -2.4147,-2.32865 -9.9274,-6.42374 -14.5044,-7.90618 -1.7885,-0.57929 -2.8769,-1.54167 -3.7032,-3.27453 -1.4548,-3.05064 -1.0842,-4.05046 2.4703,-6.66444 4.2858,-3.15182 12.5589,-11.34944 13.7201,-13.59486 2.493,-4.82102 0.9195,-7.35327 -6.9942,-11.25563 -5.6279,-2.7752 -11.5255,-4.30809 -14.8621,-3.86291 -3.9483,0.5268 -9.1339,2.35361 -11.2688,3.96988 -4.7809,3.61943 -9.0907,3.1213 -10.9223,-1.26241 -0.96,-2.29762 -0.9565,-2.68622 0.034,-3.781 0.6073,-0.67111 1.1042,-1.46476 1.1042,-1.76369 0,-0.29892 0.6518,-1.45884 1.4485,-2.57759 0.7966,-1.11876 1.9453,-3.71932 2.5527,-5.77903 0.6074,-2.05971 1.3477,-4.06384 1.6451,-4.45363 1.5044,-1.97201 1.9162,-12.06239 0.6362,-15.59146 -1.6894,-4.65754 -4.7978,-10.72009 -6.3102,-12.30719 -2.7025,-2.83587 -8.4075,-1.42601 -15.1952,3.75518 -6.1062,4.66096 -8.7909,3.8576 -10.667,-3.19197 -1.4292,-5.3703 -1.265,-13.3482 0.4292,-20.85635 0.7916,-3.50808 1.5739,-7.49453 1.7384,-8.85878 0.5046,-4.18515 2.4592,-11.98823 3.8168,-15.23711 0.3258,-0.77958 1.2929,-3.80928 2.1492,-6.73268 1.8492,-6.31312 5.0233,-14.96374 5.8378,-15.91038 0.3186,-0.3703 0.5793,-1.07187 0.5793,-1.55905 0,-0.48719 0.9249,-2.25717 2.0553,-3.9333 1.1305,-1.67614 3.3665,-5.58227 4.969,-8.68031 1.6025,-3.09804 3.1645,-5.80883 3.4711,-6.02397 0.3066,-0.21515 1.4661,-1.98577 2.5765,-3.9347 2.0027,-3.51481 15.2274,-17.36322 16.5812,-17.36322 0.388,0 2.4057,-1.46856 4.4839,-3.26346 7.3165,-6.31911 27.258,-15.23715 43.4659,-19.43838 6.0932,-1.57942 24.911,-2.82034 35.4352,-2.33674 6.8367,0.31416 17.6919,3.07974 22.0016,5.60538 1.7266,1.01186 3.5324,1.70871 4.0129,1.54854 0.4805,-0.16017 1.217,-1.70145 1.6367,-3.42507 0.893,-3.66752 2.3218,-4.27069 5.0441,-2.12933 1.9705,1.55002 6.2323,1.98979 7.0147,0.72385 0.2534,-0.40999 2.2654,-1.64113 4.4712,-2.73587 2.2058,-1.09474 4.9673,-2.51138 6.1367,-3.14808 1.1693,-0.63669 2.4648,-1.15959 2.8788,-1.16199 0.414,-0.002 2.1333,-0.67136 3.8206,-1.48657 4.4951,-2.17181 9.60729,-3.27901 15.67768,-3.39551 5.80523,-0.11141 9.30132,1.2078 14.85249,5.60441 1.40425,1.11219 5.56141,3.34514 9.23814,4.96212 3.67672,1.61698 8.37891,3.86873 10.44929,5.0039 2.07039,1.13516 4.53089,2.06393 5.46779,2.06393 3.48476,0 9.04439,-6.41702 13.50822,-15.59146 1.42239,-2.9234 3.18629,-6.54135 3.91978,-8.03988 0.7335,-1.49854 1.33363,-3.1338 1.33363,-3.63391 0,-0.50012 0.42191,-1.25946 0.93758,-1.68743 0.51567,-0.42796 1.67609,-3.09807 2.57872,-5.93357 0.90263,-2.8355 2.38736,-6.75004 3.29941,-8.69897 1.6279,-3.47863 3.50213,-9.64024 5.2815,-17.36322 0.49394,-2.14383 1.08396,-9.00052 1.31115,-15.23711 0.66839,-18.34769 -1.05474,-23.55614 -9.15614,-27.67592 -6.45945,-3.2848 -14.16006,-3.48983 -25.20505,-0.67108 -8.48458,2.16532 -21.18134,12.1967 -25.51469,20.15849 -1.77378,3.25902 -2.68376,4.096 -6.32739,5.81975 -4.58302,2.16816 -8.87309,2.5816 -12.19522,1.17526 -2.35134,-0.99537 -8.00629,-6.19297 -8.00629,-7.35879 0,-1.31812 -8.8431,-3.85001 -13.4469,-3.85001 -4.0355,0 -7.6477,-1.00596 -8.6366,-2.40522 -1.1195,-1.58399 0.4658,-5.88822 3.4165,-9.2762 1.6916,-1.94224 3.0756,-3.76413 3.0756,-4.04863 0,-0.28452 1.9932,-1.86907 4.4294,-3.52123 2.4361,-1.65216 4.7483,-3.2664 5.1381,-3.58719 1.8383,-1.51298 13.6312,-8.27991 21.45977,-12.31397 4.78674,-2.4666 9.40226,-4.9744 10.2567,-5.57288 0.85446,-0.59848 2.17504,-1.08815 2.93464,-1.08815 0.7596,0 1.92062,-0.48827 2.58006,-1.08505 0.65943,-0.59677 1.80075,-1.20408 2.53626,-1.34954 1.16686,-0.23079 7.82191,-3.30943 11.94796,-5.52715 3.82238,-2.05452 21.16701,-7.04119 26.51771,-7.624 6.90027,-0.75158 17.19742,0.49585 23.29091,2.82155 5.02793,1.919 17.11788,9.93922 19.30978,12.8097 0.97446,1.27614 2.44139,3.0302 3.25984,3.89791 3.27328,3.47028 6.19054,9.25503 7.12479,14.12798 2.52799,13.18579 2.60735,30.43428 0.16219,35.24887 -0.34374,0.67684 -0.62499,1.81288 -0.62499,2.52452 0,1.17013 -1.81497,5.65212 -3.5695,8.81473 -0.37549,0.67684 -0.68655,1.79305 -0.69126,2.48046 -0.009,1.27743 -1.89418,7.00698 -7.05796,21.44788 -5.15241,14.40914 -7.09103,20.78381 -8.08217,26.57635 -2.12862,12.44028 -2.61965,16.32659 -2.43288,19.25508 0.21709,3.40381 0.23366,3.42468 2.89372,3.64443 1.65841,0.137 5.03869,-0.60384 8.89261,-1.94893 11.11167,-3.87822 17.56149,-2.68968 24.9302,4.594 1.75404,1.7338 4.54456,4.32213 6.20115,5.75185 3.38556,2.92188 3.77156,4.27542 1.38975,4.87322 -2.61373,0.656 -5.53209,-0.88546 -10.07136,-5.31963 -4.59961,-4.49313 -7.39187,-5.68027 -13.37655,-5.68711 -4.01406,-0.004 -19.57813,4.74455 -19.57813,5.97397 0,1.29305 2.65258,6.13903 4.34849,7.94426 3.03623,3.23191 15.70943,6.31012 22.58222,5.48502 5.86357,-0.70394 12.45556,-1.8929 13.111,-2.36475 0.38979,-0.28062 2.85938,-1.4067 5.48798,-2.50242 3.17712,-1.32437 5.3868,-2.78874 6.59156,-4.36827 0.99676,-1.30682 2.38448,-2.37604 3.08379,-2.37604 1.52664,0 3.24506,1.82542 4.00299,4.25222 0.91497,2.92961 0.49998,15.23531 -0.6258,18.55697 -0.57011,1.68216 -1.13644,4.17467 -1.25849,5.53893 -0.12205,1.36425 -0.60849,3.11829 -1.08098,3.89786 -0.4725,0.77957 -1.07745,2.61238 -1.34434,4.0729 -0.37837,2.07064 -1.40448,3.45185 -4.65899,6.27127 -2.29556,1.98868 -4.17375,3.97192 -4.17375,4.4072 0,0.43527 1.4084,2.23749 3.12979,4.00491 2.73291,2.80603 10.33557,14.84874 10.33557,16.37169 0,0.30387 0.89293,1.45404 1.98428,2.55594 1.09135,1.10189 2.98,3.43857 4.19699,5.19261 1.217,1.75404 4.62065,5.48521 7.56368,8.29148 6.04323,5.76242 7.82714,6.42097 14.20153,5.2426 2.85737,-0.52822 4.4987,-0.53105 5.47335,-0.009 2.62615,1.40548 1.15756,2.97215 -4.71893,5.0341 -6.3764,2.23735 -8.84835,2.14615 -13.46379,-0.49673 -4.48034,-2.56552 -17.72271,-17.75846 -20.68482,-23.73164 -0.67653,-1.36425 -2.23182,-3.75613 -3.45619,-5.31527 -1.22437,-1.55915 -2.74508,-3.79156 -3.37935,-4.96092 -1.64621,-3.03497 -3.17902,-4.62545 -7.20608,-7.47715 -9.54518,-6.75928 -17.41973,-9.27365 -32.25088,-10.29783 -8.72565,-0.60256 -15.75191,0.49743 -26.14736,4.09348 -8.77732,3.03631 -10.23431,3.62415 -18.49601,7.46242 -5.79687,2.69315 -10.26608,4.27745 -18.41203,6.52696 -9.24028,2.5517 -22.47904,1.70559 -29.54621,-1.88835 -1.49271,-0.75911 -3.94505,-1.9791 -5.44966,-2.7111 -2.81361,-1.36886 -12.7399,-11.39244 -17.5065,-17.67822 -1.478,-1.94893 -6.3162,-7.29407 -10.7516,-11.87808 -7.6664,-7.92312 -9.9111,-11.32209 -10.7335,-16.25308 -0.085,-0.50911 -0.5377,-1.62225 -1.0062,-2.47365 -0.4685,-0.85139 -0.8518,-1.93019 -0.8518,-2.39732 0,-1.42489 -2.9381,-3.49606 -4.9595,-3.49606 -1.0493,0 -2.4663,-0.61715 -3.1489,-1.37144 -2.8056,-3.10014 -6.9135,-4.22124 -18.4139,-5.02541 -6.0729,-0.42466 -11.2842,-0.62227 -11.5805,-0.43913 -0.2963,0.18313 -4.9997,0.53937 -10.4519,0.79165 -5.4523,0.25228 -12.4646,0.94124 -15.5829,1.53103 -6.6701,1.26157 -15.3077,3.70127 -16.2647,4.59395 -0.3703,0.34543 -1.1676,0.62961 -1.7718,0.63151 -0.6041,0.002 -3.2698,1.11776 -5.9237,2.47968 -4.3386,2.2265 -6.7044,3.80277 -13.5612,9.03568 -4.2284,3.22701 -22.8209,22.40583 -25.9908,26.81051 -3.4148,4.74501 -10.1562,17.60184 -12.6556,24.13621 -1.311,3.42728 -4.0784,13.38458 -5.7829,20.80704 -0.358,1.55915 -0.8566,3.31319 -1.1079,3.89787 -0.8069,1.87708 -0.7577,9.23138 0.065,9.74112 0.4311,0.26707 3.4947,0.52306 6.8079,0.56886 4.1472,0.0573 6.9071,0.4829 8.8588,1.36601 3.6842,1.66712 15.189,13.60242 15.2168,15.78624 0.011,0.87702 0.2881,1.59458 0.6155,1.59458 1.1072,0 3.657,10.8856 3.657,15.61219 0,4.41628 1.1511,6.10104 4.866,7.12208 1.8063,0.49643 4.4737,1.64371 5.9276,2.54952 1.454,0.90581 2.9915,1.64692 3.4168,1.64692 0.4253,0 3.4459,2.12486 6.7124,4.72191 4.9976,3.97338 6.2815,5.43893 8.0996,9.24496 1.1883,2.48768 2.1605,5.24938 2.1605,6.13713 0,3.05751 -4.1113,9.38046 -8.1006,12.45816 -5.661,4.3674 -6.1816,6.84468 -1.9984,9.50841 3.496,2.22615 8.0179,7.22403 9.5675,10.57466 0.9496,2.05323 1.2402,4.55675 1.2402,10.68296 0,7.90278 -0.028,8.0415 -2.3212,11.26613 -4.2951,6.04115 -7.4277,8.83981 -12.6984,11.34482 -4.3515,2.06815 -5.4486,2.95709 -6.8703,5.56692 -2.635,4.83698 -7.0407,9.05116 -9.9668,9.53365 -3.0656,0.5055 -7.1229,2.4876 -7.1193,3.47794 0,0.39859 0.6393,1.7689 1.4174,3.04513 0.7781,1.27622 1.4148,3.04132 1.4148,3.92243 0,2.72979 5.578,17.06858 7.083,18.2074 0.2575,0.1949 2.4807,3.64446 4.9405,7.66571 2.4597,4.02124 4.8268,7.70111 5.2603,8.17749 0.8371,0.92001 1.222,1.55625 5.6083,9.27025 2.7329,4.80605 13.6156,16.70002 15.2803,16.70002 0.4434,0 0.8062,0.31284 0.8062,0.6952 0,0.38236 0.7738,0.88942 1.7196,1.12679 0.9458,0.23738 2.2709,1.04074 2.9447,1.78526 0.6738,0.74452 1.4591,1.35367 1.7452,1.35367 0.2861,0 3.1745,1.75643 6.4188,3.90318 8.244,5.45512 12.4942,6.99018 18.9804,6.85515 6.1039,-0.12707 13.8175,-1.49651 23.3817,-4.15109 9.4672,-2.62762 21.1132,-2.75533 29.854,-0.32735 3.3131,0.92032 6.5023,2.05316 7.087,2.51744 0.5847,0.46427 2.6576,1.6174 4.6066,2.56254 5.506,2.67011 11.42085,7.21213 22.00801,16.8999 3.93342,3.59926 9.52349,8.38086 12.50761,10.69865 1.05343,0.81821 4.39385,2.61716 7.42317,3.99766 5.62968,2.56552 7.45536,2.74109 13.33998,1.28283 7.13619,-1.76841 21.95483,-12.41752 26.20617,-18.83252 0.94309,-1.42305 3.00279,-3.97438 4.57712,-5.66962 1.57434,-1.69524 2.8664,-3.27184 2.87126,-3.50355 0.005,-0.23171 0.81492,-1.34792 1.80014,-2.48046 0.98522,-1.13254 2.62406,-3.49429 3.64187,-5.24833 1.01782,-1.75404 2.35367,-3.76889 2.96858,-4.47743 2.21991,-2.55797 11.58997,-20.52764 17.80548,-34.14687 1.24522,-2.72851 3.03363,-6.4392 3.97422,-8.24599 0.9406,-1.80679 1.71017,-3.61979 1.71017,-4.02889 0,-0.40909 1.75404,-4.35077 3.89786,-8.75927 2.14383,-4.4085 3.89787,-8.23402 3.89787,-8.50114 0,-0.26713 0.9072,-2.50117 2.016,-4.96453 2.3727,-5.27131 3.87332,-9.51622 5.09076,-14.40067 1.2346,-4.95334 7.27345,-17.38142 9.4162,-19.37877 l 1.78214,-1.6612 0.79422,1.48402 c 0.85983,1.60661 2.82964,1.95007 4.07004,0.70967 0.98445,-0.98445 3.76134,0.36637 3.76134,1.8297 0,0.55301 -0.90349,3.81068 -2.00776,7.23927 -1.10426,3.42858 -2.73885,9.2635 -3.6324,12.96647 -1.93395,8.01449 -4.23683,15.66988 -5.00996,16.65451 -0.30606,0.38979 -0.77727,2.30329 -1.04714,4.25222 -0.4236,3.05925 -4.16207,12.78756 -5.31072,13.81971 -0.21689,0.19489 -0.97804,1.78947 -1.69144,3.54351 -0.7134,1.75404 -1.69994,3.98645 -2.19233,4.96092 -0.49237,0.97447 -1.29304,3.04742 -1.77924,4.60657 -0.81309,2.60738 -16.47096,34.52521 -17.73102,36.14384 -1.2314,1.58182 -3.36518,5.82985 -4.19982,8.36121 -0.48811,1.48038 -1.65499,3.4591 -2.59306,4.39718 -0.93808,0.93807 -1.7056,2.01243 -1.7056,2.38745 0,0.37502 -0.25198,0.78816 -0.55997,0.91809 -1.18703,0.50077 -5.24248,6.88933 -4.81373,7.58307 0.28957,0.46853 3.4377,0.60548 8.75966,0.38106 5.91397,-0.24938 11.1664,0.0359 18.22948,0.99014 l 9.92184,1.34044 8.6978,-4.18919 c 12.6107,-6.07379 13.85118,-7.35368 29.65231,-30.59459 6.68525,-9.83294 15.36975,-26.22572 31.61594,-59.67795 5.37917,-11.07616 5.9306,-12.31087 8.35734,-18.713 0.66488,-1.75404 2.09011,-5.26212 3.1672,-7.79573 2.8175,-6.62756 2.97345,-7.03838 4.30452,-11.33925 0.66349,-2.14383 1.61966,-4.69516 2.12483,-5.66962 4.83707,-9.33071 10.68122,-22.84887 13.02137,-30.11987 0.87816,-2.72851 2.3996,-6.5555 3.38097,-8.50444 3.13852,-6.23287 4.17268,-9.50258 8.3474,-26.39212 1.37199,-5.55057 2.49452,-10.87166 2.49452,-11.82463 0,-0.95297 0.33587,-2.61607 0.74637,-3.69577 1.29882,-3.41619 3.2252,-18.15267 3.93498,-30.10197 0.35,-5.89227 0.15568,-7.76138 -1.43673,-13.81971 -1.0128,-3.85322 -2.48681,-8.28461 -3.27556,-9.84751 -1.60183,-3.17404 -10.02221,-12.39546 -11.31868,-12.39546 -0.45863,0 -1.6804,-0.58079 -2.71503,-1.29063 -5.03873,-3.45696 -16.7733,-5.65405 -23.44274,-4.38921 -2.0605,0.39076 -4.00083,0.55321 -4.31184,0.361 -0.31101,-0.19222 -3.8653,10e-4 -7.89841,0.43089 -16.23078,1.72729 -22.96742,1.03481 -26.24268,-2.69754 -1.33718,-1.5238 -3.41439,-5.51067 -3.41439,-6.55338 0,-1.34777 2.43064,-0.75186 5.5465,1.35979 4.94074,3.3484 6.80427,3.42821 31.30604,1.34082 15.46017,-1.3171 20.05412,-0.83516 29.05682,3.04826 2.14382,0.92477 5.16783,2.55299 6.72001,3.61828 4.80577,3.2983 5.85017,2.48016 4.55254,-3.56624 -0.47974,-2.23539 -1.29882,-4.56783 -1.82019,-5.1832 -0.52136,-0.61538 -0.94793,-1.47655 -0.94793,-1.91372 0,-0.43717 -0.41648,-1.04989 -0.92551,-1.3616 -0.50903,-0.31171 -1.86442,-1.78189 -3.01199,-3.26707 -1.16281,-1.50493 -3.65515,-3.43891 -5.62999,-4.36874 -3.9483,-1.85898 -13.71181,-3.81363 -23.38719,-4.68211 -3.50808,-0.31488 -6.8567,-0.69845 -7.44138,-0.85237 -0.58468,-0.15391 -2.30904,-0.5354 -3.83193,-0.84774 -1.52288,-0.31235 -3.59584,-0.99943 -4.60657,-1.52685 -1.01072,-0.52742 -2.86507,-0.96091 -4.12077,-0.96331 -8.4844,-0.0162 -23.66698,-14.41602 -19.93759,-18.90965 1.41385,-1.7036 2.68529,-0.98596 5.34184,3.0151 2.46085,3.70632 3.66902,4.65417 10.48639,8.227 4.10882,2.15335 14.6163,4.29318 26.94482,5.48727 18.39106,1.78129 20.15553,2.47079 32.01432,12.51004 3.64694,3.08738 7.24872,10.23343 7.54635,14.97223 0.11732,1.86786 0.59246,4.0927 1.05587,4.9441 0.99353,1.82533 1.10563,6.52663 0.21169,8.87786 -0.4055,1.06656 -0.31813,2.66539 0.24457,4.47553 2.57103,8.27061 3.29256,11.25522 3.92302,16.22781 0.66843,5.27212 0.40598,12.47911 -0.6764,18.57398 -0.28606,1.61084 -0.58939,5.5492 -0.67404,8.75191 -0.0847,3.20271 -0.799,9.06037 -1.58741,13.01702 -0.78842,3.95665 -2.18058,11.0209 -3.0937,15.69834 -1.58073,8.09737 -3.27794,13.74048 -5.15481,17.13946 -0.47013,0.85139 -0.85478,2.34742 -0.85478,3.32451 0,0.97709 -0.26836,1.94237 -0.59634,2.14508 -0.32799,0.20271 -1.15296,2.85259 -1.83328,5.88862 -1.18129,5.27172 -4.02972,14.5558 -5.39001,17.56802 -0.35205,0.77957 -1.25606,3.01198 -2.00892,4.96092 -3.62596,9.38652 -5.90408,14.91211 -6.83886,16.58765 -0.56417,1.01124 -2.31587,5.82507 -3.89268,10.6974 -1.57681,4.87234 -3.47077,10.15744 -4.20879,11.74469 -0.73802,1.58725 -1.87895,4.61696 -2.53542,6.73268 -0.65646,2.11572 -1.61337,4.80352 -2.12645,5.97288 -0.5131,1.16936 -1.6213,3.88015 -2.46269,6.02398 -0.84138,2.14382 -2.5679,5.97082 -3.8367,8.50443 -1.26879,2.53361 -3.98427,8.11465 -6.03439,12.4023 -10.11671,21.15826 -14.31426,29.12924 -19.60083,37.22118 -1.66038,2.54148 -3.6636,6.25658 -4.45162,8.2558 -4.60002,11.67034 -8.58981,17.5464 -20.85083,30.70857 -4.31384,4.63089 -5.2809,5.32582 -7.51074,5.39725 -1.40766,0.0451 -5.20966,0.48323 -8.44889,0.97366 -5.88337,0.89074 -11.32295,0.3994 -16.43463,-1.48451 -0.97446,-0.35913 -2.56904,-0.80156 -3.54351,-0.98316 -0.97447,-0.18161 -2.40959,-0.62303 -3.18916,-0.98095 -2.11506,-0.97105 -8.53183,-2.12289 -14.52841,-2.60791 -6.35586,-0.51408 -9.061,0.30209 -15.75651,4.75384 -8.79023,5.84451 -13.62532,8.7541 -15.97225,9.61154 -1.29475,0.47302 -3.18059,1.51017 -4.19075,2.30477 -4.64553,3.65417 -17.66044,5.10966 -26.09198,2.91792 z m 11.69359,-326.43937 c 2.14383,-0.66918 4.90282,-1.65533 6.13108,-2.19145 1.22827,-0.53611 2.4248,-0.97476 2.65896,-0.97476 0.23415,0 3.69404,-1.54054 7.68862,-3.42342 3.99459,-1.88289 9.4953,-4.3061 12.22381,-5.38491 2.7285,-1.07882 5.9797,-2.39494 7.22487,-2.92469 4.9201,-2.09324 14.4739,-3.33404 22.19898,-2.88308 9.77972,0.57089 17.22932,1.57866 21.60275,2.92239 3.83367,1.17789 10.85282,4.52834 11.42442,5.45321 0.19405,0.31398 1.29864,0.57088 2.45465,0.57088 1.64143,0 2.26356,-0.4269 2.84019,-1.94893 0.40611,-1.07192 1.30978,-2.58677 2.00817,-3.36634 1.26261,-1.40939 2.21198,-3.9841 4.9651,-13.46536 1.54308,-5.31414 1.74866,-6.81572 1.57663,-11.51642 -0.13999,-3.82569 -1.00741,-3.8825 -9.6777,-0.63381 -3.50808,1.31445 -7.49453,2.76302 -8.85879,3.21905 -3.91674,1.30923 -15.35525,1.76071 -21.24699,0.83861 -9.67826,-1.51472 -13.67536,-4.61311 -18.67336,-14.47484 -2.65133,-5.23143 -2.71318,-5.5293 -2.70125,-13.00875 0.006,-4.21009 0.31303,-9.08983 0.68069,-10.84387 0.36766,-1.75404 1.19011,-5.74049 1.82766,-8.85879 2.38346,-11.65756 4.95924,-20.88135 6.83543,-24.47747 1.67264,-3.20595 5.32993,-13.72198 7.07117,-20.33216 0.74211,-2.81726 1.79296,-6.00642 2.33523,-7.08703 0.54225,-1.08062 1.36887,-3.53068 1.83692,-5.44459 0.46804,-1.91391 1.64982,-5.37778 2.62617,-7.69749 1.48027,-3.51696 1.8034,-5.52908 1.94503,-12.11162 0.1522,-7.07366 -0.21962,-13.59157 -1.20097,-21.05299 -0.77963,-5.92778 -8.14129,-15.9814 -14.85181,-20.28274 -9.53191,-6.10979 -17.41407,-8.57141 -28.91373,-9.0298 -4.36174,-0.17387 -14.86761,1.18597 -17.6536,2.28502 -0.97447,0.38441 -4.16363,1.44608 -7.08703,2.35925 -2.9234,0.91317 -6.68754,2.38307 -8.36475,3.26646 -1.67723,0.88338 -3.40615,1.60614 -3.84206,1.60614 -0.43592,0 -1.29607,0.41238 -1.91144,0.9164 -0.61537,0.50402 -2.39452,1.3401 -3.95367,1.85796 -4.09435,1.35994 -14.56166,6.61467 -18.30077,9.18725 -1.76409,1.21372 -3.94912,2.51467 -4.85562,2.891 -0.90651,0.37633 -3.88062,2.11187 -6.60912,3.85675 -2.72851,1.74489 -6.25231,3.80893 -7.83061,4.58676 -3.7334,1.83991 -11.1061,9.03358 -10.8138,10.55123 0.1557,0.80866 1.517,1.40328 4.4732,1.95398 5.3397,0.9947 10.3687,3.63682 14.71472,7.73088 3.86357,3.63955 7.01523,4.56474 11.23896,3.29928 2.22701,-0.66722 3.54737,-1.8604 6.57151,-5.9385 3.85689,-5.20106 13.06357,-13.49034 17.47374,-15.73256 1.34323,-0.68292 2.87792,-1.59054 3.41043,-2.01691 2.28206,-1.82722 16.39278,-5.43555 21.17125,-5.41383 5.18526,0.0236 12.76907,2.47044 17.37516,5.60596 5.00856,3.40951 6.45849,5.72725 7.65405,12.2352 0.45175,2.45897 1.04318,4.94924 1.31432,5.53392 0.27112,0.58468 0.25774,2.33872 -0.0298,3.89786 -0.28749,1.55915 -0.52329,6.23164 -0.524,10.38332 -10e-4,7.51901 -0.39113,11.40775 -1.4812,14.77563 -0.31541,0.97447 -0.97068,4.00417 -1.45617,6.73268 -0.48549,2.72851 -1.11608,5.27984 -1.40131,5.66962 -0.53063,0.72513 -1.38159,3.79879 -1.33476,4.82111 0.0143,0.31289 -0.48533,1.34937 -1.11036,2.30328 -0.62503,0.95393 -0.95158,1.7344 -0.72567,1.7344 0.22592,0 -0.0617,0.87702 -0.63918,1.94893 -0.57747,1.07191 -1.68968,3.70297 -2.47158,5.8468 -3.68656,10.1078 -4.68822,12.53575 -5.89269,14.28346 -0.71306,1.03463 -1.29646,2.19574 -1.29646,2.58024 0,2.69743 -10.53761,17.77012 -12.46964,17.8362 -0.42682,0.0146 -1.38357,0.70258 -2.1261,1.52885 -2.51861,2.8026 -12.89061,9.12346 -14.99004,9.13515 -0.68353,0.004 -2.98072,0.8159 -5.10486,1.80466 -2.66421,1.24014 -4.97222,1.77418 -7.44137,1.72181 -1.96863,-0.0417 -6.56876,-0.0622 -10.22251,-0.0453 -3.65375,0.0169 -6.86316,-0.1053 -7.13202,-0.27146 -0.26887,-0.16617 -3.4983,-0.48135 -7.17653,-0.70039 -3.67822,-0.21905 -7.64442,-0.59449 -8.81382,-0.83432 -3.5439,-0.72686 -9.8568,-4.47401 -14.9348,-8.86487 -5.3294,-4.60822 -7.9678,-5.32858 -9.3826,-2.56175 -0.4485,0.87702 -0.6799,2.39188 -0.5142,3.36634 0.1656,0.97447 0.5949,3.5258 0.9541,5.66963 1.0637,6.35002 5.2033,14.33092 9.6843,18.67109 2.1544,2.08661 3.9171,4.04823 3.9171,4.35915 0,0.31093 1.1162,1.9275 2.4804,3.59239 1.3643,1.66489 2.4826,3.29232 2.4853,3.61651 0,0.32418 1.1391,1.36197 2.5255,2.30618 1.3863,0.94421 3.0279,2.69825 3.648,3.89787 1.9587,3.78938 5.31902,7.37011 11.89359,12.67388 7.55519,6.09484 8.5633,6.64306 15.3496,8.34728 6.64841,1.6696 21.53562,1.4334 27.52692,-0.43673 z m -14.54386,-60.74167 c 6.34789,-1.67217 9.70153,-4.00269 8.25978,-5.73989 -0.90507,-1.09055 -6.52578,-3.96031 -10.72478,-5.47575 -1.36425,-0.49237 -2.95884,-1.26901 -3.54352,-1.72587 -2.6597,-2.07827 -11.71922,-6.78705 -14.73575,-7.65906 -1.83489,-0.53042 -4.77129,-0.83595 -6.52533,-0.67895 -3.53596,0.3165 -12.94958,3.1402 -17.40978,5.22225 -1.5848,0.73978 -3.1065,1.34504 -3.3815,1.34504 -0.2751,0 -1.769,0.83967 -3.3198,1.86594 -4.3542,2.88147 -3.6805,5.24262 2.5477,8.92922 5.3836,3.18666 7.2371,3.63865 19.43727,4.73988 14.93474,1.34806 21.89417,1.15327 29.39571,-0.82281 z"
       id="path7915"
       inkscape:connector-curvature="0" />
  </g>
</svg>
