<?xml version="1.0" encoding="UTF-8" standalone="no"?>
<!-- Created with Inkscape (http://www.inkscape.org/) -->

<svg
   xmlns:dc="http://purl.org/dc/elements/1.1/"
   xmlns:cc="http://creativecommons.org/ns#"
   xmlns:rdf="http://www.w3.org/1999/02/22-rdf-syntax-ns#"
   xmlns:svg="http://www.w3.org/2000/svg"
   xmlns="http://www.w3.org/2000/svg"
   xmlns:sodipodi="http://sodipodi.sourceforge.net/DTD/sodipodi-0.dtd"
   xmlns:inkscape="http://www.inkscape.org/namespaces/inkscape"
   width="108.65556mm"
   height="108.65556mm"
   viewBox="0 0 385 385"
   id="svg4574"
   version="1.1"
   inkscape:version="0.91 r13725"
   sodipodi:docname="gradka_favicon.svg"
   inkscape:export-filename="/home/jedi/Dropbox/creative-commons/cc_landing/images/gradka_favicon.png"
   inkscape:export-xdpi="46.753242"
   inkscape:export-ydpi="46.753242">
  <defs
     id="defs4576" />
  <sodipodi:namedview
     id="base"
     pagecolor="#ffffff"
     bordercolor="#666666"
     borderopacity="1.0"
     inkscape:pageopacity="0.0"
     inkscape:pageshadow="2"
     inkscape:zoom="0.7"
     inkscape:cx="-415.19981"
     inkscape:cy="247.44184"
     inkscape:document-units="px"
     inkscape:current-layer="layer1"
     showgrid="false"
     fit-margin-top="0"
     fit-margin-left="0"
     fit-margin-right="0"
     fit-margin-bottom="0"
     inkscape:window-width="1855"
     inkscape:window-height="1056"
     inkscape:window-x="65"
     inkscape:window-y="24"
     inkscape:window-maximized="1" />
  <metadata
     id="metadata4579">
    <rdf:RDF>
      <cc:Work
         rdf:about="">
        <dc:format>image/svg+xml</dc:format>
        <dc:type
           rdf:resource="http://purl.org/dc/dcmitype/StillImage" />
        <dc:title></dc:title>
      </cc:Work>
    </rdf:RDF>
  </metadata>
  <g
     inkscape:label="Layer 1"
     inkscape:groupmode="layer"
     id="layer1"
     transform="translate(737.36986,-257.03016)">
    <path
       style="opacity:1;fill:#333333;fill-opacity:1;stroke:none"
       d="m -352.86359,457.21296 c 6.52701,71.72148 -52.04275,170.4151 -153.01988,182.92857 -100.97707,12.51345 -199.60011,-37.20392 -225.78428,-147.72161 -24.28482,-102.50116 32.84402,-181.63078 98.66395,-200.04743 59.14705,-16.54956 95.05868,27.43505 130.71662,24.92507 17.12373,-1.20534 62.65234,-2.71443 86.26619,15.0402 36.68032,27.57895 56.6304,53.15377 63.1574,124.8752 z"
       id="path3846-6-67"
       inkscape:connector-curvature="0"
       sodipodi:nodetypes="zssssaz" />
    <path
       style="opacity:1;fill:#ffff00;fill-opacity:1;stroke:none"
       d="m -383.60898,458.36366 c 5.40879,59.43443 -45.80862,140.87634 -129.48671,151.24603 -83.67809,10.36974 -165.40546,-30.83026 -187.10382,-122.41453 -20.12448,-84.94106 27.21726,-150.51451 81.7612,-165.7761 49.01424,-13.71435 78.77362,22.73499 108.32278,20.65501 14.19017,-0.99886 57.15432,-2.05109 78.34613,14.51226 29.08954,22.73623 42.75156,42.34291 48.16042,101.77733 z"
       id="path3846-5"
       inkscape:connector-curvature="0"
       sodipodi:nodetypes="zssssaz" />
    <path
       style="fill:#333333;fill-rule:evenodd;stroke:none;stroke-width:1px;stroke-linecap:butt;stroke-linejoin:miter;stroke-opacity:1"
       d="m -550.24171,333.89779 c 0.14111,12.10855 -13.53876,23.12197 -10.38266,34.8128 3.81685,14.13837 25.32471,21.84918 32.03777,30.06222 10.97812,5.31538 7.30267,-12.60115 0.8539,-15.5314 -6.23819,-4.82909 -12.80509,-13.29804 -7.01205,-20.96263 3.82239,-7.73478 9.1725,-14.5699 14.6214,-21.20969 9.77496,-2.27536 16.9566,7.55495 19.42446,15.80174 3.30099,7.52495 -0.0803,15.10658 -1.7796,22.49702 6.11035,4.69625 14.19008,-8.51435 14.46574,-15.437 2.31204,-11.9567 -4.37206,-23.56778 -12.70622,-31.62597 -5.68936,-10.00124 5.29747,-19.99952 14.71572,-21.52566 10.49314,-2.96608 21.77227,-2.085 32.10082,1.12119 6.65792,-10.24508 -8.59238,-16.98754 -16.45953,-19.48208 -15.77718,-4.69341 -36.02679,-2.6503 -46.02649,10.32254 10.30052,-27.43782 -12.57336,-60.23812 -47.82503,-38.79679 -4.77732,1.61453 -8.37147,14.39587 2.448,13.37428 40.28773,-13.87611 32.08857,36.89815 7.91825,26.62322 -20.15347,-4.75795 -16.12217,11.55824 -29.53072,19.88678 -9.56575,3.36211 -21.20148,4.01558 -29.72852,-2.30864 -10.28068,0.48654 -2.81959,12.69306 2.45984,15.47174 11.95062,6.67274 26.24123,6.32233 39.36623,4.76006 7.43313,-0.88477 17.50555,-14.15901 21.03869,-7.85373 z"
       id="path3874-2"
       inkscape:connector-curvature="0"
       sodipodi:nodetypes="caccccccccccccccccccac" />
  </g>
</svg>
