<?xml version="1.0" encoding="UTF-8" standalone="no"?>
<!-- Created with Inkscape (http://www.inkscape.org/) -->

<svg
   xmlns:dc="http://purl.org/dc/elements/1.1/"
   xmlns:cc="http://creativecommons.org/ns#"
   xmlns:rdf="http://www.w3.org/1999/02/22-rdf-syntax-ns#"
   xmlns:svg="http://www.w3.org/2000/svg"
   xmlns="http://www.w3.org/2000/svg"
   xmlns:sodipodi="http://sodipodi.sourceforge.net/DTD/sodipodi-0.dtd"
   xmlns:inkscape="http://www.inkscape.org/namespaces/inkscape"
   width="133.36861mm"
   height="164.55136mm"
   viewBox="0 0 472.56593 583.056"
   id="svg8582"
   version="1.1"
   inkscape:version="0.91 r13725"
   sodipodi:docname="cc_pic_color_5_3.svg"
   inkscape:export-filename="/home/jedi/Dropbox/creative-commons/cc_landing/cc_pic_color_5_3.png"
   inkscape:export-xdpi="92.558517"
   inkscape:export-ydpi="92.558517">
  <defs
     id="defs8584" />
  <sodipodi:namedview
     id="base"
     pagecolor="#ffffff"
     bordercolor="#666666"
     borderopacity="1.0"
     inkscape:pageopacity="0.0"
     inkscape:pageshadow="2"
     inkscape:zoom="0.98994949"
     inkscape:cx="291.48596"
     inkscape:cy="423.95623"
     inkscape:document-units="px"
     inkscape:current-layer="layer1"
     showgrid="false"
     fit-margin-top="0"
     fit-margin-left="0"
     fit-margin-right="0"
     fit-margin-bottom="0"
     inkscape:window-width="1855"
     inkscape:window-height="1056"
     inkscape:window-x="65"
     inkscape:window-y="24"
     inkscape:window-maximized="1" />
  <metadata
     id="metadata8587">
    <rdf:RDF>
      <cc:Work
         rdf:about="">
        <dc:format>image/svg+xml</dc:format>
        <dc:type
           rdf:resource="http://purl.org/dc/dcmitype/StillImage" />
        <dc:title></dc:title>
      </cc:Work>
    </rdf:RDF>
  </metadata>
  <g
     inkscape:label="Layer 1"
     inkscape:groupmode="layer"
     id="layer1"
     transform="translate(670.1523,-405.04582)">
    <path
       style="fill:#c83771;fill-rule:evenodd;stroke:none;stroke-width:1px;stroke-linecap:butt;stroke-linejoin:miter;stroke-opacity:1"
       d="m -590.1523,620.24471 c 6.42857,-0.71429 92.14286,-55 92.14286,-55 0,0 33.57143,-45 37.14285,-44.28572 3.57143,0.71429 87.85715,-25 87.85715,-25 l 26.42857,-5 41.42857,12.14286 46.42857,21.42857 16.78572,17.14286 13.92857,22.14286 12.14286,18.21428 8.92857,20.71429 c 0,0 6.78571,22.5 7.14285,30.35714 0.35715,7.85714 2.85715,64.28571 -1.78571,80.35714 -4.64286,16.07143 -6.42857,22.85715 -6.42857,22.85715 0,0 -3.57143,13.92857 -6.78572,19.64285 -3.21428,5.71429 -21.07143,27.5 -21.07143,27.5 l -15.71428,26.42857 -16.07143,27.5 -4.28571,13.92858 1.78571,17.85714 15.35714,22.5 14.28572,24.64286 4.64285,10.71428 c 0,0 2.14286,5.35714 2.5,17.14286 0.35715,11.78571 2.14286,22.5 -5,29.28571 -7.14285,6.78572 -11.42857,8.57143 -11.42857,8.57143 0,0 -5.71428,-3.21428 -6.07143,-5.35714 -0.35714,-2.14286 -3.57142,-35.71429 -3.57142,-35.71429 l -26.78572,-33.57143 -39.64286,-15.35714 -56.07142,6.78572 -30.35715,7.14285 -56.07143,3.21429 -89.64285,-28.21429 -69.64286,-92.14285 c 0,0 -0.71429,-83.21429 -0.71429,-86.42858 0,-3.21428 38.21429,-82.14285 38.21429,-82.14285 z"
       id="path9173"
       inkscape:connector-curvature="0" />
    <path
       style="fill:#de87aa;fill-rule:evenodd;stroke:none;stroke-width:1px;stroke-linecap:butt;stroke-linejoin:miter;stroke-opacity:1"
       d="m -384.08087,580.60185 c 2.5,-0.89286 28.03571,-16.25 28.03571,-16.25 0,0 11.60715,-9.28571 12.85715,-10.53571 1.25,-1.25 7.67857,-8.92858 7.67857,-8.92858 0,0 9.82143,-5.89285 11.60714,-6.42857 1.78572,-0.53571 19.46429,-3.39285 20.17857,-3.39285 0.71429,0 11.78572,5.71428 11.78572,5.71428 l 4.10714,7.85714 9.10714,15.89286 11.25,-4.46428 12.5,-1.60715 11.96429,7.67857 4.82143,8.03572 2.5,7.32143 -1.25,10.17857 -12.32143,11.42857 0.71428,6.07143 10.53572,12.14286 4.28571,14.10714 c 0,0 -5.35714,13.21428 -6.25,12.14286 -0.89285,-1.07143 -17.85714,1.42857 -17.85714,1.42857 0,0 -1.78571,3.39285 -1.96429,4.28571 -0.17857,0.89286 -1.07142,9.82143 -1.07142,9.82143 l -1.78572,11.78571 -5.89286,8.03572 -9.64285,6.07143 -10.89286,-2.14286 -24.64286,-21.96429 -31.07143,13.21429 c 0,0 -21.60714,-0.35714 -22.32143,-1.78571 -0.71428,-1.42858 -8.92857,-17.32143 -8.75,-18.03572 0.17858,-0.71428 18.57143,-22.67857 18.57143,-22.67857 l -5.71428,-19.82143 c 0,0 -20.53572,-11.78571 -21.25,-13.21428 -0.71429,-1.42858 -4.64286,-10 -4.64286,-10 z"
       id="path9175"
       inkscape:connector-curvature="0" />
    <path
       style="fill:#808080;fill-rule:evenodd;stroke:none;stroke-width:1px;stroke-linecap:butt;stroke-linejoin:miter;stroke-opacity:1"
       d="m -525.70049,578.99007 -81.06474,-57.07362 -15.9099,6.56599 -28.28427,0.25254 -12.37437,35.1028 39.14341,8.83884 81.56982,13.38452 z"
       id="path9181"
       inkscape:connector-curvature="0" />
    <path
       style="fill:#8dd35f;fill-rule:evenodd;stroke:none;stroke-width:1px;stroke-linecap:butt;stroke-linejoin:miter;stroke-opacity:1"
       d="m -475.4454,537.57381 c -0.75761,-2.0203 -11.86929,-13.13198 -11.86929,-15.40482 0,-2.27284 -14.39467,-42.67895 -14.39467,-42.67895 l -15.15229,-30.30457 -15.15229,-27.52666 -14.64721,-14.64721 -30.30458,13.38452 -8.33376,18.68782 5.80838,13.63706 16.16244,22.72843 11.36422,18.68782 10.6066,25.7589 21.71828,27.02158 14.89975,12.6269 z"
       id="path9177"
       inkscape:connector-curvature="0" />
    <path
       style="fill:#447821;fill-rule:evenodd;stroke:none;stroke-width:1px;stroke-linecap:butt;stroke-linejoin:miter;stroke-opacity:1"
       d="m -496.15352,563.3327 c -1.26269,-0.25253 -17.42514,-9.09137 -17.42514,-9.09137 l -32.57741,-39.90102 -14.64722,-11.36422 -26.76904,-19.1929 -25.25381,-16.66752 -32.07235,-13.13198 -10.35406,5.05076 -9.34391,13.38452 1.76777,12.62691 6.81853,16.41498 31.06219,15.15229 22.98097,13.8896 25.25381,14.14213 19.95051,19.69798 16.41498,15.40482 z"
       id="path9179"
       inkscape:connector-curvature="0" />
    <path
       style="fill:#000000"
       d="m -263.93343,986.2892 c -1.52456,-1.6228 -1.65075,-2.2564 -1.20496,-6.0494 0.27387,-2.33013 1.19701,-5.40209 2.05142,-6.82654 1.27967,-2.13342 1.56074,-3.82098 1.59472,-9.5748 0.0387,-6.55541 -1.46478,-14.24324 -3.01044,-15.39315 -0.30665,-0.22814 -1.2037,-1.57282 -1.99345,-2.98818 -0.78974,-1.41537 -3.34628,-5.30466 -5.68121,-8.64287 -2.33493,-3.33821 -4.79569,-7.14315 -5.46835,-8.45542 -0.67267,-1.31226 -2.01561,-3.37852 -2.98432,-4.59169 -10.27291,-12.86529 -16.60842,-19.4442 -20.87946,-21.68163 -2.30396,-1.20695 -6.40531,-1.95627 -18.93844,-3.46008 -1.75158,-0.21017 -4.56392,-0.008 -6.24966,0.4504 -1.68573,0.45789 -6.20818,0.95725 -10.04987,1.10969 -7.34507,0.29146 -11.91137,1.00999 -21.84015,3.43666 -4.75392,1.16189 -6.93521,1.34295 -10.29355,0.85441 -3.62116,-0.52677 -4.87518,-0.37474 -8.34725,1.01204 -2.24724,0.89757 -6.20591,1.84885 -8.79704,2.11398 -2.59113,0.26512 -5.61628,0.9501 -6.72258,1.52219 -1.10628,0.57208 -2.47487,1.04015 -3.04131,1.04015 -0.56644,0 -2.51135,0.7877 -4.32203,1.75045 -9.34848,4.97064 -53.37172,7.59879 -75.59899,4.51321 -4.65048,-0.64559 -10.97254,-1.45502 -14.04902,-1.79874 -3.0765,-0.34372 -6.2197,-0.94911 -6.98491,-1.3453 -0.76522,-0.3962 -3.70735,-1.11845 -6.53807,-1.605 -2.83073,-0.48654 -8.78628,-2.00214 -13.23456,-3.36798 -4.44829,-1.36584 -9.37679,-2.65265 -10.95224,-2.85956 -1.57545,-0.20692 -5.97184,-1.87807 -9.76976,-3.71367 -3.79791,-1.8356 -7.04848,-3.33746 -7.22349,-3.33746 -2.50459,0 -23.58991,-12.52143 -27.74909,-16.47869 -0.91036,-0.86615 -2.81322,-2.44296 -4.22858,-3.50401 -3.77197,-2.82772 -23.59164,-22.53996 -26.11219,-25.97064 -1.18843,-1.61756 -3.51037,-4.59534 -5.15986,-6.61728 -1.64949,-2.02195 -3.53664,-4.50343 -4.19366,-5.5144 -0.65703,-1.01098 -2.53024,-3.65789 -4.16269,-5.88203 -1.63245,-2.22414 -4.3613,-6.35994 -6.06411,-9.19067 -1.70282,-2.83072 -3.65713,-5.8085 -4.34292,-6.61728 -4.75259,-5.6049 -14.69033,-22.7409 -15.70957,-27.08855 -0.26947,-1.14946 -1.92847,-5.11983 -3.68665,-8.82304 -2.57833,-5.43062 -3.63643,-9.00881 -5.4698,-18.49716 -1.37929,-7.13836 -2.27092,-14.07691 -2.26758,-17.64609 0.003,-3.23511 -0.32299,-8.42391 -0.72446,-11.53066 -0.40148,-3.10675 -0.54507,-8.89687 -0.3191,-12.86693 0.58151,-10.21631 3.39382,-27.11467 4.74376,-28.50389 0.37331,-0.38417 0.67874,-1.43585 0.67874,-2.33705 0,-0.90122 0.44017,-2.07873 0.97816,-2.61672 0.53797,-0.53798 0.83163,-1.41769 0.65255,-1.95491 -0.38911,-1.16733 2.00169,-6.73027 2.89248,-6.73027 0.34297,0 0.62359,-0.83165 0.62359,-1.84811 0,-1.01646 0.2773,-2.42263 0.61622,-3.12483 0.33892,-0.7022 2.48954,-5.0064 4.77915,-9.5649 2.28961,-4.55851 4.16292,-8.92293 4.16292,-9.69872 0,-0.77579 0.33087,-1.61501 0.73526,-1.86494 0.40438,-0.24992 0.73525,-1.03798 0.73525,-1.75122 0,-1.30899 3.48782,-9.18958 5.57046,-12.58622 0.61987,-1.01097 1.58654,-2.83073 2.14816,-4.04389 0.5616,-1.21317 2.44602,-3.75822 4.18759,-5.65568 1.74156,-1.89745 3.99364,-4.60079 5.00462,-6.00741 1.01097,-1.40663 2.67609,-3.05632 3.70027,-3.66598 1.02418,-0.60966 4.00196,-2.8261 6.61728,-4.92542 2.61533,-2.09933 5.5823,-4.18013 6.59328,-4.62403 1.01097,-0.44388 3.29454,-1.97595 5.0746,-3.40459 4.72682,-3.79365 9.49931,-7.03191 13.67436,-9.2784 5.03254,-2.7079 12.13168,-7.57791 12.13168,-8.32234 0,-0.90292 -7.70474,-2.84263 -13.60219,-3.42443 -2.83072,-0.27927 -8.45541,-1.45635 -12.49931,-2.61574 -4.04389,-1.1594 -8.67704,-2.11004 -10.29588,-2.11255 -1.61885,-0.002 -5.25654,-0.66607 -8.08375,-1.47458 -6.84161,-1.95653 -20.37267,-3.75873 -33.45573,-4.45599 -12.56022,-0.6694 -18.53667,-1.50043 -20.09575,-2.79435 -0.62264,-0.51675 -1.34004,-1.88641 -1.59423,-3.04369 -0.25418,-1.15729 -0.8888,-2.45825 -1.41028,-2.89104 -0.63992,-0.53108 -0.87255,-2.28041 -0.71564,-5.38138 0.44969,-8.88713 1.12129,-11.25013 6.11218,-21.50535 2.75524,-5.66145 5.42422,-11.617 5.93105,-13.23456 0.50683,-1.61756 1.20801,-3.25095 1.55818,-3.62974 0.35017,-0.3788 6.5139,-0.73181 13.69718,-0.78444 12.51238,-0.0917 15.6339,-0.47388 15.6339,-1.91414 0,-0.80676 -2.7251,-3.5976 -3.51287,-3.5976 -0.31452,0 -1.13844,-0.66173 -1.83093,-1.47051 -0.6925,-0.80878 -1.76312,-1.47051 -2.37914,-1.47051 -0.61604,0 -1.69458,-0.31833 -2.39678,-0.70741 -0.70219,-0.38908 -5.23317,-2.60258 -10.06884,-4.91888 -8.85974,-4.24384 -12.89785,-7.15514 -12.89785,-9.2988 0,-0.64003 -0.33086,-1.36818 -0.73525,-1.61811 -0.40439,-0.24992 -0.75944,-1.17933 -0.78899,-2.06534 -0.0296,-0.88601 -0.68764,-2.60352 -1.46242,-3.81668 -1.64078,-2.56922 -1.67322,-2.64493 -2.99248,-6.98491 -0.55317,-1.81975 -0.98592,-5.68327 -0.96166,-8.58559 0.0401,-4.80158 0.2844,-5.63887 2.71148,-9.29431 1.46705,-2.20954 4.39386,-5.4596 6.50401,-7.22235 2.11017,-1.76276 5.1345,-4.44553 6.72076,-5.96172 3.2358,-3.09288 3.14576,-3.09276 11.95927,-0.0171 9.98583,3.48484 30.83594,13.83115 41.1742,20.43159 2.02194,1.2909 4.54933,2.80894 5.61642,3.37343 1.06709,0.56447 3.54857,1.97869 5.5144,3.1427 1.96583,1.16401 5.55943,3.27934 7.98576,4.70073 2.42634,1.4214 5.56955,3.64357 6.98491,4.93815 1.41537,1.29459 3.73141,3.04803 5.14678,3.89655 1.41536,0.84852 4.66331,3.71225 7.21766,6.36385 2.55436,2.6516 5.06727,4.82109 5.58426,4.82109 0.51699,0 1.53883,0.66173 2.27077,1.47051 0.73194,0.80878 1.77581,1.47051 2.31972,1.47051 1.14845,0 1.33617,-1.90436 0.25367,-2.57339 -0.40439,-0.24993 -0.73526,-1.26528 -0.73526,-2.25634 0,-0.99108 -0.66172,-2.36854 -1.4705,-3.06103 -0.80878,-0.6925 -1.47051,-1.9932 -1.47051,-2.89043 0,-0.89723 -0.29659,-1.81464 -0.6591,-2.03868 -0.36251,-0.22404 -1.33714,-1.70819 -2.16585,-3.2981 -2.47791,-4.75397 -3.31084,-6.11785 -5.81428,-9.5205 -1.31426,-1.78633 -2.38957,-3.67258 -2.38957,-4.19166 0,-0.51908 -0.77582,-1.55405 -1.72404,-2.29992 -0.94822,-0.74587 -2.30938,-2.58963 -3.02479,-4.09726 -0.71541,-1.50759 -1.59391,-2.74109 -1.95223,-2.74109 -0.35831,0 -0.65147,-0.4963 -0.65147,-1.10288 0,-0.60659 -0.33087,-1.10288 -0.73526,-1.10288 -0.40439,0 -0.73846,-0.41358 -0.74239,-0.91907 -0.004,-0.50549 -1.16194,-2.3718 -2.57339,-4.14737 -1.41143,-1.77556 -2.56624,-3.66159 -2.56624,-4.19117 0,-0.52958 -0.41358,-1.22746 -0.91907,-1.55085 -1.56464,-1.00097 -6.9464,-12.1531 -7.73491,-16.02829 -0.41141,-2.02195 -0.50791,-5.33059 -0.21443,-7.35254 1.04948,-7.23055 3.91733,-11.35039 9.96793,-14.31948 1.6194,-0.79465 3.77153,-1.93695 4.7825,-2.53842 2.30706,-1.37258 16.31836,-8.03313 20.12545,-9.56703 1.56584,-0.63089 4.22983,-1.14707 5.91996,-1.14707 2.66137,0 3.54319,0.45703 6.58364,3.4122 3.51801,3.41933 5.71171,6.36794 9.43885,12.68697 2.31631,3.92712 3.51781,6.49128 3.51781,7.50754 0,0.39498 0.66173,1.42842 1.47051,2.29654 0.80878,0.86813 1.47051,2.15411 1.47051,2.85775 0,0.70365 0.57691,1.85626 1.28202,2.56137 1.40074,1.40075 2.62127,3.33908 3.87918,6.16059 0.44705,1.00274 1.079,1.99533 1.40435,2.20576 1.30803,0.84603 6.00627,8.97978 5.86511,10.15389 -0.0831,0.69163 0.40571,2.58096 1.08634,4.19851 3.40113,8.08298 4.52309,10.41446 5.66111,11.76406 0.68198,0.80878 1.48476,2.27491 1.78394,3.25807 0.29918,0.98316 1.16313,2.80291 1.91989,4.04389 0.75676,1.24099 1.37716,2.98125 1.37867,3.86726 0.001,0.88601 0.30003,1.79466 0.66336,2.01921 1.04494,0.64581 4.49586,12.03228 4.02138,13.26875 -0.23529,0.61315 -0.12051,1.11482 0.25505,1.11482 0.63079,0 3.886,6.3948 3.886,7.63396 0,0.30057 1.03386,2.69013 2.29747,5.31014 1.26361,2.62001 2.12331,4.93781 1.91045,5.15067 -0.21285,0.21286 0.66826,2.26688 1.95803,4.5645 2.67771,4.7701 4.42874,5.4779 7.73228,3.12557 1.1752,-0.83681 2.34353,-1.52147 2.59629,-1.52147 0.43394,0 4.60612,-3.06691 10.97318,-8.06621 1.56019,-1.22504 3.3422,-2.22734 3.96002,-2.22734 0.61782,0 3.9734,-1.3559 7.45683,-3.0131 10.61559,-5.05024 12.34395,-5.80994 13.21783,-5.80994 0.46266,0 2.07584,-0.66173 3.58485,-1.47051 1.509,-0.80878 3.28532,-1.47051 3.94737,-1.47051 0.66206,0 3.81016,-0.86344 6.9958,-1.91877 10.63867,-3.52432 18.69783,-5.07669 39.24609,-7.55964 17.79581,-2.15035 38.00791,-2.16792 41.9905,-0.0365 0.71103,0.38054 2.35004,0.69188 3.64225,0.69188 1.2922,0 5.03618,0.68696 8.31994,1.52659 3.28376,0.83962 7.12849,1.80268 8.54385,2.14015 1.41537,0.33747 5.61637,1.47026 9.33557,2.51731 3.7192,1.04706 7.3087,1.90374 7.97667,1.90374 0.66797,0 2.25708,0.45862 3.53137,1.01916 2.16932,0.95427 5.33211,2.03966 15.18381,5.21075 2.22414,0.7159 4.20933,1.53131 4.41152,1.81201 0.2022,0.28071 3.51084,2.02206 7.35254,3.86969 3.84169,1.84762 7.71551,4.05915 8.60848,4.91452 0.89297,0.85536 1.80571,1.55521 2.02832,1.55521 0.8363,0 6.78752,4.65425 10.68554,8.35683 2.22415,2.11263 6.0175,6.30771 8.42968,9.32239 2.41218,3.0147 4.72823,5.88335 5.14677,6.37481 2.27171,2.66742 2.59913,3.15299 2.59913,3.85456 0,0.42146 0.33086,0.76629 0.73525,0.76629 0.40439,0 0.73526,0.49349 0.73526,1.09665 0,0.60316 0.66172,1.5099 1.4705,2.01499 0.80878,0.50509 1.47051,1.34889 1.47051,1.87511 0,0.52622 0.57901,1.58639 1.28669,2.35593 0.70769,0.76954 2.10898,2.98904 3.11399,4.93222 1.00502,1.94317 2.24576,3.97026 2.7572,4.50463 0.51145,0.53437 0.92991,1.30192 0.92991,1.70566 0,0.40374 0.99259,2.17676 2.20576,3.94004 1.21317,1.76328 2.20576,3.88799 2.20576,4.72158 0,0.83358 0.66173,1.92887 1.47051,2.43396 0.80877,0.50509 1.47971,1.41777 1.49096,2.02818 0.0113,0.61041 1.00384,2.4095 2.20576,3.99801 1.20192,1.5885 2.1853,3.63276 2.1853,4.54281 0,0.91005 0.42613,2.09185 0.94696,2.62622 1.80225,1.84911 4.60902,8.99411 7.16917,18.25004 2.20607,7.97581 2.26227,8.22725 2.41026,10.78413 0.0741,1.28079 0.38294,2.57667 0.68623,2.87974 0.81003,0.80944 0.67204,3.24696 -0.18382,3.24696 -0.40439,0 -0.76056,-0.41358 -0.7915,-0.91906 -0.12445,-2.03319 -2.83482,-12.03127 -4.13587,-15.25651 -0.24469,-0.60659 -0.47828,-1.43375 -0.51907,-1.83814 -0.1214,-1.2032 -2.69399,-7.89222 -4.1003,-10.66117 -6.55601,-12.90849 -11.46559,-21.9459 -12.60767,-23.20787 -0.75553,-0.83482 -1.3737,-1.79008 -1.3737,-2.12277 0,-0.33271 -1.48888,-2.8649 -3.30864,-5.62711 -1.81975,-2.76222 -3.30864,-5.17491 -3.30864,-5.36156 0,-0.39655 -4.61306,-7.08572 -9.03871,-13.10657 -5.5015,-7.4845 -14.02131,-16.43101 -18.10359,-19.01026 -2.18999,-1.38368 -4.8369,-3.20857 -5.88202,-4.0553 -2.11901,-1.71677 -18.84744,-10.52211 -22.85494,-12.03015 -1.41536,-0.5326 -5.38573,-1.75525 -8.82304,-2.71698 -3.43731,-0.96173 -7.24224,-2.04734 -8.45541,-2.41245 -1.21317,-0.36512 -4.52181,-1.35966 -7.35254,-2.2101 -2.83072,-0.85044 -7.43724,-1.87723 -10.23671,-2.28175 -2.79946,-0.40452 -5.44637,-1.00811 -5.88203,-1.3413 -1.13108,-0.86506 -11.62701,-2.91336 -17.79,-3.47175 -5.20594,-0.47167 -5.24909,-0.46059 -8.08779,2.07855 -3.72679,3.33349 -5.53866,4.2357 -8.5038,4.23439 -1.34085,-5.9e-4 -7.07001,0.80255 -12.73146,1.78476 -5.66145,0.98222 -12.27873,2.1043 -14.70507,2.49352 -2.42633,0.38923 -6.23127,1.27408 -8.45541,1.96636 -2.22414,0.69227 -6.52538,1.88118 -9.5583,2.64202 -3.03292,0.76085 -6.50699,1.75249 -7.72016,2.20366 -10.60148,3.94265 -13.95333,5.30282 -18.74896,7.6083 -3.03292,1.45805 -6.13874,3.00709 -6.90183,3.4423 -0.76308,0.43522 -2.58284,1.46064 -4.04389,2.27875 -1.46106,0.81809 -3.48363,2.03964 -4.4946,2.71455 -1.01097,0.67491 -2.77807,1.70075 -3.92687,2.27966 -4.39971,2.21711 -14.50455,13.45751 -24.74801,27.52912 -4.75459,6.53145 -10.6999,13.0284 -13.81006,15.09141 -0.89664,0.59476 -1.63236,1.42192 -1.63491,1.83814 -0.002,0.41621 -0.91244,1.32648 -2.02195,2.02282 -1.10952,0.69634 -3.83705,2.59441 -6.06119,4.21796 -2.22414,1.62354 -5.20251,3.56989 -6.61859,4.32521 -2.77409,1.47969 -5.48293,3.59726 -9.10715,7.11931 -1.25838,1.22291 -4.17148,3.12629 -6.47354,4.22973 -2.30207,1.10344 -4.38949,2.33621 -4.63873,2.73949 -0.24924,0.40327 -1.08395,0.73322 -1.85492,0.73322 -0.77097,0 -2.41717,0.99259 -3.65822,2.20576 -1.24106,1.21317 -2.841,2.20576 -3.55542,2.20576 -0.71444,0 -3.39516,1.40617 -5.95718,3.12483 -2.56202,1.71865 -5.18835,3.45569 -5.83629,3.86008 -0.64794,0.40439 -2.94543,2.30686 -5.10553,4.2277 -2.1601,1.92085 -4.39927,3.49246 -4.97594,3.49246 -0.57667,0 -1.7677,0.82716 -2.64673,1.83813 -0.87903,1.01098 -2.11758,1.844 -2.75234,1.85117 -0.63475,0.007 -3.47015,1.65855 -6.30087,3.66973 -2.83073,2.01119 -5.97393,4.06687 -6.98491,4.56821 -2.35156,1.16611 -13.99853,12.8701 -16.03685,16.11536 -0.8534,1.35873 -2.39176,3.43175 -3.41857,4.60672 -1.02681,1.17498 -1.86693,2.39033 -1.86693,2.70079 0,0.31047 -0.78906,1.50222 -1.75346,2.64835 -3.50935,4.17062 -7.32593,11.25466 -9.76033,18.11632 -3.76008,10.59829 -8.35668,27.81022 -8.34423,31.2449 0.004,0.93646 -0.31644,2.30548 -0.71076,3.04226 -1.12923,2.11 -1.28427,15.02858 -0.29618,24.68006 0.94405,9.22142 3.54689,25.14477 4.62469,28.29242 0.87285,2.54908 1.83366,6.20931 4.51488,17.19954 2.84088,11.64463 7.50558,21.82955 17.21022,37.57684 1.74451,2.83072 4.89677,8.43098 7.00503,12.44501 2.10827,4.01403 4.5436,8.31526 5.41184,9.5583 1.65222,2.3654 9.36984,11.3257 13.62219,15.81562 1.36476,1.441 2.95423,3.33364 3.53214,4.20584 0.57793,0.87221 3.92797,3.29545 7.44455,5.38496 3.51657,2.08952 8.37896,5.02237 10.8053,6.51746 2.42633,1.49508 6.56213,3.69286 9.19066,4.88395 2.62853,1.19109 5.62964,2.73596 6.66913,3.43304 2.05138,1.37567 9.23254,3.75153 27.52016,9.10492 6.47023,1.89405 12.97577,4.06034 14.45677,4.81398 8.0072,4.07464 20.86039,7.21985 25.45255,6.22831 1.84709,-0.39882 18.95087,-1.13374 32.88076,-1.41284 8.40708,-0.16844 24.42102,-1.88553 28.30726,-3.03523 1.81975,-0.53836 4.25914,-1.19013 5.42086,-1.44838 l 2.11222,-0.46955 -4.24587,-4.29824 c -5.07553,-5.13811 -5.00225,-5.01532 -7.82334,-13.11057 -1.82197,-5.22824 -2.2557,-7.70454 -2.34679,-13.3985 -0.17932,-11.20939 1.04583,-16.57215 5.81894,-25.47067 2.27709,-4.24518 5.10234,-8.81437 6.27834,-10.15376 1.17599,-1.33938 2.13818,-2.80515 2.13818,-3.25725 0,-0.4521 0.32299,-0.822 0.71776,-0.822 0.39476,0 2.62809,-2.54257 4.96296,-5.65016 5.50183,-7.32267 14.95888,-16.37694 18.74235,-17.94411 1.12533,-0.46612 2.04605,-1.13822 2.04605,-1.49355 0,-0.35533 0.48478,-0.64605 1.07729,-0.64605 0.59252,0 2.2078,-0.99259 3.58952,-2.20576 1.38172,-1.21317 2.88212,-2.20576 3.33423,-2.20576 0.4521,0 0.822,-0.33087 0.822,-0.73526 0,-0.40439 0.35449,-0.73525 0.78777,-0.73525 0.43327,0 1.24895,-0.41358 1.81261,-0.91907 2.52457,-2.26399 3.28497,-2.7572 4.25089,-2.7572 0.56722,0 2.15279,-0.7558 3.52349,-1.67957 4.35326,-2.93382 14.84584,-7.70614 19.03538,-8.65783 2.22414,-0.50522 4.54019,-1.16931 5.14677,-1.47573 0.60658,-0.30642 4.08066,-1.25939 7.72016,-2.11771 3.63951,-0.85831 8.42642,-2.04537 10.6376,-2.6379 4.76093,-1.27581 19.26258,-1.4386 27.72619,-0.31126 8.03901,1.0708 14.36267,4.20898 16.69302,8.28408 0.96918,1.69484 2.15326,4.31579 2.63127,5.82435 0.99702,3.14645 0.33286,5.16707 -0.97334,2.96128 -2.54492,-4.29759 -4.21653,-6.35237 -6.09928,-7.49732 -6.3835,-3.88205 -19.44841,-6.1341 -32.60175,-5.61969 -7.4507,0.29139 -22.22141,3.53007 -30.76358,6.74533 -2.58702,0.97375 -5.164,1.77045 -5.72663,1.77045 -0.56263,0 -3.70305,1.32346 -6.97871,2.94102 -3.27566,1.61755 -6.38219,2.94101 -6.90339,2.94101 -0.52122,0 -2.66847,1.15802 -4.7717,2.57339 -2.10322,1.41536 -4.10521,2.57338 -4.44887,2.57338 -0.34366,0 -0.88942,0.41358 -1.21281,0.91907 -0.6675,1.04338 -2.72118,2.41306 -5.24975,3.50128 -2.83864,1.22166 -12.06075,9.1023 -16.3357,13.95948 -2.20063,2.50035 -4.8283,5.45622 -5.83927,6.56859 -2.87666,3.16521 -4.09873,4.79185 -4.61936,6.1486 -0.26469,0.68978 -0.98794,1.25413 -1.60722,1.25413 -0.61928,0 -1.12595,0.45168 -1.12595,1.00373 0,0.55205 -0.66173,1.84498 -1.47051,2.87317 -0.80878,1.02819 -1.47051,2.37983 -1.47051,3.00364 0,0.6238 -0.448,1.39877 -0.99555,1.72216 -1.27134,0.75086 -2.936,3.88642 -2.36593,4.45648 0.23865,0.23866 -0.21336,1.12292 -1.00447,1.96502 -0.79112,0.8421 -1.55816,2.69854 -1.70454,4.12542 -0.14638,1.42688 -0.51372,2.9949 -0.8163,3.48449 -0.30259,0.48959 -0.61265,4.11695 -0.68902,8.06081 -0.21594,11.15114 3.23522,21.76913 8.39476,25.82762 3.82818,3.01124 8.9664,4.03125 17.07689,3.39001 9.06806,-0.71695 12.55376,-0.75827 22.5431,-0.26721 4.77996,0.23497 10.10032,0.003 13.96981,-0.6094 3.43731,-0.54389 11.21262,-1.04 17.27846,-1.10245 14.80406,-0.15244 21.24128,1.45002 31.6159,7.87037 2.02194,1.25129 5.30453,3.08693 7.29463,4.07921 2.3638,1.17861 7.01627,5.2327 13.41837,11.69257 5.39001,5.43864 9.80001,10.18579 9.80001,10.54923 0,0.36344 1.77922,3.19265 3.95383,6.28714 4.65596,6.62551 9.57852,16.1838 10.47076,20.33142 0.83869,3.89871 0.62546,19.27464 -0.28319,20.42054 -0.3933,0.496 -0.94152,2.15778 -1.21826,3.69285 -0.42626,2.36449 -0.24427,3.00686 1.19082,4.20324 1.80485,1.50463 6.799,1.98313 7.57602,0.72588 0.7566,-1.2242 1.82566,-0.82301 1.31979,0.49528 -1.17345,3.058 -6.9905,6.3662 -12.71622,7.2318 -1.81975,0.2752 -4.40286,1.1306 -5.74024,1.901 -1.33738,0.7704 -2.52045,1.4007 -2.62904,1.4007 -0.10859,0 -0.96373,-0.8157 -1.90033,-1.8126 z M -548.1092,580.44132 c 3.08525,-1.2891 3.18265,-2.06012 0.50146,-3.9693 -1.12657,-0.80219 -2.48644,-2.27719 -3.02194,-3.27778 -0.5355,-1.00058 -1.84709,-2.26925 -2.91465,-2.81925 -2.42519,-1.24943 -4.36553,-3.44012 -4.9559,-5.59533 -0.24924,-0.90987 -0.84301,-1.65432 -1.31946,-1.65432 -0.47647,0 -2.83937,-2.02888 -5.25089,-4.50863 -2.41152,-2.47974 -5.5426,-5.35602 -6.95797,-6.39173 -1.41536,-1.0357 -3.40054,-2.60795 -4.41152,-3.49389 -1.01097,-0.88594 -4.65048,-3.03673 -8.08779,-4.77954 -3.43731,-1.74281 -6.68199,-3.76636 -7.21041,-4.49679 -0.52841,-0.73041 -1.37615,-1.32803 -1.88384,-1.32803 -0.5077,0 -2.31063,-0.67039 -4.00652,-1.48975 -3.78899,-1.83064 -7.48632,-2.63684 -7.48632,-1.63237 0,0.40587 -1.02769,1.16364 -2.28375,1.68391 -2.34574,0.97165 -5.12256,0.52945 -16.46521,-2.62199 -3.87608,-1.07694 -23.45918,-1.188 -25.12345,-0.1425 -1.24609,0.7828 -4.44687,6.7312 -5.01578,9.32141 -0.26781,1.21933 -0.79233,2.40571 -1.16561,2.63641 -0.37328,0.2307 -0.68007,0.97894 -0.68177,1.66275 -0.001,0.68382 -0.82885,2.87098 -1.83813,4.86037 -1.00928,1.98938 -1.83505,4.71901 -1.83505,6.06584 0,2.84095 -0.49109,2.73024 11.0288,2.48629 4.24609,-0.0899 8.59888,0.17569 9.67288,0.59024 1.07399,0.41454 5.3667,1.12938 9.53933,1.58853 7.72282,0.84979 27.12624,4.57391 37.76993,7.24921 3.23511,0.81315 8.03264,1.81581 10.66117,2.22815 8.04302,1.26169 14.2613,3.28415 23.89574,7.77195 2.89465,1.34834 5.71119,1.36622 8.84665,0.0562 z m 12.84332,-6.84935 c 1.81976,-0.71293 4.6321,-2.14616 6.24966,-3.18496 1.61755,-1.0388 4.59533,-2.83759 6.61728,-3.99731 2.02194,-1.15972 5.43304,-3.39075 7.58023,-4.95784 3.18489,-2.32445 3.74386,-3.04214 3.03479,-3.89652 -0.47803,-0.576 -1.24237,-1.04728 -1.69852,-1.04728 -1.48536,0 -9.7201,-8.61717 -19.9453,-20.87157 -1.61756,-1.93857 -3.79725,-4.42822 -4.84376,-5.53256 -1.04651,-1.10434 -2.52401,-3.05963 -3.28335,-4.34508 -0.75934,-1.28545 -1.64014,-2.33719 -1.95734,-2.33719 -0.3172,0 -0.57673,-0.47946 -0.57673,-1.06546 0,-0.58601 -1.14505,-1.93884 -2.54456,-3.00629 -1.39951,-1.06746 -2.74526,-2.57318 -2.99056,-3.34606 -0.2453,-0.77288 -0.90356,-1.40523 -1.4628,-1.40523 -0.55923,0 -1.28138,-0.42152 -1.60477,-0.93672 -0.32339,-0.51519 -1.51262,-1.52509 -2.64274,-2.24422 -1.13012,-0.71912 -2.33696,-2.04971 -2.68186,-2.95686 -0.76084,-2.00118 -6.81936,-7.09676 -8.43787,-7.09676 -0.63962,0 -1.1652,-0.24815 -1.16797,-0.55144 -0.003,-0.3033 -1.23406,-1.3786 -2.7362,-2.38958 -2.48565,-1.67289 -3.35827,-2.37259 -6.81707,-5.46622 -0.60659,-0.54253 -3.69378,-2.33835 -6.86043,-3.9907 -3.16666,-1.65234 -7.34679,-4.17086 -9.28918,-5.59671 -1.94239,-1.42585 -3.84959,-2.59245 -4.23823,-2.59245 -0.38863,0 -1.33611,-0.6956 -2.10551,-1.54578 -0.76941,-0.85018 -2.39229,-2.04691 -3.60641,-2.65939 -1.21413,-0.61249 -2.86923,-1.71322 -3.678,-2.44606 -0.80878,-0.73285 -4.04591,-2.19498 -7.19362,-3.24918 -3.14771,-1.0542 -6.95265,-2.62389 -8.45542,-3.4882 -5.23117,-3.00868 -10.7272,-5.72798 -11.57694,-5.72798 -0.47045,0 -1.93191,-0.53706 -3.24769,-1.19345 -1.31579,-0.6564 -4.42868,-1.35692 -6.91754,-1.5567 l -4.5252,-0.36324 -5.14329,5.08444 c -6.42236,6.34887 -6.68981,6.71476 -7.72888,10.57357 -1.02908,3.82172 -0.51973,7.68522 1.88857,14.32486 3.27013,9.01573 4.40009,10.14919 15.03445,15.08114 1.81976,0.84396 3.57323,2.00711 3.89662,2.58478 0.32339,0.57767 1.31598,1.05155 2.20576,1.05306 0.88978,10e-4 2.61038,0.60723 3.82355,1.34605 2.64454,1.61052 8.4274,4.8993 12.55579,7.14062 1.64862,0.89505 5.94986,3.5938 9.5583,5.99722 3.60843,2.40342 7.88424,4.9732 9.5018,5.71062 1.61756,0.73742 4.35084,2.30325 6.07397,3.4796 1.72312,1.17636 4.36258,2.65261 5.86546,3.28056 1.50288,0.62794 4.12304,2.09842 5.82257,3.26772 1.69952,1.16931 3.41271,2.12601 3.80707,2.12601 0.39437,0 2.15451,1.154 3.91143,2.56443 1.75691,1.41044 4.16362,3.3129 5.34824,4.22771 1.18461,0.91481 7.18908,6.62624 13.34325,12.69208 17.44673,17.1963 17.26532,17.08588 23.83895,14.51052 z m 33.15697,-23.25589 c 2.26295,-1.77652 5.38281,-4.8368 6.93303,-6.80063 1.55021,-1.96382 4.57895,-5.29318 6.73053,-7.39858 3.59417,-3.51702 4.95081,-6.09793 3.20535,-6.09793 -1.55737,0 -3.58279,-3.24851 -4.04766,-6.49191 -0.69764,-4.86758 -1.95423,-9.12283 -3.09434,-10.47858 -0.53771,-0.6394 -0.75837,-1.38183 -0.49038,-1.64982 0.268,-0.268 -0.0118,-1.06831 -0.62188,-1.77847 -1.62211,-1.88833 -2.11154,-3.71668 -1.10756,-4.13747 0.57711,-0.24187 0.31112,-0.86515 -0.77656,-1.81967 -0.90988,-0.79849 -1.65432,-2.07324 -1.65432,-2.8328 0,-0.75955 -0.66173,-2.67894 -1.47051,-4.26531 -0.80877,-1.58638 -1.4705,-3.6547 -1.4705,-4.59628 0,-0.94158 -0.66173,-3.00905 -1.47051,-4.59439 -0.80878,-1.58534 -1.47051,-3.55734 -1.47051,-4.38223 0,-0.82489 -0.33086,-1.4998 -0.73525,-1.4998 -0.40439,0 -0.73525,-0.44502 -0.73525,-0.98892 0,-0.54391 -0.63942,-1.56759 -1.42092,-2.27484 -0.78151,-0.70726 -1.24241,-1.75113 -1.02422,-2.31972 0.21819,-0.56859 0.0304,-1.0338 -0.41721,-1.0338 -0.44766,0 -0.81392,-0.66173 -0.81392,-1.4705 0,-0.80878 -0.33796,-1.47051 -0.75102,-1.47051 -0.41306,0 -1.12128,-0.90988 -1.57383,-2.02195 -0.45255,-1.11207 -1.27261,-3.06454 -1.82237,-4.33882 -0.54976,-1.27429 -0.99955,-2.81229 -0.99955,-3.41779 0,-0.60551 -0.9926,-2.98787 -2.20576,-5.29414 -1.21317,-2.30627 -2.20576,-4.66249 -2.20576,-5.23604 0,-0.57356 -0.80837,-2.32336 -1.79637,-3.88846 -0.988,-1.5651 -1.6477,-2.9943 -1.466,-3.17599 0.1817,-0.1817 -0.31108,-0.91087 -1.09506,-1.62037 -0.78399,-0.7095 -1.25665,-1.72983 -1.05036,-2.2674 0.20628,-0.53758 -0.31232,-1.3453 -1.15247,-1.79492 -0.84014,-0.44963 -1.52753,-1.2461 -1.52753,-1.76992 0,-0.52382 -0.81582,-2.56384 -1.81293,-4.5334 -0.99712,-1.96954 -1.66095,-3.73297 -1.47518,-3.91874 0.18575,-0.18576 -0.32188,-0.79976 -1.12809,-1.36445 -0.8062,-0.56469 -1.46583,-1.51134 -1.46583,-2.10366 0,-1.28569 -3.6237,-6.92745 -4.44949,-6.92745 -0.3178,0 -1.68,-1.16919 -3.02713,-2.5982 -3.5947,-3.81323 -6.85859,-4.57214 -12.55909,-2.92024 -3.84639,1.11462 -8.98651,3.31052 -14.5212,6.20356 -0.60658,0.31707 -2.2609,1.16774 -3.67627,1.89039 -10.0569,5.1348 -14.75034,13.11473 -12.04118,20.47276 1.97078,5.35258 4.9391,11.50864 5.54923,11.50864 0.3246,0 1.09444,1.20683 1.71074,2.68184 0.6163,1.47503 1.589,3.04663 2.16155,3.49246 0.57256,0.44583 1.80979,2.23531 2.74941,3.9766 3.07215,5.69332 3.38912,6.19156 4.94403,7.77126 2.24507,2.28087 6.06197,7.70723 8.08621,11.49587 0.96995,1.81541 2.20117,3.81258 2.73604,4.43815 0.86396,1.01046 3.15521,5.05848 5.19841,9.1842 0.3929,0.79335 1.26663,2.54458 1.94164,3.89161 0.67501,1.34704 1.22729,2.9022 1.22729,3.45592 0,0.55372 0.471,1.27135 1.04667,1.59474 0.57567,0.32338 2.10879,2.57315 3.40694,4.99949 6.72869,12.57648 8.79919,16.77004 8.45155,17.11769 -0.31552,0.31552 8.06189,9.88529 13.93806,15.92191 0.81235,0.83452 2.79753,3.17163 4.41152,5.19358 5.3472,6.69875 6.33573,6.88384 12.19577,2.28343 z m 263.61952,423.4283 c 0.23278,-0.60658 0.55325,-1.10288 0.71218,-1.10288 0.15893,0 0.28897,0.4963 0.28897,1.10288 0,0.60659 -0.32049,1.10288 -0.71218,1.10288 -0.3917,0 -0.52173,-0.49629 -0.28897,-1.10288 z m 3.20691,-6.20626 c 0,-0.38052 0.32707,-0.89401 0.72683,-1.14107 0.41679,-0.25758 0.54005,0.0376 0.28896,0.69186 -0.48879,1.27377 -1.01579,1.50682 -1.01579,0.44921 z m 1.07067,-5.49679 c 0.21442,-1.78621 0.68969,-4.03628 1.05616,-5.00018 0.36647,-0.96389 0.52768,-2.56294 0.35825,-3.55345 -0.16943,-0.99051 -0.76188,-6.26758 -1.31656,-11.72684 -0.86564,-8.51986 -1.31964,-10.49876 -3.20496,-13.96982 -1.20806,-2.22414 -2.9952,-5.53278 -3.97142,-7.35253 -0.97623,-1.81975 -3.06985,-5.29382 -4.65249,-7.72016 -1.58264,-2.42634 -4.9912,-8.49647 -7.57456,-13.4892 -2.58336,-4.99272 -6.59444,-11.61 -8.91351,-14.70506 -4.13633,-5.52041 -8.21251,-11.98282 -8.28384,-13.13327 -0.0199,-0.32006 -0.33326,-1.36357 -0.69649,-2.31893 -0.36323,-0.95536 -0.59399,-2.11338 -0.51281,-2.57339 0.0812,-0.46 -0.22976,-2.65612 -0.69096,-4.88026 -1.40215,-6.76185 -1.27302,-9.98984 0.57357,-14.33745 0.34351,-0.80877 1.66678,-4.2557 2.94058,-7.65983 1.2738,-3.40413 3.06811,-7.20906 3.98735,-8.45541 0.91923,-1.24635 2.43719,-3.92041 3.37323,-5.94236 0.93605,-2.02195 2.25977,-4.50343 2.94163,-5.5144 0.68185,-1.01097 2.65744,-4.48505 4.39019,-7.72016 1.73277,-3.23512 3.60175,-6.40437 4.15332,-7.0428 0.55156,-0.63843 1.00283,-1.48592 1.00283,-1.88331 0,-0.39739 0.63127,-1.40011 1.40281,-2.22827 0.77154,-0.82816 2.06054,-2.79301 2.86444,-4.36635 1.49193,-2.91993 4.78753,-8.15808 9.1179,-14.49236 1.33254,-1.94919 4.4907,-5.66888 7.01813,-8.266 2.52744,-2.59711 4.59534,-5.18545 4.59534,-5.75185 0,-0.5664 0.49629,-1.22026 1.10288,-1.45304 0.60658,-0.23276 1.10288,-0.76445 1.10288,-1.18154 0,-0.41708 0.57901,-1.39634 1.28669,-2.17613 2.36219,-2.6029 2.82447,-3.33176 5.4804,-8.64074 1.45263,-2.90367 2.91431,-5.71601 3.24818,-6.24965 0.33387,-0.53365 0.63469,-1.30113 0.66849,-1.70552 0.0338,-0.40439 0.26879,-1.23155 0.52218,-1.83813 1.28054,-3.06529 4.18472,-12.68347 4.03657,-13.36845 -0.0934,-0.43184 0.24376,-0.93682 0.74925,-1.12217 1.73433,-0.63592 0.87561,2.70163 -3.8229,14.85825 -1.09407,2.83072 -2.30933,6.21964 -2.70058,7.53091 -0.86139,2.88698 -5.46544,11.08788 -7.99777,14.24596 -1.01098,1.26079 -2.57336,3.19998 -3.47196,4.30932 -0.8986,1.10934 -1.48039,2.17041 -1.29286,2.35794 0.18752,0.18752 -1.36704,2.1359 -3.45459,4.32974 -4.23184,4.44732 -10.16193,13.17884 -10.16193,14.96254 0,0.63687 -0.41358,1.16883 -0.91907,1.18214 -0.95832,0.0252 -5.34903,6.51836 -8.68435,12.84274 -1.93321,3.66569 -5.12129,8.73379 -6.59079,10.47736 -0.42602,0.50548 -0.60268,0.91906 -0.39255,0.91906 0.21013,0 -0.44666,1.48437 -1.45953,3.29859 -1.01287,1.81422 -1.77711,3.38582 -1.6983,3.49245 0.0788,0.10663 -0.75218,1.61235 -1.84661,3.34605 -1.09444,1.7337 -1.79301,3.47073 -1.55238,3.86008 0.24063,0.38935 0.12571,0.7079 -0.25538,0.7079 -0.38109,0 -0.88238,0.57901 -1.11398,1.2867 -0.23159,0.70768 -1.31553,2.77558 -2.40875,4.59533 -1.09323,1.81975 -2.03795,3.80494 -2.09939,4.41152 -0.0615,0.60658 -0.47218,1.76461 -0.91276,2.57339 -0.44059,0.80878 -1.20728,3.53593 -1.70377,6.06035 -0.6982,3.55 -0.70456,4.8286 -0.0281,5.64367 0.48103,0.5796 0.78738,1.49195 0.68079,2.02743 -0.60091,3.01874 3.91542,11.90301 11.13309,21.90041 1.81975,2.52059 4.15913,6.15568 5.19861,8.07796 1.03949,1.92228 2.94195,5.35906 4.22771,7.6373 1.28576,2.27823 2.33773,4.5395 2.33773,5.02505 0,0.48555 0.62923,1.56587 1.3983,2.40071 2.27402,2.46852 10.34684,18.61299 10.78971,21.57785 0.22453,1.5031 0.76331,4.05636 1.19729,5.67392 0.43399,1.61756 1.1789,6.50942 1.65536,10.87082 0.8129,7.44109 0.67106,10.48324 -1.04438,22.3994 -0.0146,0.10109 -0.36957,0.18381 -0.78893,0.18381 -0.47021,0 -0.61304,-1.24482 -0.37262,-3.24764 z m -244.22538,-83.69608 c -1.99322,-2.17987 -3.89044,-5.99538 -3.89044,-7.82407 0,-0.805 -0.29262,-1.64448 -0.65028,-1.86552 -2.10104,-1.29851 -2.89738,-23.93236 -0.92996,-26.432 0.35709,-0.45369 1.40478,-3.14094 2.32821,-5.97167 2.10988,-6.46774 9.64635,-22.28797 11.58615,-24.32111 0.80195,-0.84055 2.35201,-2.94431 3.44456,-4.67505 1.09257,-1.73073 4.57573,-5.67511 7.74035,-8.76529 12.33962,-12.04932 22.26912,-21.11455 24.44789,-22.31991 1.25373,-0.6936 2.47158,-1.5293 2.70635,-1.85713 0.77534,-1.08269 6.50734,-5.3372 7.19068,-5.3372 0.36861,0 2.80248,-1.75764 5.4086,-3.90587 5.31251,-4.37912 11.44017,-8.44021 15.79744,-10.46971 1.60092,-0.74566 3.0762,-1.57898 3.27839,-1.85182 0.2022,-0.27284 2.84911,-1.73299 5.88203,-3.24478 3.03292,-1.51179 6.0107,-3.18469 6.61728,-3.71755 0.60658,-0.53287 1.26831,-0.97156 1.47051,-0.97488 0.20219,-0.004 1.85651,-0.68137 3.67626,-1.50676 1.81976,-0.82539 3.6776,-1.50797 4.12855,-1.51686 0.45096,-0.009 1.60898,-0.61909 2.57339,-1.35602 2.42925,-1.85624 8.78751,-4.04385 20.87007,-7.1805 11.09513,-2.88032 13.56813,-3.33751 27.50948,-5.0857 9.24786,-1.15964 40.48316,-1.72996 48.58925,-0.88716 10.62017,1.10417 19.02921,3.17064 28.30725,6.95632 2.02195,0.825 4.75485,1.90721 6.07312,2.40491 1.51689,0.57269 3.47392,2.42319 5.33059,5.04039 3.24437,4.57336 3.45571,5.36038 1.80686,6.72881 -0.95404,0.79179 -1.67222,0.36041 -4.68286,-2.81282 -1.95581,-2.06141 -4.5092,-3.9864 -5.67423,-4.27774 -1.88097,-0.47038 -5.25454,-1.85053 -12.41177,-5.07771 -1.21317,-0.54701 -5.01811,-1.57729 -8.45542,-2.2895 -8.08609,-1.67543 -42.52334,-2.26822 -55.144,-0.94922 -4.65048,0.48603 -9.61344,0.96891 -11.0288,1.07307 -4.1144,0.3028 -24.41697,4.70694 -26.83675,5.82157 -1.21317,0.55882 -4.35638,1.61075 -6.98491,2.33761 -2.62853,0.72686 -5.60631,1.74529 -6.61728,2.26316 -1.01098,0.51788 -2.33443,0.95079 -2.94102,0.96202 -0.60658,0.0113 -3.25349,1.16242 -5.88202,2.5582 -2.62853,1.39577 -7.0952,3.70362 -9.92592,5.12856 -7.87099,3.9621 -11.14228,5.81431 -12.6202,7.1456 -0.74229,0.66864 -3.08666,2.08641 -5.2097,3.1506 -2.12304,1.0642 -3.86008,2.26433 -3.86008,2.66696 0,0.40263 -0.90988,1.12966 -2.02195,1.61562 -1.11207,0.48597 -2.68367,1.45093 -3.49245,2.14436 -2.35561,2.01965 -6.99848,5.43871 -11.94787,8.79854 -2.52743,1.71572 -4.59533,3.54562 -4.59533,4.06643 0,0.52082 -0.27691,0.94694 -0.61534,0.94694 -0.33843,0 -2.28364,1.57161 -4.32268,3.49246 -10.42221,9.81812 -11.97703,11.21307 -12.50427,11.21852 -0.31428,0.003 -1.89488,1.53934 -3.51243,3.41353 -1.61756,1.87419 -3.52003,3.93025 -4.22771,4.56902 -0.70768,0.63876 -1.2867,1.45106 -1.2867,1.8051 0,0.35404 -1.81975,3.22595 -4.04389,6.38202 -2.22414,3.15606 -4.04389,6.24741 -4.04389,6.86965 0,0.62224 -0.33087,1.33583 -0.73526,1.58576 -0.40439,0.24993 -0.73525,1.0561 -0.73525,1.7915 0,0.7354 -0.49477,1.74771 -1.0995,2.24959 -0.60472,0.50187 -1.49849,2.27942 -1.98615,3.95011 -0.48766,1.67068 -1.08562,3.20303 -1.3288,3.40523 -1.33211,1.10759 -3.45356,8.35633 -3.65811,12.49931 -0.69993,14.17651 -0.0945,19.19903 2.89456,24.01238 2.92342,4.70767 3.84755,6.91327 3.39295,8.09794 -0.53742,1.40051 -1.42086,1.21015 -3.14755,-0.67824 z m 140.32547,-4.00834 c -1.72878,-1.72878 -2.19102,-2.9593 -2.57738,-6.86119 -0.65467,-6.61147 -0.48384,-13.94527 0.32483,-13.94527 0.37169,0 0.6758,-0.71669 0.6758,-1.59264 0,-0.87595 0.57901,-2.21934 1.2867,-2.98531 3.54679,-3.83892 6.02614,-5.98731 9.37448,-8.12315 2.02194,-1.28976 3.78655,-2.59915 3.92135,-2.90975 0.1348,-0.3106 0.65166,-0.56473 1.14859,-0.56473 0.49692,0 2.25278,-0.6519 3.9019,-1.44866 3.01602,-1.45718 4.20237,-1.80128 15.65915,-4.54183 5.99604,-1.4343 12.9402,-1.54002 16.30649,-0.24826 1.83435,0.70391 5.25704,6.02023 4.74124,7.36438 -0.37933,0.98852 -0.84715,0.86017 -3.08438,-0.84625 -4.70361,-3.58763 -9.59439,-3.6665 -24.58064,-0.3964 -8.0672,1.76031 -10.22861,2.72293 -18.30036,8.15037 -7.22194,4.85601 -8.7414,6.57043 -9.39546,10.60095 -0.64028,3.94559 1.13055,12.23805 3.20764,15.02081 3.18453,4.26643 1.0502,6.98708 -2.60995,3.32693 z m -184.57044,-16.04936 c -0.8552,-1.44947 -1.55492,-2.87739 -1.55492,-3.17316 0,-0.29577 -0.66172,-1.8357 -1.4705,-3.42208 -0.80878,-1.58637 -1.47051,-3.4099 -1.47051,-4.0523 0,-0.6424 -0.32573,-1.49373 -0.72384,-1.89184 -0.39812,-0.39811 -0.78301,-5.34453 -0.85531,-10.99204 -0.12739,-9.95013 0.25708,-14.97353 1.27168,-16.61517 0.26948,-0.43604 0.65177,-1.99869 0.84953,-3.47257 0.19775,-1.47386 1.45579,-5.90569 2.79562,-9.84848 1.33984,-3.9428 2.29056,-7.16872 2.11272,-7.16872 -0.17785,0 0.21007,-1.24074 0.86204,-2.7572 0.65196,-1.51646 2.15208,-5.50581 3.33359,-8.86522 1.18152,-3.3594 3.13401,-7.95536 4.33887,-10.21323 1.20488,-2.25787 2.19068,-4.4928 2.19068,-4.9665 0,-1.30358 2.93029,-7.19096 4.40866,-8.85764 0.71739,-0.80878 1.53011,-2.21495 1.80603,-3.12483 0.27592,-0.90988 0.81025,-1.65432 1.18739,-1.65432 0.37713,0 0.6857,-0.45917 0.6857,-1.02038 0,-0.5612 1.15803,-2.70384 2.57339,-4.76142 1.41536,-2.05758 2.57339,-3.92889 2.57339,-4.15849 0,-0.22959 0.82716,-1.30949 1.83813,-2.39979 1.01097,-1.09028 1.83813,-2.3993 1.83813,-2.90892 0,-0.50961 0.31854,-0.92658 0.70786,-0.92658 0.38933,0 2.01388,-1.90246 3.61014,-4.2277 1.59625,-2.32524 4.34358,-5.7166 6.10517,-7.53635 4.35048,-4.49411 17.35739,-16.38336 18.83662,-17.21802 0.65777,-0.37115 2.3127,-1.6946 3.67762,-2.94101 1.36492,-1.24641 2.86669,-2.43163 3.33728,-2.63383 0.47059,-0.20219 2.8408,-1.66053 5.26713,-3.24075 7.44405,-4.84815 8.02907,-5.20801 9.92592,-6.10561 4.54404,-2.15024 16.51102,-6.27152 33.78824,-11.63623 4.63209,-1.4383 8.83473,-2.95763 9.3392,-3.3763 1.33619,-1.10894 3.92878,-0.0428 3.92878,1.61559 0,2.79545 -3.60047,4.8812 -12.13168,7.02788 -5.06639,1.27483 -12.06993,3.61236 -13.21435,4.41046 -0.79765,0.55628 -2.32766,1.01141 -3.40001,1.01141 -1.07234,0 -3.35637,0.4963 -5.07562,1.10288 -1.71924,0.60659 -3.9302,1.10288 -4.91323,1.10288 -0.98304,0 -4.35783,1.32346 -7.49954,2.94102 -3.14171,1.61756 -6.12438,2.94101 -6.62815,2.94101 -0.50377,0 -1.33622,0.41358 -1.84988,0.91907 -1.11036,1.09269 -3.43713,2.86263 -10.35747,7.87875 -11.1976,8.11644 -11.65345,8.50973 -18.51351,15.97247 -9.28593,10.10175 -10.529,11.53287 -10.529,12.12188 0,0.79964 -7.19812,11.59167 -9.23129,13.84032 -2.06448,2.28329 -4.04691,5.59551 -7.04101,11.76405 -1.27584,2.62853 -2.7686,5.65736 -3.31725,6.73073 -0.54865,1.07336 -0.99754,2.47954 -0.99754,3.12482 0,0.64529 -0.2779,1.17325 -0.61757,1.17325 -0.33966,0 -1.06098,1.40618 -1.60295,3.12483 -0.54195,1.71866 -1.21951,3.45569 -1.50568,3.86008 -0.28617,0.40439 -1.10006,2.72044 -1.80863,5.14678 -0.70859,2.42633 -1.7383,5.45411 -2.28827,6.7284 -0.54997,1.27428 -0.99994,2.99179 -0.99994,3.81668 0,0.8249 -0.27484,1.66967 -0.61075,1.87727 -0.33591,0.2076 -1.0211,2.29503 -1.52263,4.63873 -0.50155,2.3437 -1.41126,5.35973 -2.02157,6.7023 -0.61031,1.34257 -0.94302,2.8753 -0.73935,3.40605 0.20368,0.53076 -0.12839,2.41007 -0.73793,4.17625 -1.89547,5.49223 -1.19822,22.52716 1.09855,26.83984 1.70942,3.2098 4.53368,9.66363 4.53368,10.36012 0,0.41566 -0.45831,1.13612 -1.01847,1.601 -0.81315,0.67486 -1.33195,0.31396 -2.57339,-1.79012 z m -54.53105,-40.60071 c -0.40521,-1.11207 -1.09214,-3.01454 -1.52651,-4.2277 -0.90917,-2.53925 -1.56977,-4.26055 -2.81218,-7.32756 -0.97565,-2.40847 -3.50673,-13.37639 -4.42718,-19.18423 -0.8115,-5.12039 -0.88094,-20.13915 -0.1035,-22.38257 0.35035,-1.01097 1.05155,-3.65788 1.55822,-5.88202 0.50667,-2.22415 1.17985,-4.37476 1.49595,-4.77915 0.3161,-0.40439 0.81632,-2.05871 1.11162,-3.67627 0.46672,-2.55665 1.78133,-5.39663 7.48757,-16.17557 0.64223,-1.21317 1.3624,-2.57472 1.60037,-3.02566 0.23797,-0.45095 1.67342,-2.6907 3.18988,-4.97724 1.51646,-2.28653 2.7572,-4.31469 2.7572,-4.50702 0,-0.53894 9.11736,-12.45612 9.7421,-12.73378 0.3033,-0.1348 0.55144,-0.5372 0.55144,-0.89422 0,-1.22536 5.93543,-7.49515 17.8299,-18.83434 1.92085,-1.83118 3.49245,-3.56727 3.49245,-3.85799 0,-0.29072 1.32346,-1.2724 2.94102,-2.18152 1.61755,-0.90912 2.94101,-1.9147 2.94101,-2.23462 0,-0.31992 1.90247,-1.92035 4.22771,-3.5565 2.32524,-1.63616 5.05486,-3.70622 6.06584,-4.60014 4.65215,-4.11352 7.9419,-6.60792 8.71495,-6.60792 0.46384,0 0.84334,-0.33086 0.84334,-0.73525 0,-0.40439 0.41358,-0.74261 0.91907,-0.7516 0.50549,-0.009 1.74623,-0.6843 2.7572,-1.50068 1.01097,-0.81638 3.56377,-2.61737 5.67287,-4.0022 2.1091,-1.38482 4.46463,-3.10829 5.2345,-3.82991 3.25401,-3.05006 15.90817,-11.6968 21.5726,-14.7408 3.36646,-1.80911 6.94799,-3.85705 7.95897,-4.551 1.67143,-1.1473 6.94985,-3.69931 10.66117,-5.15446 2.31569,-0.90795 11.30038,-3.55321 16.5432,-4.87063 2.62853,-0.6605 5.44088,-1.48621 6.24966,-1.8349 0.80878,-0.34869 5.54426,-1.64553 10.52329,-2.88184 4.97903,-1.23632 9.66698,-2.63142 10.41766,-3.10023 1.05455,-0.65858 1.6292,-0.63301 2.52745,0.11248 1.61966,1.34419 1.46353,2.22836 -0.8131,4.60465 -1.30318,1.36022 -2.74228,2.07073 -4.22771,2.08729 -3.10076,0.0346 -13.41064,2.53849 -14.63452,3.55422 -0.55023,0.45665 -2.62136,1.04184 -4.60251,1.30043 -1.98114,0.25859 -3.93295,0.71359 -4.33734,1.01109 -0.40439,0.29752 -2.38957,0.77931 -4.41152,1.07065 -2.02194,0.29134 -5.36251,1.32568 -7.42348,2.29851 -2.06096,0.97284 -3.98158,1.76879 -4.26805,1.76879 -1.2909,0 -14.10857,6.18315 -20.29199,9.78872 -7.96102,4.64208 -9.01463,5.3194 -12.43205,7.99193 -1.90449,1.48938 -4.3412,2.92844 -5.4149,3.19792 -1.07371,0.26949 -2.15178,1.11881 -2.39572,1.88738 -0.24394,0.76858 -0.94791,1.39742 -1.56438,1.39742 -1.27927,0 -3.93277,1.92348 -8.91782,6.4644 -1.90543,1.73566 -4.45701,3.68924 -5.67017,4.34126 -2.164,1.16306 -4.09799,2.59745 -11.94916,8.86237 -2.15381,1.71865 -4.34561,3.12482 -4.87067,3.12482 -0.52506,0 -2.28537,1.40618 -3.91179,3.12483 -1.62643,1.71865 -4.23713,4.11742 -5.80155,5.33059 -5.19682,4.02997 -8.39137,7.14391 -8.39137,8.17963 0,0.56299 -2.4472,3.41955 -5.43821,6.34791 -2.99103,2.92837 -5.98624,6.4169 -6.65604,7.7523 -0.66979,1.33539 -2.45756,3.65144 -3.9728,5.14677 -1.51525,1.49533 -3.66237,4.29038 -4.77139,6.21123 -1.10902,1.92085 -2.30766,3.49246 -2.66364,3.49246 -0.35598,0 -1.0456,1.24074 -1.53248,2.7572 -0.48687,1.51646 -1.35737,3.29908 -1.93443,3.96139 -1.29201,1.48284 -3.91165,8.24454 -3.91165,10.09657 0,0.7475 -1.18231,3.91802 -2.62734,7.04561 -1.44504,3.1276 -2.45083,5.86305 -2.23509,6.0788 0.21574,0.21573 -0.0763,1.29832 -0.64896,2.40574 -1.53425,2.96692 -1.77724,5.08437 -1.80503,15.72947 -0.0243,9.30842 0.46057,12.68783 3.1769,22.14192 0.58094,2.02194 1.4577,4.66886 1.94834,5.88203 1.57628,3.89747 3.48289,12.28894 3.11328,13.70233 -0.51566,1.97191 -1.57838,1.68701 -2.4305,-0.65159 z m 371.34086,-90.20896 c 0,-0.63045 0.33087,-1.14627 0.73526,-1.14627 0.40439,0 0.73525,0.31133 0.73525,0.69185 0,0.38053 -0.33086,0.89635 -0.73525,1.14628 -0.40439,0.24993 -0.73526,-0.0614 -0.73526,-0.69186 z m 1.55506,-3.35204 c 0.0341,-0.60658 0.32693,-1.93004 0.6507,-2.94101 l 0.58868,-1.83813 0.062,1.83813 c 0.0341,1.01097 -0.2587,2.33443 -0.6507,2.94101 -0.63355,0.98034 -0.70585,0.98034 -0.65071,0 z m 1.70955,-8.45541 c 0.65508,-4.86102 1.09531,-6.24965 1.98126,-6.24965 0.43046,0 0.51401,0.6858 0.20154,1.65432 -0.29354,0.90987 -0.60398,2.75307 -0.68985,4.09599 -0.0859,1.34292 -0.56838,2.83181 -1.07225,3.30864 -0.72788,0.68882 -0.81433,0.11157 -0.4207,-2.8093 z m 1.99826,-9.19067 c 0,-1.01097 0.16688,-1.42455 0.37085,-0.91906 0.20397,0.50548 0.20397,1.33264 0,1.83813 -0.20397,0.50549 -0.37085,0.0919 -0.37085,-0.91907 z m 1.10933,-13.72473 c -0.7697,-0.76969 -0.57273,-5.9893 0.24508,-6.49474 0.45316,-0.28006 0.73526,0.97271 0.73526,3.26525 0,3.77036 -0.10234,4.10749 -0.98034,3.22949 z m -89.82346,-1.61069 c -3.85728,-1.27457 -8.45541,-3.76267 -8.45541,-4.57531 0,-0.2624 -0.98324,-1.59724 -2.18496,-2.9663 -1.20173,-1.36907 -2.54925,-3.36028 -2.9945,-4.42493 -1.29203,-3.08941 -6.78762,-6.57431 -11.3422,-7.19238 -4.06119,-0.55112 -5.40036,-0.166 -8.15107,2.34409 -6.66269,6.07984 -11.95305,10.10723 -13.8136,10.51588 -1.22142,0.26827 -3.30293,1.09558 -4.62559,1.83847 -3.01349,1.69257 -10.13322,3.58553 -12.26361,3.26059 -0.88364,-0.13478 -3.26093,-0.46219 -5.28288,-0.72758 -2.02195,-0.26539 -5.54722,-1.44343 -7.83393,-2.61785 -4.59544,-2.36014 -10.91503,-7.7301 -10.91503,-9.27485 0,-0.54439 -0.25864,-0.9898 -0.57474,-0.9898 -0.3161,0 -1.05423,-1.5716 -1.64027,-3.49245 -1.36779,-4.48311 -1.1462,-14.33511 0.42663,-18.96775 1.05412,-3.10483 3.48449,-7.35005 4.82068,-8.42044 0.2524,-0.2022 1.08436,-1.40235 1.8488,-2.66702 0.76444,-1.26465 3.28756,-4.36725 5.60693,-6.89466 2.94383,-3.20788 4.21704,-5.19113 4.21704,-6.56883 0,-3.0656 -0.74705,-3.68914 -15.60628,-13.02608 -1.50664,-0.9467 -3.31471,-2.63179 -4.01794,-3.74462 -0.70323,-1.11283 -2.56907,-3.51222 -4.14632,-5.33197 -4.62624,-5.3375 -6.61638,-10.42382 -6.63224,-16.95035 -0.0196,-8.09229 3.05054,-13.58257 11.28619,-20.18249 2.88427,-2.31142 9.02395,-6.0397 10.84498,-6.58557 0.90988,-0.27274 1.65433,-0.76676 1.65433,-1.09782 0,-1.01854 5.04705,-3.06817 13.68205,-5.55637 4.53898,-1.30792 9.30428,-3.12682 10.58955,-4.04202 3.40048,-2.42136 5.87379,-4.82881 5.87379,-5.71741 0,-0.42652 1.66471,-2.59696 3.69936,-4.82319 2.90482,-3.17834 4.76368,-4.45439 8.65482,-5.94128 2.7255,-1.04147 5.46128,-1.89359 6.07951,-1.89359 0.61823,0 1.43837,-0.31167 1.82254,-0.69261 0.84369,-0.83658 9.11452,-2.23782 13.1978,-2.23595 5.69834,0.003 16.55542,8.21059 17.66639,13.35585 0.74166,3.43485 2.8156,7.27876 5.05491,9.3689 1.05033,0.98037 1.90968,2.22111 1.90968,2.7572 0,1.67911 2.85099,3.91573 4.99132,3.91573 2.06751,0 5.32448,-1.42269 9.30006,-4.0624 3.38438,-2.24717 9.24626,-1.85675 15.26737,1.01687 7.04543,3.36246 12.14312,9.22783 14.57603,16.77106 0.49983,1.54972 1.09782,3.14272 1.32886,3.54 0.531,0.91303 0.78232,2.12849 1.29495,6.26258 0.30116,2.42877 0.0131,4.18852 -1.08314,6.61728 -1.86963,4.14221 -2.41824,4.76913 -7.66353,8.75753 -3.85664,2.93252 -5.66076,4.9571 -5.66076,6.35251 0,0.2759 1.98608,2.46321 4.41352,4.8607 4.09548,4.04495 7.8806,9.70292 7.47336,11.17111 -0.0959,0.34586 0.20856,1.0903 0.67666,1.65432 0.46809,0.56402 0.66333,1.02549 0.43388,1.02549 -0.22946,0 0.42913,1.90247 1.46352,4.22771 l 1.88071,4.22771 -1.71019,5.14677 c -0.94061,2.83073 -2.13599,5.66912 -2.65643,6.30755 -0.52043,0.63843 -0.95663,1.63102 -0.96934,2.20576 -0.049,2.21294 -3.47012,3.65584 -9.33552,3.9373 -5.53217,0.26547 -11.02702,1.90618 -12.13628,3.62379 -0.2971,0.46004 -0.54716,2.65618 -0.5557,4.88032 -0.009,2.22414 -0.36349,6.02908 -0.78879,8.45542 -0.4253,2.42633 -0.93149,5.40411 -1.12487,6.61728 -0.6475,4.06216 -2.54692,7.35343 -5.29442,9.17409 -1.49866,0.9931 -3.86123,2.77008 -5.25015,3.94884 -5.61614,4.76634 -10.5391,5.76794 -17.32653,3.52517 z m 15.73855,-6.51669 c 1.45353,-1.10015 3.76885,-3.08534 5.14515,-4.41152 1.3763,-1.32619 2.78247,-2.41125 3.12482,-2.41125 0.34236,0 0.62247,-0.4963 0.62247,-1.10288 0,-0.60659 0.30741,-1.10288 0.68312,-1.10288 1.05257,0 2.15,-6.90448 2.45416,-15.44032 0.16613,-4.66184 0.69411,-8.59131 1.33281,-9.91923 1.1102,-2.30821 3.81067,-3.98402 7.1482,-4.43592 13.67842,-1.85205 13.79867,-1.90014 16.29527,-6.51759 1.70055,-3.14516 1.75303,-3.56751 0.85288,-6.86346 -0.52755,-1.93164 -1.05494,-4.1738 -1.172,-4.98258 -0.46307,-3.19963 -1.97757,-5.64177 -5.5782,-8.99487 -9.58946,-8.93022 -9.24135,-8.4611 -8.90394,-11.99915 0.39138,-4.10403 1.15759,-5.23598 8.34327,-12.32587 5.55204,-5.47803 5.91281,-6.02887 6.39939,-9.77082 0.58586,-4.50553 -0.14574,-6.87672 -3.96284,-12.8438 -1.91643,-2.99587 -3.39364,-4.28556 -6.93635,-6.05588 -9.44572,-4.72008 -17.05129,-4.92033 -22.6029,-0.59511 -1.87948,1.46429 -4.18722,2.66234 -5.12831,2.66234 -1.82388,0 -5.7893,-3.63331 -6.53719,-5.98969 -0.24559,-0.77378 -1.90997,-3.78052 -3.69863,-6.68164 -1.78865,-2.90111 -3.2521,-5.80183 -3.2521,-6.44604 0,-1.58105 -4.83197,-6.14417 -8.45542,-7.98496 -1.61755,-0.82175 -5.14395,-1.87128 -7.83642,-2.33229 -8.97039,-1.53591 -22.19905,2.26402 -28.88107,8.29609 -0.78394,0.70768 -1.66753,1.28669 -1.96353,1.28669 -0.29601,0 -0.75182,0.97262 -1.01291,2.16136 -0.68161,3.10334 -7.13599,8.67373 -13.42813,11.58898 -2.93182,1.35838 -5.33058,2.93375 -5.33058,3.50083 0,0.5671 -0.74445,1.25597 -1.65432,1.53085 -0.90988,0.27488 -2.48148,1.27221 -3.49246,2.21631 -1.01097,0.94408 -3.03893,2.21812 -4.50657,2.83118 -1.46764,0.61307 -3.61826,1.90753 -4.77915,2.87658 -1.16089,0.96905 -3.19266,2.31668 -4.51504,2.99475 -2.79837,1.43488 -8.41735,6.70833 -9.62747,9.03544 -2.42697,4.66715 0.53126,9.4522 8.57798,13.87523 2.58899,1.42308 5.87759,3.81581 7.308,5.31717 4.91543,5.15921 9.74801,11.26287 9.74801,12.31192 0,0.57774 1.14765,2.84449 2.55033,5.03724 1.40268,2.19274 2.69966,4.92879 2.88218,6.08012 0.18252,1.15131 0.54094,3.42906 0.7965,5.06163 0.88852,5.67618 -0.61876,9.50018 -5.72925,14.53522 -4.59227,4.52449 -8.84981,9.66736 -10.60949,12.81568 -1.53842,2.75245 -1.09047,5.10585 1.41809,7.4503 2.63495,2.46257 6.33663,3.67152 12.59812,4.11447 3.52267,0.24921 4.87996,-0.0215 7.72016,-1.53959 1.89533,-1.01307 5.17846,-2.2968 7.29585,-2.85274 2.11738,-0.55593 5.09516,-1.97915 6.61728,-3.1627 3.31123,-2.57472 13.76109,-5.9571 19.09016,-6.17906 5.41418,-0.22549 8.44542,2.30606 12.50739,10.44561 3.33133,6.67547 8.24917,12.0972 11.76874,12.97457 1.12525,0.2805 3.53479,1.27359 5.35454,2.20687 4.47241,2.29371 7.68074,2.21595 10.9594,-0.26559 z m 74.03005,-0.096 c -0.24595,-0.39797 -0.11708,-3.05116 0.28639,-5.89599 1.06348,-7.4985 -0.0179,-35.52341 -1.91164,-49.54135 -0.58195,-4.30772 0.6071,-4.66093 1.8398,-0.54652 1.1875,3.96352 1.64146,11.99594 1.74499,30.87572 0.0806,14.70644 -0.38043,24.69979 -1.17631,25.49567 -0.18482,0.18482 -0.53728,0.0104 -0.78323,-0.38753 z"
       id="path9141"
       inkscape:connector-curvature="0" />
  </g>
</svg>
