<?xml version="1.0" encoding="UTF-8" standalone="no"?>
<!-- Created with Inkscape (http://www.inkscape.org/) -->

<svg
   xmlns:dc="http://purl.org/dc/elements/1.1/"
   xmlns:cc="http://creativecommons.org/ns#"
   xmlns:rdf="http://www.w3.org/1999/02/22-rdf-syntax-ns#"
   xmlns:svg="http://www.w3.org/2000/svg"
   xmlns="http://www.w3.org/2000/svg"
   xmlns:sodipodi="http://sodipodi.sourceforge.net/DTD/sodipodi-0.dtd"
   xmlns:inkscape="http://www.inkscape.org/namespaces/inkscape"
   width="258.78165mm"
   height="253.65665mm"
   viewBox="0 0 916.94284 898.78339"
   id="svg9822"
   version="1.1"
   inkscape:version="0.91 r13725"
   sodipodi:docname="cc_pic_color_6_2.svg"
   inkscape:export-filename="/home/jedi/Dropbox/creative-commons/cc_landing/cc_pic_color_6_2.png"
   inkscape:export-xdpi="60.069172"
   inkscape:export-ydpi="60.069172">
  <defs
     id="defs9824" />
  <sodipodi:namedview
     id="base"
     pagecolor="#ffffff"
     bordercolor="#666666"
     borderopacity="1.0"
     inkscape:pageopacity="0.0"
     inkscape:pageshadow="2"
     inkscape:zoom="0.49497475"
     inkscape:cx="536.46624"
     inkscape:cy="644.20715"
     inkscape:document-units="px"
     inkscape:current-layer="layer1"
     showgrid="false"
     fit-margin-top="0"
     fit-margin-left="0"
     fit-margin-right="0"
     fit-margin-bottom="0"
     inkscape:window-width="1855"
     inkscape:window-height="1056"
     inkscape:window-x="65"
     inkscape:window-y="24"
     inkscape:window-maximized="1" />
  <metadata
     id="metadata9827">
    <rdf:RDF>
      <cc:Work
         rdf:about="">
        <dc:format>image/svg+xml</dc:format>
        <dc:type
           rdf:resource="http://purl.org/dc/dcmitype/StillImage" />
        <dc:title></dc:title>
      </cc:Work>
    </rdf:RDF>
  </metadata>
  <g
     inkscape:label="Layer 1"
     inkscape:groupmode="layer"
     id="layer1"
     transform="translate(1399.4988,-112.53803)">
    <path
       style="fill:#44aa00;fill-rule:evenodd;stroke:none;stroke-width:1px;stroke-linecap:butt;stroke-linejoin:miter;stroke-opacity:1"
       d="m -1171.2043,331.48875 c 18.1827,-2.0203 98.9949,-76.77159 98.9949,-76.77159 l 113.13711,-31.31473 107.07617,-2.0203 122.22846,34.34518 80.8122,50.50763 64.64976,79.80205 22.22336,68.69037 6.06092,67.68022 0,98.99495 c 0,0 -39.39595,120.20816 -42.42641,125.25892 -3.03046,5.05076 -111.11678,130.30968 -111.11678,130.30968 l -121.21831,34.34518 -98.99495,7.07107 -63.63961,-19.1929 -69.70052,-32.32488 -49.4975,-31.31473 -41.4162,-33.33503 -48.4874,-51.51778 -33.335,-64.64976 -20.203,-79.80205 1.0101,-75.76145 18.1828,-87.88327 42.4264,-82.83251 z"
       id="path10383"
       inkscape:connector-curvature="0" />
    <path
       style="fill:#000000"
       d="m -998.53646,1010.0294 c -1.34359,-0.674 -3.91984,-3.2803 -5.72514,-5.7917 -2.616,-3.6393 -3.4154,-6.32758 -3.9386,-13.24483 -0.3611,-4.7733 -1.1101,-9.23387 -1.6646,-9.9124 -1.0336,-1.26478 -0.7701,-11.35947 0.3454,-13.23429 0.3416,-0.57411 0.9676,-6.68179 1.3911,-13.57261 0.9262,-15.06927 1.8685,-21.47789 3.1583,-21.47789 0.5285,0 0.9162,-1.57216 0.8616,-3.49369 -0.1147,-4.03298 2.4779,-14.30573 4.15898,-16.4796 1.96808,-2.54497 -0.0865,-9.62889 -3.04658,-10.50448 -1.4538,-0.43003 -6.0006,-2.33962 -10.1041,-4.24352 -4.1034,-1.90389 -7.9305,-3.46162 -8.5047,-3.46162 -0.5741,0 -1.6389,-0.71695 -2.3661,-1.59321 -0.7273,-0.87626 -3.612,-2.33209 -6.4105,-3.23519 -2.7986,-0.9031 -7.6624,-3.13936 -10.8086,-4.96948 -3.1461,-1.83013 -5.8998,-3.3275 -6.1191,-3.3275 -1.1112,0 -20.3677,-11.15541 -21.8978,-12.68544 -0.9767,-0.97678 -3.8532,-2.67592 -6.3921,-3.77586 -2.539,-1.09994 -4.6163,-2.41019 -4.6163,-2.91164 0,-0.50146 -1.2081,-0.91257 -2.6847,-0.91358 -1.4766,-10e-4 -4.5641,-1.00995 -6.861,-2.24207 -2.2969,-1.23211 -6.3924,-3.39508 -9.101,-4.80657 -2.7086,-1.41149 -6.7357,-4.29543 -8.9491,-6.40875 -2.2134,-2.11332 -5.6331,-4.64781 -7.5993,-5.63222 -1.9663,-0.9844 -4.9195,-3.20481 -6.5627,-4.93424 -1.6433,-1.72944 -4.2471,-3.52695 -5.7862,-3.99446 -1.5392,-0.46753 -6.8645,-4.82472 -11.834,-9.68265 -6.981,-6.82429 -9.8129,-8.83261 -12.4547,-8.83261 -1.8805,0 -12.3952,4.35676 -23.3659,9.6817 -10.9707,5.32494 -21.0206,10.15618 -22.3331,10.73609 -1.3126,0.57992 -3.1919,1.54243 -4.1763,2.13892 -4.8215,2.92154 -16.9047,7.23958 -23.6203,8.44098 -10.548,1.88698 -15.6272,-0.37692 -19.3559,-8.62738 -2.996,-6.62908 -3.0432,-6.5384 5.3899,-10.35517 2.6251,-1.18808 5.8468,-3.37775 7.1593,-4.86591 1.3125,-1.48815 3.9973,-3.46756 5.9661,-4.39867 1.9688,-0.93111 6.5328,-3.26428 10.1423,-5.1848 3.6095,-1.92053 7.2852,-3.50086 8.1683,-3.51186 0.8831,-0.0107 3.2994,-1.22603 5.3695,-2.70008 2.0701,-1.47405 3.9075,-2.52798 4.0832,-2.34207 0.1756,0.18592 4.2312,-1.5183 9.0124,-3.78718 8.3706,-3.97217 11.5495,-7.28932 11.5495,-12.05159 0,-0.91145 -4.9667,-6.69747 -11.0372,-12.85782 -6.0705,-6.16035 -12.6679,-13.04085 -14.661,-15.28999 -4.3562,-4.91606 -13.6779,-18.55843 -13.6779,-20.01777 0,-0.57211 -1.4196,-3.12869 -3.1545,-5.68127 -5.271,-7.75483 -9.701,-16.57231 -11.6884,-23.26449 -1.0378,-3.49483 -3.1207,-8.25151 -4.6287,-10.57043 -1.508,-2.31891 -3.4446,-6.09552 -4.3037,-8.39246 -0.8591,-2.29694 -2.3045,-5.86825 -3.212,-7.93624 -0.9074,-2.06798 -1.6499,-4.58679 -1.6499,-5.59735 0,-1.01056 -0.5875,-2.20048 -1.3056,-2.64427 -0.718,-0.44379 -1.0719,-2.02932 -0.7863,-3.52338 0.3288,-1.71961 -0.2868,-3.2975 -1.6774,-4.2998 -1.2082,-0.87083 -2.1968,-2.77547 -2.1968,-4.23253 0,-1.45707 -0.4921,-2.95334 -1.0935,-3.32505 -0.6014,-0.37171 -2.001,-4.83322 -3.1101,-9.91444 -5.0039,-22.92449 -7.6109,-25.00559 -24.9484,-19.91536 -3.2364,0.95019 -7.8452,1.72762 -10.2418,1.72762 -2.3966,0 -4.728,0.37059 -5.181,0.82353 -0.4529,0.45295 -3.0929,0.92913 -5.8666,1.05817 -5.0503,0.23497 -23.227,1.57634 -27.7142,2.0452 -1.3125,0.13715 -2.6549,0.58658 -2.983,0.99876 -1.0121,1.27119 -37.7626,4.92406 -42.5855,4.23283 -12.4739,-1.78783 -16.3068,-2.97202 -18.4939,-5.71377 -5.4845,-6.8755 -5.9605,-7.96375 -4.5979,-10.50991 1.5715,-2.93641 1.9479,-3.02264 23.9147,-5.47904 9.5159,-1.0641 21.3287,-2.66579 26.2507,-3.55932 8.3644,-1.51844 12.6578,-2.18876 34.9016,-5.44909 26.1855,-3.83808 42.5162,-7.77576 45.3142,-10.92621 1.7282,-1.94587 2.0559,-4.79832 2.0339,-17.70338 -0.014,-8.46105 0.5353,-17.46889 1.2216,-20.01741 0.8052,-2.99049 0.8873,-8.18914 0.2314,-14.65992 -0.9769,-9.63825 -0.5623,-14.97928 2.1659,-27.89935 0.6928,-3.28134 2.0324,-10.53013 2.9767,-16.10842 2.682,-15.84242 4.2963,-22.9236 5.9743,-26.20496 0.8518,-1.66585 1.9279,-5.31085 2.3913,-8.1 0.4634,-2.78914 1.3324,-5.07116 1.9309,-5.07116 0.5986,0 1.0884,-1.23974 1.0884,-2.75498 0,-1.51525 0.7883,-3.79727 1.7519,-5.07117 0.9635,-1.2739 1.7689,-3.82809 1.7898,-5.67598 0.021,-1.84788 0.6198,-4.4471 1.3311,-5.77603 1.8421,-3.44214 -0.4124,-8.14745 -5.485,-11.44716 -2.27,-1.4766 -4.7075,-2.68473 -5.4168,-2.68473 -0.7092,0 -3.0495,-1.34237 -5.2005,-2.98304 -2.151,-1.64067 -4.2888,-2.98304 -4.7506,-2.98304 -0.4618,0 -3.6328,-1.7492 -7.0466,-3.88709 -3.4139,-2.1379 -9.6973,-5.42479 -13.963,-7.30419 -4.2658,-1.87941 -8.6883,-3.88885 -9.8279,-4.46542 -1.1395,-0.57657 -2.8339,-1.04832 -3.7651,-1.04832 -0.9313,0 -3.7576,-0.99664 -6.2806,-2.21476 -12.7607,-6.1608 -18.031,-8.43726 -21.2924,-9.19686 -8.7579,-2.03987 -25.823,-11.68482 -33.8916,-19.15514 -4.5244,-4.18888 -8.5781,-7.61616 -9.0082,-7.61616 -0.4301,0 -2.4979,-1.60467 -4.5952,-3.56593 -3.1128,-2.91093 -3.574,-3.94593 -2.5109,-5.63463 1.4357,-2.28044 3.0115,-2.42259 11.823,-1.06657 7.5378,1.15998 28.2463,6.59734 29.8304,7.83242 0.6563,0.51168 3.341,1.31187 5.9661,1.77821 5.1518,0.91517 16.514,5.25085 29.8304,11.38284 4.5939,2.11541 12.1111,5.34757 16.705,7.18257 4.5939,1.835 11.1152,4.73108 14.4919,6.43572 3.3767,1.70464 6.4353,3.09934 6.7971,3.09934 0.3617,0 3.7739,1.81876 7.5826,4.04169 3.8087,2.22293 9.5439,4.92454 12.7449,6.00359 5.2428,1.76736 6.096,1.78102 8.6039,0.13776 1.5963,-1.04594 3.3587,-3.95838 4.1311,-6.82682 0.7409,-2.75147 2.6989,-7.71968 4.351,-11.04045 1.6522,-3.32076 3.886,-7.83191 4.9642,-10.02476 1.0781,-2.19287 3.0697,-5.14608 4.4256,-6.56269 1.356,-1.41662 3.1993,-4.45499 4.0961,-6.75193 0.8969,-2.29694 2.9174,-5.7871 4.4901,-7.75591 1.5727,-1.9688 3.9158,-4.92201 5.2068,-6.56269 1.2911,-1.64067 5.0812,-7.64682 8.4224,-13.347 4.1938,-7.15459 7.1077,-10.79174 9.41,-11.74539 1.8684,-0.77392 3.0816,-2.04192 2.7586,-2.88341 -0.317,-0.8261 1.33,-3.17577 3.6599,-5.22149 2.33,-2.04572 4.2363,-4.24995 4.2363,-4.8983 0,-0.64833 1.8793,-2.67829 4.1762,-4.51101 2.2969,-1.83272 4.1762,-3.93826 4.1763,-4.67897 0,-0.74071 1.6109,-2.01399 3.5797,-2.8295 1.9688,-0.8155 3.5796,-1.96211 3.5796,-2.54801 0,-0.5859 1.6122,-2.53431 3.5826,-4.3298 1.9705,-1.79548 3.8997,-4.92359 4.2872,-6.95135 0.6201,-3.24455 -0.2274,-4.80331 -7.0643,-12.99399 -4.2728,-5.11893 -8.7525,-11.23515 -9.9549,-13.59161 -1.2024,-2.35645 -3.6628,-6.389 -5.4675,-8.96123 -1.8047,-2.57223 -3.2813,-5.40164 -3.2813,-6.28758 0,-0.88594 -0.5503,-1.61079 -1.2228,-1.61079 -0.6725,0 -1.7391,-1.20814 -2.3703,-2.68474 -3.3306,-7.79192 -10.9457,-19.53448 -17.2882,-26.65851 -3.9376,-4.42282 -6.9967,-8.57459 -6.798,-9.22615 0.1987,-0.65155 -0.1317,-1.50233 -0.7341,-1.8906 -1.9718,-1.27081 -2.9248,-6.07799 -1.1991,-6.04922 1.8486,0.0308 9.7954,3.84803 14.2211,6.83107 1.707,1.15051 4.6602,3.1272 6.5627,4.39263 1.9026,1.26542 7.4025,6.24451 12.2222,11.06463 4.8197,4.8201 10.4102,9.61562 12.4234,10.65669 4.3705,2.26006 9.3495,6.68657 25.1419,22.35196 11.7321,11.6378 11.9217,11.76434 16.7756,11.19913 7.0433,-0.82015 15.6016,-5.04492 33.5466,-16.56019 4.5939,-2.94789 10.7688,-6.49698 13.722,-7.88686 8.5385,-4.01854 30.1411,-13.03249 33.41,-13.94074 1.6407,-0.45584 4.8624,-1.54543 7.1593,-2.42128 2.2969,-0.87586 6.5925,-2.24264 9.5457,-3.0373 16.4538,-4.42743 25.42418,-8.62607 29.30763,-13.71754 2.61467,-3.42801 3.04338,-4.95023 2.43546,-8.64751 -1.20419,-7.32376 -1.38236,-8.03325 -2.45182,-9.76366 -0.73794,-1.19402 -0.58779,-1.38607 0.53915,-0.68957 1.13791,0.70327 1.27391,0.51036 0.50094,-0.71055 -0.58355,-0.92174 -1.14145,-1.94436 -1.23979,-2.27249 -1.25323,-4.18206 -2.05512,-5.96608 -2.68165,-5.96608 -0.41566,0 -0.83833,-1.74508 -0.93928,-3.87796 -0.26677,-5.63695 -1.16902,-9.78046 -2.7887,-12.80687 -0.92477,-1.72794 -1.01705,-3.07089 -0.26285,-3.82509 1.38553,-1.38554 -0.73185,-9.32048 -2.4871,-9.32048 -0.66679,0 -0.82879,-1.9804 -0.38775,-4.73873 0.5991,-3.74664 0.41309,-4.60648 -0.88854,-4.10701 -1.2153,0.46635 -1.4935,-0.16727 -1.0627,-2.42057 0.3583,-1.8742 0.042,-3.05228 -0.8193,-3.05228 -0.7715,0 -1.0714,-0.53601 -0.6665,-1.19113 0.4048,-0.65511 -0.1004,-2.38543 -1.1228,-3.84514 -2.3197,-3.31173 -2.3167,-6.78649 0.01,-9.86288 1.6613,-2.19815 2.027,-2.23823 5.03317,-0.55159 2.73697,1.5356 3.26951,2.67165 3.42021,7.29612 0.0982,3.01253 0.76743,6.57776 1.48724,7.92275 0.71982,1.34498 0.98214,3.29658 0.58293,4.33687 -0.3992,1.04031 -0.18892,2.55581 0.46728,3.36779 1.11275,1.37688 3.02424,11.58548 3.18093,16.98813 0.0381,1.31254 0.48511,2.69474 0.99342,3.07157 0.50831,0.37682 1.14548,3.27388 1.41595,6.43793 0.89847,10.51056 2.02709,15.48883 4.92838,21.73853 1.58059,3.40478 2.8738,6.9097 2.8738,7.78871 0,0.87902 0.86379,2.83146 1.91955,4.33875 1.85962,2.65499 2.3159,2.71712 14.61689,1.99016 6.98354,-0.41271 15.91903,-1.24357 19.85664,-1.84636 3.93761,-0.60279 10.38098,-0.84616 14.31859,-0.54082 3.93761,0.30534 14.61633,0.82708 23.7305,1.15944 9.11416,0.33236 18.6091,1.15304 21.09984,1.82372 2.49074,0.6707 8.84021,1.39277 14.10992,1.60464 9.00058,0.36184 9.7611,0.1975 12.54814,-2.71154 2.63449,-2.74982 3.04154,-4.43318 3.63351,-15.02661 0.8837,-15.81401 0.89258,-22.99932 0.0317,-25.71149 -0.45236,-1.42526 0.16469,-2.9858 1.70062,-4.30091 2.10419,-1.80166 2.33058,-3.05859 1.78115,-9.88898 -0.34619,-4.30374 -0.83033,-8.45173 -1.07588,-9.21775 -0.24554,-0.76602 0.28881,-1.67491 1.18746,-2.01976 1.1337,-0.43504 1.52215,-2.29875 1.26885,-6.08772 -0.20078,-3.0034 0.10393,-5.75059 0.67718,-6.10486 0.57335,-0.35428 1.04235,-1.44956 1.04235,-2.43397 0,-0.9844 -0.53694,-1.45797 -1.19321,-1.05237 -0.65627,0.4056 -1.19322,0.16881 -1.19322,-0.52619 0,-0.695 0.49429,-1.26363 1.09841,-1.26363 0.60412,0 1.45086,-1.60469 1.88163,-3.56597 0.98674,-4.49259 1.657,-4.88072 5.49094,-3.17963 l 3.1015,1.37612 -1.66097,8.94912 c -0.91353,4.92202 -1.84569,11.44157 -2.07147,14.48789 -0.22578,3.04631 -1.07913,7.56469 -1.89633,10.04083 -0.8172,2.47613 -1.60464,7.76943 -1.74985,11.76286 -0.14523,3.99345 -0.69124,16.17358 -1.21337,27.06696 -1.08288,22.59236 -1.85711,20.75955 10.14489,24.0158 10.89957,2.95715 10.68948,2.91022 17.30163,3.86508 3.28134,0.47385 6.50302,1.25423 7.15929,1.73418 1.10893,0.81099 9.27721,3.37992 13.61629,4.28232 1.04254,0.21682 3.90907,1.2504 6.37008,2.29684 2.46101,1.04645 4.47456,1.51956 4.47456,1.05136 0,-0.46819 0.64434,-0.20693 1.43186,0.5806 0.78752,0.78752 2.66684,1.43186 4.17625,1.43186 1.50942,0 3.81829,1.07389 5.13083,2.38643 1.31254,1.31254 3.49202,2.38643 4.84329,2.38643 1.35127,0 2.14702,0.50131 1.76835,1.11402 -0.37868,0.61271 0.98315,1.06649 3.02628,1.0084 2.04313,-0.0581 4.06811,0.46608 4.49996,1.16483 0.43185,0.69875 4.13934,1.96325 8.23886,2.80999 4.09951,0.84674 7.45473,1.83481 7.45605,2.19571 10e-4,0.36088 1.96772,0.79693 4.36977,0.96897 2.40206,0.17205 4.95149,0.7692 5.66539,1.327 0.7139,0.55779 2.88189,1.39384 4.81776,1.85789 1.93586,0.46404 6.56223,2.62686 10.28083,4.80626 3.71859,2.17941 8.04111,4.36007 9.60562,4.84591 1.56449,0.48584 5.91668,2.42416 9.6715,4.30738 3.75484,1.88323 7.64717,3.42404 8.64963,3.42404 1.53705,0 8.45191,-5.92964 20.2128,-17.33291 1.37143,-1.32973 5.42572,-4.81988 9.00953,-7.7559 3.5838,-2.936 8.23247,-7.21751 10.33037,-9.51445 4.47867,-4.90356 18.48417,-18.84425 25.77342,-25.65415 2.80987,-2.62507 6.65867,-5.57396 8.5529,-6.55309 1.89423,-0.97913 3.9603,-3.26116 4.59128,-5.07117 0.63097,-1.81001 1.5933,-3.29094 2.13849,-3.29094 0.54519,0 1.7008,-0.69672 2.568,-1.54825 0.86722,-0.85154 3.99302,-3.19776 6.94623,-5.21382 4.14787,-2.83162 5.98026,-3.43827 8.0542,-2.66646 4.34119,1.61556 3.16354,4.06155 -5.07116,10.53296 -7.66732,6.02552 -7.75591,6.16213 -7.75591,11.96082 0,6.55958 -4.38927,16.71646 -6.8618,15.87837 -0.94886,-0.32162 -1.22827,0.18228 -0.76725,1.38369 0.3988,1.03924 0.1889,1.88952 -0.46644,1.88952 -0.65534,0 -1.49768,1.20814 -1.87187,2.68474 -0.37419,1.47661 -3.33265,4.77999 -6.57436,7.34084 -3.24171,2.56087 -7.05522,6.72221 -8.47448,9.24743 -1.41924,2.52522 -2.99621,4.59131 -3.50435,4.59131 -0.50815,0 -4.60817,3.49016 -9.11117,7.75591 -4.503,4.26574 -8.6028,7.7559 -9.1107,7.7559 -2.98268,0 -15.3048,15.30562 -15.3048,19.0105 0,1.76938 6.82504,8.45818 13.42368,13.15569 3.11727,2.21916 5.66777,4.49227 5.66777,5.05136 0,0.55908 1.47661,1.66202 3.28134,2.45096 4.97023,2.17273 22.72024,18.26953 28.86522,26.17674 2.99186,3.84985 8.9299,10.68722 13.19564,15.19414 4.26575,4.50692 8.8298,10.25285 10.14234,12.76873 1.31254,2.51588 3.32609,5.527 4.47456,6.69139 1.14847,1.16439 2.08813,3.12521 2.08813,4.3574 0,1.23218 0.73059,2.84667 1.62355,3.58775 0.89295,0.74108 4.98567,8.18985 9.09494,16.55282 4.10927,8.36297 7.94271,16.13777 8.51878,17.27734 0.57606,1.13956 1.0474,2.61463 1.0474,3.27793 0,1.04924 4.01711,10.06526 10.58564,23.75842 1.06872,2.22791 2.85064,4.62116 3.95983,5.31832 2.47916,1.55823 25.39361,-0.76444 35.63652,-3.61223 7.98658,-2.22046 11.50143,-1.61896 15.82928,2.70888 1.72953,1.72952 3.90425,2.85307 4.83272,2.49679 2.54431,-0.97635 6.71504,4.19175 6.71504,8.32082 0,1.98975 0.75059,5.17683 1.66798,7.0824 2.85162,5.92324 3.17467,8.28257 1.45598,10.63304 -1.50963,2.06454 -3.26764,2.26044 -19.39536,2.16137 -9.85971,-0.0606 -18.74949,0.42577 -20.01926,1.09524 -1.2562,0.66231 -5.01483,1.44009 -8.35251,1.72842 -3.33768,0.28833 -6.56038,1.00946 -7.16156,1.60251 -0.66156,0.65262 -0.49768,5.08018 0.41511,11.21557 0.82949,5.57549 1.51741,12.17131 1.5287,14.65739 0.0107,2.48606 0.76248,6.20864 1.66934,8.27237 2.07986,4.73316 2.27098,10.31182 1.43297,41.82737 -0.24777,9.31833 -0.81697,17.30891 -1.26489,17.75682 -0.44791,0.44791 -0.20465,1.95192 0.54058,3.34223 1.86267,3.47504 1.3703,15.28449 -0.91795,22.0171 -1.04089,3.06256 -1.91275,8.92982 -1.93746,13.03835 -0.0247,4.10852 -0.52153,7.76461 -1.10405,8.12462 -0.58251,0.36001 -1.07825,3.44186 -1.10162,6.84854 -0.0234,3.40668 -0.85956,9.41565 -1.85817,13.35326 -0.99862,3.93761 -2.11133,9.03861 -2.47269,11.33555 -0.36137,2.29694 -1.07421,4.98168 -1.5841,5.96608 -0.50989,0.9844 -1.31301,4.647 -1.78471,8.1391 -0.50533,3.74108 -1.55459,6.61673 -2.55427,7.00034 -1.322,0.50731 -1.38672,1.02447 -0.2931,2.34221 1.01755,1.22608 1.05569,2.41829 0.13865,4.33522 -4.85186,10.14218 -0.83333,14.8186 16.26129,18.92346 3.03884,0.7297 6.09862,2.03263 6.79953,2.89541 0.71363,0.87842 4.1264,1.67876 7.7559,1.81884 3.56484,0.13759 7.8239,0.91476 9.46457,1.72704 1.64067,0.81229 6.83849,2.07215 11.5507,2.79969 12.89006,1.99018 14.04755,2.67827 17.66003,10.49838 4.14411,8.97093 3.76329,17.31471 -0.97637,21.39158 -2.69137,2.31502 -4.07509,2.58779 -10.59387,2.08836 -4.12399,-0.31597 -7.67714,-1.07993 -7.89589,-1.69771 -0.21877,-0.61778 -1.39521,-1.12323 -2.61433,-1.12323 -1.2191,0 -2.54842,-0.53695 -2.95402,-1.19322 -0.40559,-0.65627 -1.91389,-1.19652 -3.35176,-1.20057 -1.43788,-0.004 -3.95668,-0.70479 -5.59736,-1.55724 -1.64067,-0.85243 -5.54736,-2.26514 -8.68155,-3.13936 -3.13418,-0.87421 -5.98485,-2.05277 -6.33481,-2.61901 -0.34995,-0.56626 -1.57763,-1.02955 -2.72818,-1.02955 -1.984,0 -4.28644,-0.9729 -18.8698,-7.97345 -3.40304,-1.63358 -7.16167,-2.78774 -8.35251,-2.5648 -2.75391,0.51556 -9.69987,14.39698 -12.30659,24.59454 -0.71803,2.80895 -1.80165,4.80055 -2.40805,4.42577 -0.60641,-0.37478 -1.42348,0.81715 -1.81574,2.64872 -0.39226,1.83159 -1.75037,5.53675 -3.01803,8.23371 -1.26766,2.69695 -2.30483,5.45018 -2.30483,6.11828 0,0.6681 -0.88805,1.95165 -1.97344,2.85235 -1.08541,0.90069 -3.53854,5.12777 -5.45144,9.39352 -1.91289,4.26575 -5.04714,9.29154 -6.96501,11.16842 -1.91788,1.87688 -3.18555,3.90035 -2.81707,4.49657 0.60197,0.974 -3.153,7.38184 -11.99843,20.47533 -1.67948,2.48606 -3.97212,4.87257 -5.09475,5.30337 -2.07464,0.79611 -7.07309,6.13428 -7.2933,7.78898 -0.56044,4.21123 -13.36819,19.97386 -16.22953,19.97386 -0.83639,0 -3.01499,2.28202 -4.84134,5.07117 -2.88482,4.40562 -12.19656,13.99061 -28.81949,29.6652 -2.51354,2.37014 -6.2512,5.16983 -8.30589,6.22152 -4.38736,2.24566 -9.98617,8.53506 -9.98617,11.21792 0,1.03272 1.31564,4.61591 2.92364,7.96267 3.02019,6.28597 5.82371,22.11472 4.53245,25.59028 -1.3696,3.68638 -7.84733,10.9219 -9.74391,10.88379 -1.03864,-0.0209 -2.93072,-0.8263 -4.20462,-1.78982 -1.2739,-0.96354 -3.25662,-1.75188 -4.40605,-1.75188 -1.44758,0 -1.94861,-0.73344 -1.63027,-2.38644 0.25277,-1.31253 -0.0544,-2.38643 -0.68267,-2.38643 -1.43223,0 -5.94377,-7.28403 -5.22843,-8.44148 0.29036,-0.4698 -0.27442,-1.16207 -1.25505,-1.53837 -0.98063,-0.37631 -1.78297,-1.52536 -1.78297,-2.55345 0,-1.02809 -0.89528,-3.23563 -1.98952,-4.90565 -1.68144,-2.56619 -2.5975,-2.92232 -5.91568,-2.29984 -2.15939,0.40511 -5.42545,1.5186 -7.2579,2.47442 -1.83246,0.95583 -4.23021,1.74117 -5.32832,1.74521 -1.09813,0.004 -3.51439,1.24842 -5.36947,2.76527 -5.50915,4.50465 -14.3351,9.17424 -17.34016,9.17424 -1.54186,0 -3.86251,0.73611 -5.157,1.63578 -1.29449,0.89969 -5.20959,1.69627 -8.7002,1.7702 -3.49061,0.074 -6.80501,0.41774 -7.36532,0.76404 -1.355,0.83745 -11.75534,2.81712 -22.08459,4.20373 -4.59388,0.61671 -10.42401,1.40528 -12.95586,1.75241 -2.53184,0.34713 -5.15551,0.9724 -5.83036,1.38948 -2.34534,1.4495 -17.14942,2.87217 -40.87457,3.92804 -23.52632,1.04703 -44.21445,-0.13394 -60.2574,-3.43974 -2.95321,-0.60853 -6.61033,-0.80722 -8.12695,-0.44149 -3.6081,0.87005 -16.55131,-1.89994 -21.10684,-4.51711 -4.41253,-2.53503 -16.48869,-5.07774 -19.53056,-4.11228 -1.26583,0.40176 -3.00516,2.90979 -3.98814,5.75072 -3.88195,11.21933 -7.22701,22.27332 -6.97352,23.04445 0.14798,0.45012 -0.27793,1.15645 -0.94645,1.56961 -0.69625,0.43031 -1.32722,7.11912 -1.47704,15.65763 -0.26414,15.05472 -2.85857,38.86968 -4.77351,43.81708 -1.09539,2.8301 -3.62885,3.2133 -7.70945,1.1662 z m 137.8729,-107.07988 c 8.85963,-0.65193 17.98773,-1.68485 20.28467,-2.29537 2.29694,-0.61052 6.86099,-1.40708 10.14234,-1.77012 11.36522,-1.25745 24.63061,-4.84505 35.79647,-9.68109 1.96881,-0.85271 7.33828,-2.71158 11.93216,-4.13082 4.59388,-1.41925 10.86831,-3.61183 13.94318,-4.87241 3.07487,-1.26059 6.70656,-2.29197 8.0704,-2.29197 1.36385,0 3.4121,-0.51858 4.55167,-1.15239 1.13957,-0.63383 4.89804,-2.31385 8.35217,-3.73341 9.89688,-4.06735 9.71784,-5.27786 -4.1309,-27.92764 -0.80252,-1.31253 -1.80165,-3.19185 -2.22029,-4.17625 -1.19046,-2.79931 -7.16319,-15.49062 -10.38861,-22.0745 -4.27223,-8.72067 -9.56766,-17.8411 -10.61411,-18.28091 -1.79389,-0.754 -5.66194,-8.12538 -6.36866,-12.13685 -0.39611,-2.24836 -1.32059,-4.81136 -2.05442,-5.69556 -1.01274,-1.22028 -0.94419,-1.51954 0.28449,-1.242 1.01259,0.22872 1.6467,-0.74311 1.69349,-2.59542 0.0507,-2.00659 1.12718,-3.46733 3.3396,-4.53173 4.13026,-1.98707 11.65041,-0.78752 11.65041,1.85836 0,1.02074 0.31799,1.53791 0.70664,1.14926 0.67646,-0.67647 6.56274,3.92354 9.31544,7.27985 0.72241,0.8808 3.32702,3.7423 5.78803,6.35888 2.461,2.61659 4.47456,5.00603 4.47456,5.30989 0,0.30385 0.54958,1.20098 1.2213,1.99362 3.85371,4.54744 11.965,18.71596 12.60851,22.02413 0.4149,2.13287 1.23155,3.87795 1.81479,3.87795 0.58323,0 1.06042,0.66268 1.06042,1.47261 0,1.32776 4.77488,11.93341 7.39516,16.42563 0.5742,0.98441 1.69244,3.30161 2.485,5.14935 1.29136,3.01065 1.86257,3.28044 5.50059,2.59794 5.80577,-1.08917 7.65966,-2.53915 25.38187,-19.85196 8.75332,-8.55112 17.79445,-17.26182 20.09139,-19.3571 6.68221,-6.09554 22.8349,-25.77544 22.11363,-26.9425 -0.36217,-0.58599 0.59743,-2.05334 2.13244,-3.26078 3.37781,-2.65697 15.65319,-20.25554 16.92605,-24.26594 0.50125,-1.57932 2.45,-4.41013 4.33056,-6.29068 1.88054,-1.88055 3.41917,-4.45177 3.41917,-5.71382 0,-1.26206 0.53695,-2.29465 1.19322,-2.29465 0.65626,0 1.19321,-0.95442 1.19321,-2.12093 0,-1.16652 0.80125,-3.26488 1.78055,-4.66303 0.9793,-1.39815 1.95872,-3.70956 2.17648,-5.13648 0.21776,-1.42692 0.90553,-2.95296 1.52835,-3.39119 1.68355,-1.18456 5.25356,-7.06926 5.25356,-8.6598 0,-2.46741 6.25664,-15.4047 7.44991,-15.4047 0.63686,0 0.86392,-0.76616 0.50458,-1.70259 -0.35933,-0.93641 0.0235,-2.2643 0.85074,-2.95085 1.45802,-1.21004 1.55425,-8.57635 0.1419,-10.86157 -1.12931,-1.82728 -23.65589,-11.87447 -26.84536,-11.97344 -4.98508,-0.1547 -19.09146,-11.30047 -19.09146,-15.08461 0,-1.30427 -0.40271,-2.77412 -0.89491,-3.26632 -1.47474,-1.47475 -1.02336,-3.55063 1.27095,-5.84495 2.50943,-2.50943 5.13028,-2.18559 18.31923,2.26363 4.70413,1.58691 9.40969,2.88528 10.45683,2.88528 1.04715,0 2.83627,0.50615 3.97583,1.12477 1.13957,0.61863 6.49592,2.86965 11.90301,5.00229 l 9.83108,3.87751 3.5926,-4.02398 c 2.05652,-2.30344 3.59261,-5.3606 3.59261,-7.15007 0,-1.71936 0.57076,-3.69686 1.26837,-4.39447 0.69761,-0.69761 1.31627,-2.95278 1.3748,-5.01151 0.0586,-2.05872 0.56166,-3.74313 1.11806,-3.74313 1.58977,0 1.18134,-3.32141 -0.47989,-3.9025 -1.11397,-0.38966 -0.99989,-1.0944 0.45069,-2.78417 3.59225,-4.18457 8.4555,-21.70057 9.90433,-35.6725 0.2722,-2.62507 1.16975,-6.38371 1.99455,-8.35251 0.8248,-1.96881 1.63416,-9.21759 1.79855,-16.10842 0.1644,-6.89082 0.59452,-18.27612 0.9558,-25.30065 0.36129,-7.02453 0.18467,-13.06373 -0.39248,-13.42043 -0.90401,-0.55872 -1.45002,-9.99526 -1.74668,-30.18714 -0.0409,-2.78914 -0.41685,-5.07117 -0.83528,-5.07117 -0.41843,0 -1.05473,-3.24174 -1.41401,-7.20387 -0.35927,-3.96214 -1.13931,-7.855 -1.73343,-8.65082 -0.59411,-0.79581 -1.23255,-3.59473 -1.41876,-6.2198 -0.1862,-2.62508 -0.95732,-5.16736 -1.71363,-5.64951 -0.7563,-0.48216 -0.83814,-0.88687 -0.18187,-0.89938 0.65627,-0.0125 -0.44315,-1.0206 -2.44316,-2.24025 -3.02774,-1.84636 -4.82519,-2.06267 -10.73894,-1.29239 -8.56658,1.1158 -20.27688,2.28505 -29.15256,2.91082 -3.59599,0.25354 -6.72818,1.031 -6.96042,1.72771 -0.23224,0.69671 -1.90684,1.26674 -3.72134,1.26674 -1.81451,0 -8.29934,1.04665 -14.41074,2.32589 -8.09759,1.69497 -11.73765,1.99086 -13.41945,1.09078 -2.1318,-1.14091 -14.79368,-0.81777 -26.13936,0.66706 -3.11624,0.40783 -4.55993,0.0753 -5.03372,-1.15934 -0.36538,-0.95215 -1.42914,-1.73117 -2.36393,-1.73117 -3.24415,0 -4.52208,-8.18289 -1.79724,-11.50826 0.6156,-0.75126 1.03682,-1.82516 0.93609,-2.38643 -0.42401,-2.3623 0.15944,-5.5345 0.88456,-4.80938 0.43182,0.43181 1.37148,0.30402 2.08813,-0.284 1.80676,-1.48245 25.89328,-5.23007 35.30965,-5.49381 4.26575,-0.11949 9.5064,-0.61021 11.6459,-1.09052 2.13949,-0.48029 7.95576,-1.03458 12.92505,-1.23176 4.96928,-0.19716 9.63531,-0.95873 10.36894,-1.69237 0.73363,-0.73363 4.0902,-1.33387 7.45905,-1.33387 3.36885,0 6.52787,-0.40271 7.02004,-0.89492 0.49218,-0.4922 3.29002,-0.95105 6.21743,-1.01967 2.9274,-0.0686 6.5909,-0.80355 8.1411,-1.63319 2.99557,-1.60318 4.79002,-7.02845 2.95079,-8.92133 -0.60579,-0.62346 -1.10142,-2.67536 -1.10142,-4.55979 0,-1.88442 -0.75762,-4.18386 -1.68361,-5.10984 -0.92598,-0.92598 -1.41619,-2.70622 -1.08934,-3.95607 0.6053,-2.31466 -1.31447,-5.30836 -6.92882,-10.80478 -2.12551,-2.08088 -3.40461,-4.92562 -3.96147,-8.81043 -0.45234,-3.15551 -1.45601,-5.98082 -2.23041,-6.27849 -0.77439,-0.29766 -1.49194,-1.98189 -1.59454,-3.74273 -0.10262,-1.76086 -0.91218,-3.76806 -1.79905,-4.46047 -0.88686,-0.6924 -1.43675,-2.46705 -1.22197,-3.94365 0.26838,-1.84501 -0.21729,-2.68474 -1.55272,-2.68474 -1.06878,0 -1.64591,-0.48106 -1.28253,-1.06902 0.61184,-0.99 -0.67739,-4.13433 -3.47564,-8.47671 -0.63436,-0.9844 -1.24309,-2.37848 -1.35273,-3.09797 -0.10966,-0.71947 -2.40678,-3.56014 -5.10472,-6.31259 -2.69795,-2.75244 -4.90536,-5.4261 -4.90536,-5.94146 0,-1.58019 -5.49446,-6.19975 -6.35291,-5.3413 -0.44351,0.44352 -0.80639,-0.3381 -0.80639,-1.73693 0,-1.39883 -1.09959,-3.13181 -2.44355,-3.85107 -1.34394,-0.71926 -2.94994,-2.63965 -3.56886,-4.26753 -0.61892,-1.6279 -2.73761,-3.87728 -4.7082,-4.99863 -1.97059,-1.12134 -3.58628,-2.71 -3.59044,-3.53034 -0.004,-0.82034 -0.58054,-1.49152 -1.28088,-1.49152 -0.70034,0 -2.98237,-1.78195 -5.07117,-3.95989 -2.0888,-2.17794 -6.75103,-5.93384 -10.36051,-8.34644 -3.60948,-2.41261 -9.34052,-6.93979 -12.73564,-10.0604 -3.39512,-3.12061 -8.36891,-6.90206 -11.05287,-8.4032 l -4.87992,-2.72936 -3.13383,3.32597 c -1.72361,1.82927 -4.59835,5.32146 -6.38832,7.7604 -1.78996,2.43894 -3.59439,4.09453 -4.00984,3.67908 -0.41544,-0.41544 -0.75535,0.18734 -0.75535,1.33953 0,2.09587 -3.46453,6.27863 -15.21351,18.36743 -3.44541,3.54506 -6.26903,7.05839 -6.27472,7.8074 -0.006,0.74899 -1.91883,3.37537 -4.25141,5.83638 -2.33258,2.461 -3.94231,4.47456 -3.57718,4.47456 0.36513,0 -1.07766,2.37984 -3.2062,5.28856 -2.12853,2.9087 -4.77478,6.58777 -5.88053,8.17569 -5.06003,7.26651 -24.83689,7.03626 -24.83689,-0.28917 0,-1.84538 5.63191,-10.04558 11.03724,-16.07047 1.14847,-1.28011 2.08813,-2.91769 2.08813,-3.63907 0,-0.72137 1.58902,-3.17063 3.53116,-5.44277 1.94213,-2.27216 3.55297,-5.07085 3.57964,-6.21932 0.0267,-1.14847 0.60229,-2.08813 1.27915,-2.08813 0.67688,0 1.56022,-0.93965 1.96299,-2.08812 0.71334,-2.03405 1.70554,-3.28968 8.05741,-10.19657 1.68714,-1.83457 3.06754,-3.84812 3.06754,-4.47456 0,-0.62644 0.50659,-1.13899 1.12575,-1.13899 0.61917,0 2.0773,-1.61084 3.24031,-3.57964 1.163,-1.96881 2.8042,-3.57965 3.64711,-3.57965 0.8429,0 1.53255,-0.97265 1.53255,-2.16144 0,-1.18879 1.20502,-3.45487 2.67783,-5.03574 5.46896,-5.87025 8.24777,-10.98812 7.5265,-13.86194 -0.38724,-1.54286 -1.40098,-2.8052 -2.25278,-2.8052 -0.85179,0 -4.73442,-1.63341 -8.62808,-3.62978 -3.89365,-1.99638 -9.49563,-4.18902 -12.44884,-4.87254 -2.95321,-0.68351 -6.44337,-1.67942 -7.7559,-2.21311 -1.31254,-0.5337 -5.87659,-2.15906 -10.14234,-3.61191 -4.26575,-1.45285 -8.266,-3.11912 -8.88946,-3.70283 -0.62345,-0.5837 -2.05531,-1.06129 -3.18191,-1.06129 -1.12659,0 -2.22733,-0.45508 -2.44609,-1.01128 -0.41576,-1.05711 -12.06493,-5.29616 -21.27902,-7.74329 -2.95321,-0.78434 -6.5423,-2.08863 -7.97576,-2.89843 -1.43346,-0.8098 -4.0603,-1.47237 -5.83744,-1.47237 -1.77713,0 -6.77919,-1.02142 -11.11569,-2.26982 -12.11576,-3.4879 -27.38477,-5.59237 -29.75014,-4.10032 -1.67583,1.05707 -1.94463,3.24817 -1.73605,14.15044 0.13576,7.09484 0.78157,15.62972 1.43514,18.96642 2.38504,12.17614 2.17601,15.39302 -1.10816,17.0546 -3.58089,1.8117 -6.74963,1.9646 -7.7332,0.37314 -0.39693,-0.64224 -0.89039,-3.46122 -1.09656,-6.26438 -0.20618,-2.80315 -0.76748,-6.01415 -1.24733,-7.13556 -0.47985,-1.12141 -0.25299,-3.91593 0.50415,-6.21006 0.89953,-2.72559 1.08814,-7.60152 0.54422,-14.06951 -0.45781,-5.44408 -0.87491,-10.838 -0.9269,-11.98647 -0.052,-1.14847 -0.51641,-2.08813 -1.03206,-2.08813 -0.51564,0 -0.93752,-0.76645 -0.93752,-1.70322 0,-0.93677 -1.37006,-2.78091 -3.04458,-4.09809 -2.93279,-2.30693 -7.5012,-3.18501 -22.01296,-4.23109 -3.60947,-0.26019 -8.17352,-0.78321 -10.14233,-1.16227 -8.31283,-1.6005 -37.99415,-1.68095 -42.43248,-0.11502 -2.47973,0.8749 -6.58575,1.28387 -9.27219,0.92354 -13.41411,-1.7992 -24.64228,2.99116 -23.47761,10.01644 0.3057,1.84401 0.79905,5.23205 1.09633,7.52899 0.7323,5.65817 2.92177,12.85268 5.44687,17.89824 2.47164,4.93872 5.38194,19.57423 4.25498,21.39771 -0.43286,0.70037 -1.56074,1.2734 -2.50641,1.2734 -0.94568,0 -1.7194,0.53694 -1.7194,1.19321 0,0.65627 -1.0739,1.19322 -2.38644,1.19322 -1.59632,0 -2.38643,-0.79548 -2.38643,-2.40262 0,-1.32144 -0.47379,-3.335 -1.05287,-4.47456 -3.18659,-6.27084 -5.52085,-22.93878 -3.21706,-22.97149 0.70779,-0.01 0.53747,-0.49281 -0.3785,-1.0728 -0.91596,-0.57998 -1.34213,-1.89693 -0.94702,-2.92655 0.39509,-1.02962 0.20487,-2.18939 -0.42274,-2.57727 -0.6276,-0.38788 -1.1411,-2.01592 -1.1411,-3.61786 0,-1.60194 -0.5201,-2.91261 -1.15578,-2.91261 -0.63566,0 -0.84842,-0.8009 -0.4728,-1.77977 0.38994,-1.01617 -0.13807,-2.09483 -1.23067,-2.51409 -1.05248,-0.40388 -1.91362,-1.66004 -1.91362,-2.79147 0,-1.13143 -1.34229,-2.77552 -2.98289,-3.65353 -2.58561,-1.38379 -4.05564,-1.25869 -11.03725,0.9392 -14.86624,4.68008 -21.98894,6.61837 -23.97744,6.52502 -2.5609,-0.12023 -13.5712,3.25772 -15.0409,4.61452 -0.6234,0.5756 -1.9946,1.04655 -3.047,1.04655 -1.0525,0 -4.8379,1.39138 -8.4122,3.09197 -3.5743,1.70059 -7.841,3.69409 -9.4817,4.43 -1.6407,0.73591 -6.6242,3.6401 -11.0744,6.45375 -4.4503,2.81365 -8.3794,5.11573 -8.7313,5.11573 -0.352,0 -3.5329,2.28203 -7.0688,5.07117 -3.5358,2.78914 -7.6035,5.90427 -9.0393,6.92252 -2.3811,1.68865 -2.4855,2.22987 -1.1889,6.15886 0.7819,2.36915 2.2011,4.60663 3.1538,4.97221 0.9526,0.36556 1.7321,1.44219 1.7321,2.3925 0,0.95031 0.4027,1.90682 0.8949,2.12558 1.2247,0.54433 7.4576,8.97205 7.4576,10.08373 0,0.90546 3.9704,9.98143 6.0964,13.9356 0.6339,1.17905 1.2119,5.62906 1.2845,9.88894 0.1106,6.48861 -0.2839,8.13265 -2.4312,10.13323 -1.4098,1.31341 -2.5633,2.83102 -2.5633,3.37247 0,0.54146 -2.1875,2.50043 -4.8612,4.35328 -4.0042,2.77492 -5.9152,3.31288 -10.8396,3.05151 -4.2018,-0.22302 -6.6169,0.26051 -8.127,1.6271 -1.998,1.80813 -2.3595,1.75199 -5.1593,-0.80111 -1.6558,-1.51003 -4.0773,-5.69872 -5.3809,-9.3082 -2.2228,-6.15444 -7.8127,-18.27361 -11.5721,-25.08875 -2.6354,-4.77757 -7.3691,-8.6196 -10.62,-8.6196 -4.3526,0 -26.8996,20.33199 -27.0081,24.35473 -0.024,0.87875 -2.7544,4.55093 -6.0684,8.16041 -3.3139,3.60948 -7.6806,9.11319 -9.7036,12.23046 -2.023,3.11728 -4.0386,5.66778 -4.479,5.66778 -0.4404,0 -1.4272,1.20813 -2.193,2.68473 -0.7657,1.47661 -2.7541,4.83253 -4.4187,7.4576 -1.6645,2.62508 -3.3346,5.71253 -3.7113,6.861 -0.3767,1.14847 -1.1592,2.08812 -1.7389,2.08812 -0.5797,0 -1.054,0.67668 -1.054,1.50372 0,0.82704 -1.3424,2.95139 -2.9831,4.72078 -1.6407,1.76939 -2.983,3.77746 -2.983,4.46238 0,0.6849 -0.5977,1.11105 -1.3283,0.94698 -0.7305,-0.16407 -1.5464,1.04406 -1.8131,2.68474 -0.6589,4.05425 -3.7249,10.54399 -7.1498,15.13389 -6.1919,8.29816 -2.7896,19.38526 9.7963,31.92378 7.7857,7.75641 16.5898,18.89953 19.7304,24.97214 3.7052,7.16431 3.7951,8.85786 0.6378,12.01507 -2.4606,2.46063 -3.7013,2.82901 -7.5316,2.23616 -4.2987,-0.66535 -12.2146,-4.01838 -15.1946,-6.4361 -0.7279,-0.59052 -4.5451,-3.61326 -8.4827,-6.7172 -3.9376,-3.10394 -7.3383,-6.06143 -7.557,-6.5722 -0.2188,-0.51077 -1.1753,-0.92867 -2.1256,-0.92867 -0.9503,0 -2.0369,-0.80542 -2.4146,-1.78982 -0.9046,-2.35735 -4.5012,-2.28509 -6.5061,0.13074 -1.9553,2.35601 -9.4341,25.1246 -9.4359,28.72707 -7e-4,1.43389 -0.5277,3.99152 -1.1711,5.68363 -1.3402,3.52509 -3.558,15.43704 -4.3436,23.32954 -0.2939,2.95321 -1.0046,6.44336 -1.5793,7.7559 -1.9155,4.37472 -4.706,41.49801 -4.1258,54.88793 0.6859,15.83069 1.216,16.62368 10.8707,16.26177 8.0786,-0.30281 16.2526,-1.115 21.0596,-2.09252 1.9231,-0.39108 5.3052,0.0934 7.7559,1.11109 2.3901,0.99252 8.1038,2.67047 12.6971,3.72879 5.3188,1.22547 9.3802,2.95292 11.1844,4.75714 4.5919,4.59196 2.4473,5.87179 -8.2724,4.93669 -9.7844,-0.8535 -14.1965,0.33205 -17.913,4.81325 -2.4281,2.9278 -8.965,5.40575 -15.9627,6.0511 -5.4865,0.50598 -8.75,1.44496 -13.7808,3.96498 -2.7693,1.38718 -2.3206,12.10739 1.0867,25.96518 2.1801,8.86665 5.8488,20.06206 7.7249,23.57338 1.052,1.96881 1.916,4.25083 1.92,5.07117 0,0.82034 0.4183,1.49152 0.9205,1.49152 0.5022,0 1.8547,2.65105 3.0055,5.89124 1.1508,3.24018 3.977,9.22542 6.2804,13.30054 2.3034,4.07512 4.3377,8.39054 4.5207,9.58982 0.1831,1.19929 0.7046,2.55232 1.159,3.00675 0.4545,0.45442 0.8263,1.70937 0.8263,2.78879 0,1.07941 0.9549,3.00347 2.122,4.27569 2.398,2.61406 7.724,11.48522 11.9402,19.888 1.5572,3.10349 5.136,7.93602 7.9529,10.73894 5.4014,5.37461 18.55,24.07889 18.5601,26.40223 0,0.75081 1.2252,2.88865 2.7153,4.75076 2.4135,3.01605 3.2008,3.29343 7.2119,2.54095 2.4764,-0.46458 5.1725,-1.51457 5.9912,-2.33331 0.8188,-0.81875 2.806,-1.89145 4.416,-2.38379 1.6101,-0.49235 3.7328,-1.57104 4.7172,-2.39712 0.9845,-0.82607 3.8034,-2.21279 6.2644,-3.08161 2.461,-0.86881 4.4746,-2.26035 4.4746,-3.09232 0,-0.85438 0.7789,-1.21378 1.7898,-0.82586 0.9844,0.37776 1.7898,0.2235 1.7898,-0.34278 0,-0.56628 1.4766,-1.6755 3.2814,-2.46495 1.8047,-0.78944 6.494,-2.84843 10.4206,-4.57554 5.3355,-2.34683 8.2615,-2.96072 11.5814,-2.42986 4.0932,0.65454 8.0471,-0.41714 15.5681,-4.21963 1.1396,-0.57616 3.0457,-1.04755 4.2359,-1.04755 1.1902,0 2.6741,-0.49613 3.2975,-1.1025 1.2002,-1.1673 13.54,-6.05517 15.2893,-6.0562 0.5667,-3.2e-4 0.6848,1.74448 0.2625,3.87736 -0.4223,2.13287 -0.7832,4.84285 -0.802,6.02219 -0.019,1.17934 -1.2107,2.63759 -2.6489,3.24056 -3.9125,1.6404 -6.7908,4.21738 -6.7933,6.08229 -10e-4,0.91206 -2.6925,3.4918 -5.9805,5.73277 -3.2879,2.24098 -8.2088,6.13385 -10.9352,8.65082 -2.7263,2.51698 -5.6731,4.57633 -6.5483,4.57633 -0.8752,0 -1.5913,0.53694 -1.5913,1.19321 0,0.65627 -0.6289,1.19322 -1.3975,1.19322 -0.7687,0 -2.3206,0.83526 -3.4486,1.85614 -1.1281,1.02087 -8.1507,4.96223 -15.6058,8.75855 -17.236,8.77701 -18.2121,10.54561 -10.0121,18.1419 3.117,2.88753 6.2702,5.47059 7.0071,5.74013 0.7369,0.26955 1.9492,1.07497 2.6939,1.78982 3.6476,3.50117 7.7589,6.66923 8.655,6.66923 0.5496,0 1.9711,1.0739 3.1589,2.38643 1.1878,1.31254 2.6088,2.38644 3.1576,2.38644 0.5489,0 3.3003,1.74508 6.1142,3.87795 2.8139,2.13287 7.2483,4.95185 9.8543,6.26438 2.606,1.31254 5.0067,2.73136 5.3348,3.15293 0.3282,0.42157 3.8183,2.45323 7.7559,4.51479 8.028,4.2031 11.648,6.3234 12.5288,7.33835 0.3281,0.3781 3.8183,1.96742 7.7559,3.5318 3.9376,1.56437 8.5846,3.80551 10.3265,4.9803 1.742,1.17478 3.5398,2.13598 3.995,2.13598 0.8437,0 20.2336,9.55612 25.6512,12.64196 1.7408,0.99152 4.2254,1.3836 5.9661,0.94148 3.6145,-0.91802 3.8083,-0.9104 11.5326,0.4525 3.58978,0.63339 6.95116,0.64645 8.05044,0.0313 1.8033,-1.00917 6.66772,-10.28107 6.66772,-12.70909 0,-0.63758 0.4037,-1.33822 0.8971,-1.55699 1.07029,-0.47452 7.45541,-19.21447 7.45541,-21.88118 0,-1.02254 0.81493,-2.17188 1.81095,-2.55409 0.99603,-0.38221 1.69617,-1.30501 1.5559,-2.05067 -0.14029,-0.74567 0.1701,-2.69813 0.68976,-4.3388 1.35785,-4.2871 8.13581,-18.38338 9.18554,-19.10341 0.48798,-0.33471 1.25096,-2.05776 1.69551,-3.82901 0.44456,-1.77124 1.56103,-3.84516 2.48103,-4.60871 0.92002,-0.76354 1.67276,-2.05552 1.67276,-2.87107 0,-0.81554 1.05631,-2.82568 2.34736,-4.46697 1.29103,-1.64129 2.05171,-3.2798 1.69038,-3.64112 -0.36133,-0.36133 0.4495,-1.76343 1.80185,-3.11578 1.35949,-1.35949 2.14881,-3.2666 1.76544,-4.26562 -0.42908,-1.11818 0.14972,-2.07373 1.5186,-2.50709 1.21655,-0.38515 3.64008,-1.46531 5.3856,-2.40036 1.74553,-0.93505 3.93035,-1.40974 4.85516,-1.05485 1.7527,0.67258 6.88636,10.25291 6.88636,12.85119 0,2.65107 -5.85794,19.52121 -9.54321,27.48326 -1.97019,4.2566 -3.58216,8.35686 -3.58216,9.11169 0,0.75483 -1.28472,4.15813 -2.8549,7.56291 -1.5702,3.40477 -3.75633,9.1437 -4.85808,12.75318 -1.10173,3.60948 -2.44498,7.63658 -2.98499,8.94912 -1.32028,3.20906 -5.93599,16.84425 -7.54253,22.28126 -1.38992,4.7039 0.0946,8.14575 3.51338,8.14575 0.92713,0 2.90739,0.80048 4.40056,1.77884 2.35186,1.54101 14.43057,2.70129 18.08246,1.737 0.65627,-0.17327 1.99864,0.005 2.98304,0.39534 0.9844,0.39072 3.93761,0.98618 6.56269,1.32327 2.62507,0.33707 7.18912,1.07748 10.14233,1.64536 6.32032,1.21534 35.65781,0.74894 58.46758,-0.92949 z M -1009.6076,710.4823 c -2.5847,-2.7514 -3.3136,-5.66717 -1.7958,-7.18488 0.4392,-0.4392 0.9974,-2.81072 1.2405,-5.27004 0.2431,-2.45933 2.0315,-7.88771 3.9743,-12.06307 1.9428,-4.17536 3.5324,-8.87365 3.5324,-10.44064 0,-1.56699 0.4942,-2.84908 1.0984,-2.84908 0.6041,0 1.4399,-1.55516 1.85742,-3.45592 0.41747,-1.90076 1.8025,-4.40023 3.07784,-5.55441 1.27535,-1.15416 2.3188,-2.60525 2.3188,-3.22464 0,-0.61939 1.47661,-2.61861 3.28134,-4.44271 4.59933,-4.64867 6.74577,-7.33986 7.57786,-9.50101 0.39427,-1.02403 1.28219,-1.86188 1.97315,-1.86188 0.69095,0 2.56656,-1.41382 4.16801,-3.14181 1.60145,-1.72799 4.18329,-3.54539 5.73743,-4.03866 1.55414,-0.49326 3.79798,-2.13288 4.98632,-3.64361 1.18833,-1.51072 4.96736,-3.80286 8.39783,-5.09365 3.43047,-1.29077 8.99994,-3.74104 12.37659,-5.44504 3.37665,-1.70398 7.225,-3.09816 8.55189,-3.09816 2.77614,0 13.34932,4.31269 13.34932,5.44504 0,2.49977 -4.16688,8.87439 -5.80373,8.87874 -1.07369,0.002 -5.40497,3.22454 -9.62505,7.1593 -4.22009,3.93476 -8.30355,7.1541 -9.07434,7.1541 -2.11617,0 -12.65273,11.6161 -17.69452,19.50744 -2.45227,3.83826 -6.71955,9.27195 -9.48281,12.07488 -2.76327,2.80292 -5.59624,6.37436 -6.29549,7.93653 -4.59783,10.27186 -7.60947,15.39002 -11.67646,19.84365 -3.85106,4.21716 -5.37407,5.07117 -9.0438,5.07117 -3.07,0 -5.2025,-0.84043 -7.0074,-2.76164 z m 259.69204,-36.66685 c -1.106,-0.64516 -4.05921,-1.39035 -6.56269,-1.65599 -7.26432,-0.7708 -16.99912,-3.16064 -17.73684,-4.3543 -0.37278,-0.60316 -1.66146,-1.09665 -2.86376,-1.09665 -1.20229,0 -9.16255,-3.49015 -17.68946,-7.7559 -8.52691,-4.26575 -15.8566,-7.7559 -16.28819,-7.7559 -0.4316,0 -4.2301,-1.61085 -8.44111,-3.57965 -4.21102,-1.96881 -8.18904,-3.57965 -8.84007,-3.57965 -2.14236,0 -3.41891,-3.89803 -2.79642,-8.53905 0.34537,-2.57496 0.0224,-5.27394 -0.74104,-6.19391 -1.5805,-1.9044 -0.56911,-8.48791 1.88835,-12.29203 2.19257,-3.39407 7.88228,-5.65001 11.97134,-4.74658 1.80989,0.39986 5.82499,1.25171 8.92243,1.89299 3.09746,0.64127 7.78508,2.5253 10.41693,4.18672 2.63186,1.66141 5.33282,3.02076 6.00213,3.02076 0.66931,0 1.21692,0.41922 1.21692,0.93161 0,0.51239 1.47661,1.5586 3.28135,2.32492 1.80473,0.76631 5.44438,2.62911 8.08809,4.13954 2.6437,1.51045 5.55922,2.91268 6.47891,3.11608 0.9197,0.20339 3.13513,1.41152 4.92319,2.68473 1.78804,1.27321 3.79454,2.31492 4.45889,2.31492 0.66433,0 1.38686,0.40271 1.60563,0.89492 0.81057,1.82381 10.18048,6.04247 17.67779,7.95915 4.25387,1.08751 8.14547,2.71197 8.64799,3.60992 0.50252,0.89794 3.6391,2.33113 6.97019,3.18486 5.20491,1.33398 6.30428,2.14523 7.81858,5.76945 1.19256,2.85421 1.40926,4.99151 0.67048,6.61296 -0.60036,1.31767 -1.2452,2.9327 -1.43297,3.58897 -0.61391,2.14569 -4.09307,4.09959 -7.36877,4.13831 -1.76601,0.0209 -3.54278,0.57489 -3.94838,1.23116 -1.04342,1.68829 -6.56269,1.48759 -6.56269,-0.23864 0,-1.11367 -0.31819,-1.11367 -1.43185,0 -1.7164,1.71639 -5.56444,1.80238 -8.33495,0.18628 z m -216.44979,-128.7748 c -0.60007,-0.5874 -3.68292,-1.36757 -6.85078,-1.73372 -3.16787,-0.36615 -6.12405,-0.89087 -6.56931,-1.16606 -0.44525,-0.27518 -9.32025,-0.84506 -19.72222,-1.2664 -10.40194,-0.42133 -21.13794,-1.17372 -23.85774,-1.67195 -5.4285,-0.99449 -26.4237,0.10953 -39.5482,2.07968 -10.3014,1.54631 -24.0941,1.69758 -24.974,0.2739 -0.3596,-0.58187 -2.4153,-1.3884 -4.5683,-1.79231 -2.153,-0.40389 -6.5887,-3.07186 -9.8572,-5.92881 -3.2685,-2.85696 -7.1509,-5.57676 -8.6275,-6.04401 -3.6357,-1.15048 -3.3759,-3.15973 0.944,-7.2984 3.5709,-3.42113 3.8702,-3.48189 18.7931,-3.81474 8.3405,-0.18603 16.5068,-0.77085 18.1475,-1.29959 1.6407,-0.52874 18.823,-0.84031 38.1829,-0.69238 73.79795,0.56388 71.36306,0.47048 77.17151,2.96028 2.94704,1.26324 7.20634,2.29681 9.46512,2.29681 5.07418,0 6.16484,2.35604 5.87726,12.69605 -0.22632,8.13759 -1.66771,10.41898 -7.37472,11.67245 -6.49167,1.42581 -15.51561,1.82145 -16.63142,0.7292 z m 154.02703,-3.59884 c -6.24803,-1.27377 -11.84252,-4.46024 -14.75267,-8.40272 -2.42123,-3.28015 -2.70905,-4.6612 -2.03321,-9.75594 0.433,-3.26417 1.24972,-6.82766 1.81493,-7.91887 0.5652,-1.09121 2.75197,-6.54807 4.85949,-12.12636 2.10751,-5.57828 4.57358,-11.20147 5.48014,-12.49596 0.90656,-1.29449 1.64828,-3.28113 1.64828,-4.41473 0,-1.13362 1.61085,-4.44794 3.57965,-7.36515 1.96881,-2.91723 3.57965,-5.89735 3.57965,-6.62251 0,-0.72516 0.53695,-1.31848 1.19322,-1.31848 0.65626,0 1.19321,-0.76422 1.19321,-1.69827 0,-0.93406 1.34237,-3.29359 2.98304,-5.24342 1.64067,-1.94983 2.98304,-4.01006 2.98304,-4.57829 0,-0.56825 1.34237,-2.48086 2.98304,-4.25024 1.64067,-1.7694 2.98304,-3.71498 2.98304,-4.32352 0,-1.76828 8.99965,-9.40957 14.21729,-12.07141 4.83923,-2.46879 10.34149,-3.12626 12.76188,-1.52493 2.37334,1.57021 5.23766,8.42042 5.23766,12.52624 0,5.84677 -8.59783,21.9634 -18.98525,35.58785 -3.25101,4.26414 -8.45872,14.22597 -8.45872,16.18072 0,0.88665 -0.50077,1.6121 -1.1128,1.6121 -0.61205,0 -1.47525,1.20814 -1.91822,2.68474 -0.44296,1.4766 -2.27568,5.63795 -4.07269,9.24742 -1.79701,3.60948 -4.48616,10.32132 -5.97589,14.9152 -3.2783,10.10926 -5.29259,12.35456 -10.18811,11.35653 z m -105.867,-43.27505 c -2.30403,-2.22765 -2.74601,-3.80204 -2.59606,-9.24743 0.67521,-24.51972 0.24347,-34.62551 -1.738,-40.68162 -0.73132,-2.23518 -1.57363,-8.10518 -1.87179,-13.04443 -0.29817,-4.93926 -1.10524,-10.46159 -1.7935,-12.27186 -1.33446,-3.50991 -1.25576,-5.76644 0.23983,-6.87555 0.5072,-0.37613 0.14487,-2.5443 -0.80521,-4.81813 -1.26775,-3.03417 -1.71989,-9.20223 -1.69917,-23.18043 0.0155,-10.4754 -0.48476,-21.5554 -1.11173,-24.62223 -0.62699,-3.06682 -0.68829,-6.28851 -0.13621,-7.15929 0.55207,-0.87079 1.01198,-3.57589 1.02203,-6.01133 0.0208,-5.02462 3.79781,-9.5637 7.01014,-8.4244 3.81018,1.35133 4.94028,3.05314 4.94028,7.43946 0,2.44043 0.83515,7.07297 1.85587,10.29454 2.26333,7.14344 4.03072,18.37596 4.77046,30.31835 1.10563,17.8494 3.17498,34.05844 4.64617,36.39308 0.82712,1.31254 1.79655,3.99728 2.1543,5.96608 0.35775,1.96881 0.95807,4.65355 1.33406,5.96608 0.37598,1.31254 1.24714,4.8027 1.9359,7.75591 0.68876,2.95321 2.55811,8.33388 4.15413,11.95705 3.29336,7.47634 3.692,11.83764 2.01546,22.0496 -1.4375,8.75593 -2.27156,10.96123 -4.46376,11.80246 -0.93366,0.35827 -1.69756,1.47368 -1.69756,2.47869 0,1.76034 -1.32056,2.3259 -4.47456,1.91634 -0.82034,-0.10655 -1.49152,0.57783 -1.49152,1.52078 0,3.92583 -8.29735,4.25113 -12.19956,0.47828 z m 328.40177,248.48722 c 0,-0.65626 -0.53695,-1.19321 -1.19322,-1.19321 -0.65627,0 -1.19321,0.53695 -1.19321,1.19321 0,0.65627 0.53694,1.19322 1.19321,1.19322 0.65627,0 1.19322,-0.53695 1.19322,-1.19322 z m 30.64549,-84.94206 c -0.3809,-0.95186 -0.66364,-0.66913 -0.72089,0.72091 -0.0518,1.25784 0.23021,1.96259 0.6267,1.56609 0.39649,-0.39649 0.43888,-1.42565 0.0941,-2.287 z"
       id="path10381"
       inkscape:connector-curvature="0" />
  </g>
</svg>
